{
.appVersion = "939";
classes = (
{
automatic = 1;
code = "A Aacute Acircumflex Adieresis Agrave Aring Atilde AE B C Ccedilla D Eth E Eacute Ecircumflex Edieresis Egrave F G H I Iacute Icircumflex Idieresis Igrave J K L M N Ntilde O Oacute Ocircumflex Odieresis Ograve Oslash Otilde OE P Thorn Q R S T U Uacute Ucircumflex Udieresis Ugrave V W X Y Yacute Z A-cy Be-cy Ve-cy Ge-cy Gje-cy Gheupturn-cy De-cy Ie-cy Iegrave-cy Io-cy Zhe-cy Ze-cy Ii-cy Iishort-cy Iigrave-cy Ka-cy Kje-cy El-cy Em-cy En-cy O-cy Pe-cy Er-cy Es-cy Te-cy U-cy Ushort-cy Ef-cy Ha-cy Che-cy Tse-cy Sha-cy Shcha-cy Dzhe-cy Softsign-cy Hardsign-cy Yeru-cy Lje-cy Nje-cy Dze-cy E-cy Ereversed-cy I-cy Yi-cy Je-cy Tshe-cy Iu-cy Ia-cy Dje-cy Yat-cy Yusbig-cy Fita-cy Izhitsa-cy Ghestroke-cy Ghemiddlehook-cy Zhedescender-cy Zedescender-cy Kadescender-cy Kaverticalstroke-cy Kabashkir-cy Endescender-cy Esdescender-cy Ustrait-cy Ustraitstroke-cy Chedescender-cy Cheverticalstroke-cy Shha-cy Palochka-cy Zhebreve-cy Chekhakassian-cy Abreve-cy Adieresis-cy Iebreve-cy Schwa-cy Zhedieresis-cy Zedieresis-cy Imacron-cy Idieresis-cy Odieresis-cy Obarred-cy Umacron-cy Udieresis-cy Uhungarumlaut-cy Chedieresis-cy Gedescender-cy Yerudieresis-cy Qa-cy We-cy";
name = Uppercase;
}
);
copyright = "Copyright (c) 2011 the Alice font authors(contact@cyreal.org) with Reserved Font Name \"Alice\"";
customParameters = (
{
name = trademark;
value = "Alice is a trademark of Cyreal (www.cyreal.org).";
},
{
name = license;
value = "This Font Software is licensed under the SIL Open Font License, Version 1.1. This license is available with a FAQ at: http://scripts.sil.org/OFL";
},
{
name = licenseURL;
value = "http://scripts.sil.org/OFL";
},
{
name = fsType;
value = (
);
},
{
name = "Disable Last Change";
value = 1;
},
{
name = "Use Line Breaks";
value = 1;
},
{
name = vendorID;
value = CYRE;
},
{
name = "Use Typo Metrics";
value = 1;
}
);
date = "2016-12-15 10:50:31 +0000";
designer = "Ksenia Yerulevich";

glyphs = (
{
glyphname = A;
layers = (
{
anchors = (
{
name = bottom;
position = "{327, 0}";
},
{
name = ogonek;
position = "{531, 0}";
},
{
name = top;
position = "{297, 631}";
}
);
background = {
paths = (
{
closed = 1;
nodes = (
"196 243 LINE",
"406 243 LINE",
"305 500 LINE",
"302 500 LINE"
);
},
{
closed = 1;
nodes = (
"236 637 LINE",
"267 637 LINE",
"314 628 LINE",
"351 606 LINE",
"381 564 LINE",
"395 531 LINE",
"563 117 LINE",
"568 104 LINE",
"580 77 LINE",
"596 55 LINE",
"618 40 LINE",
"634 40 LINE",
"645 40 LINE",
"658 36 LINE",
"659 19 LINE",
"659 11 LINE",
"650 -3 LINE",
"641 -3 LINE",
"609 -1 LINE",
"561 0 LINE",
"531 0 LINE",
"471 0 LINE",
"407 -3 LINE",
"397 -3 LINE",
"389 11 LINE",
"389 19 LINE",
"390 36 LINE",
"403 40 LINE",
"414 40 LINE",
"438 40 LINE",
"464 49 LINE",
"471 67 LINE",
"466 96 LINE",
"458 117 LINE",
"424 200 LINE",
"177 200 LINE",
"153 139 LINE",
"145 117 LINE",
"137 91 LINE",
"131 61 LINE",
"143 45 LINE",
"176 40 LINE",
"205 40 LINE",
"216 40 LINE",
"229 36 LINE",
"230 19 LINE",
"230 11 LINE",
"221 -3 LINE",
"212 -3 LINE",
"180 -1 LINE",
"133 0 LINE",
"103 0 LINE",
"88 0 LINE",
"66 0 LINE",
"45 -1 LINE",
"22 -2 LINE",
"6 -3 LINE",
"-4 -3 LINE",
"-12 11 LINE",
"-12 19 LINE",
"-11 36 LINE",
"2 40 LINE",
"13 40 LINE",
"33 40 LINE",
"58 53 LINE",
"75 75 LINE",
"87 103 LINE",
"93 117 LINE",
"268 531 LINE",
"275 549 LINE",
"271 571 LINE",
"256 585 LINE",
"233 592 LINE",
"221 594 LINE",
"206 597 LINE",
"196 602 LINE",
"196 617 LINE",
"196 634 LINE",
"219 637 LINE"
);
}
);
};
layerId = UUID0;
paths = (
{
closed = 1;
nodes = (
"49 -1 OFFCURVE",
"63 0 OFFCURVE",
"103 0 CURVE SMOOTH",
"143 0 OFFCURVE",
"169 -1 OFFCURVE",
"212 -3 CURVE",
"224 -3 OFFCURVE",
"230 8 OFFCURVE",
"230 19 CURVE SMOOTH",
"229 42 OFFCURVE",
"219 40 OFFCURVE",
"205 40 CURVE",
"127 40 OFFCURVE",
"123 49 OFFCURVE",
"145 117 CURVE SMOOTH",
"146 119 OFFCURVE",
"146 124 OFFCURVE",
"177 200 CURVE",
"424 200 LINE",
"458 117 LINE SMOOTH",
"477 62 OFFCURVE",
"479 40 OFFCURVE",
"414 40 CURVE",
"400 40 OFFCURVE",
"390 42 OFFCURVE",
"389 19 CURVE SMOOTH",
"389 8 OFFCURVE",
"394 -3 OFFCURVE",
"407 -3 CURVE",
"450 -1 OFFCURVE",
"491 0 OFFCURVE",
"531 0 CURVE SMOOTH",
"571 0 OFFCURVE",
"598 -1 OFFCURVE",
"641 -3 CURVE",
"653 -3 OFFCURVE",
"659 8 OFFCURVE",
"659 19 CURVE SMOOTH",
"658 42 OFFCURVE",
"648 40 OFFCURVE",
"634 40 CURVE",
"591 41 OFFCURVE",
"577 82 OFFCURVE",
"563 117 CURVE SMOOTH",
"395 531 LINE",
"359 620 OFFCURVE",
"318 636 OFFCURVE",
"236 637 CURVE SMOOTH",
"214 637 OFFCURVE",
"196 640 OFFCURVE",
"196 617 CURVE SMOOTH",
"196 597 OFFCURVE",
"201 598 OFFCURVE",
"221 594 CURVE SMOOTH",
"254 588 OFFCURVE",
"287 578 OFFCURVE",
"268 531 CURVE",
"93 117 LINE",
"76 79 OFFCURVE",
"66 39 OFFCURVE",
"13 40 CURVE",
"-1 40 OFFCURVE",
"-11 42 OFFCURVE",
"-12 19 CURVE SMOOTH",
"-12 8 OFFCURVE",
"-7 -3 OFFCURVE",
"6 -3 CURVE"
);
},
{
closed = 1;
nodes = (
"302 500 LINE",
"305 500 LINE",
"406 243 LINE",
"196 243 LINE"
);
}
);
width = 653;
}
);
leftKerningGroup = A;
rightKerningGroup = A;
unicode = 0041;
},
{
glyphname = Aacute;
layers = (
{
background = {
paths = (
{
closed = 1;
nodes = (
"196 243 LINE",
"406 243 LINE",
"305 500 LINE",
"302 500 LINE"
);
},
{
closed = 1;
nodes = (
"236 637 LINE",
"267 637 LINE",
"314 628 LINE",
"351 606 LINE",
"381 564 LINE",
"395 531 LINE",
"563 117 LINE",
"568 104 LINE",
"580 77 LINE",
"596 55 LINE",
"618 40 LINE",
"634 40 LINE",
"645 40 LINE",
"658 36 LINE",
"659 19 LINE",
"659 11 LINE",
"650 -3 LINE",
"641 -3 LINE",
"609 -1 LINE",
"561 0 LINE",
"531 0 LINE",
"471 0 LINE",
"407 -3 LINE",
"397 -3 LINE",
"389 11 LINE",
"389 19 LINE",
"390 36 LINE",
"403 40 LINE",
"414 40 LINE",
"438 40 LINE",
"464 49 LINE",
"471 67 LINE",
"466 96 LINE",
"458 117 LINE",
"424 200 LINE",
"177 200 LINE",
"153 139 LINE",
"145 117 LINE",
"137 91 LINE",
"131 61 LINE",
"143 45 LINE",
"176 40 LINE",
"205 40 LINE",
"216 40 LINE",
"229 36 LINE",
"230 19 LINE",
"230 11 LINE",
"221 -3 LINE",
"212 -3 LINE",
"180 -1 LINE",
"133 0 LINE",
"103 0 LINE",
"88 0 LINE",
"66 0 LINE",
"45 -1 LINE",
"22 -2 LINE",
"6 -3 LINE",
"-4 -3 LINE",
"-12 11 LINE",
"-12 19 LINE",
"-11 36 LINE",
"2 40 LINE",
"13 40 LINE",
"33 40 LINE",
"58 53 LINE",
"75 75 LINE",
"87 103 LINE",
"93 117 LINE",
"268 531 LINE",
"275 549 LINE",
"271 571 LINE",
"256 585 LINE",
"233 592 LINE",
"221 594 LINE",
"206 597 LINE",
"196 602 LINE",
"196 617 LINE",
"196 634 LINE",
"219 637 LINE"
);
},
{
closed = 1;
nodes = (
"260 672 LINE",
"252 668 LINE",
"237 673 LINE",
"227 685 LINE",
"225 700 LINE",
"231 706 LINE",
"239 714 LINE",
"264 739 LINE",
"293 767 LINE",
"323 794 LINE",
"337 805 LINE",
"359 822 LINE",
"394 834 LINE",
"411 815 LINE",
"428 795 LINE",
"407 761 LINE",
"384 746 LINE",
"352 726 LINE",
"290 688 LINE"
);
}
);
};
components = (
{
name = A;
},
{
name = acutecomb.case;
transform = "{1, 0, 0, 1, 212, 0}";
}
);
layerId = UUID0;
width = 653;
}
);
leftKerningGroup = A;
rightKerningGroup = A;
unicode = 00C1;
},
{
glyphname = Acircumflex;
layers = (
{
background = {
paths = (
{
closed = 1;
nodes = (
"196 243 LINE",
"406 243 LINE",
"305 500 LINE",
"302 500 LINE"
);
},
{
closed = 1;
nodes = (
"236 637 LINE",
"267 637 LINE",
"314 628 LINE",
"351 606 LINE",
"381 564 LINE",
"395 531 LINE",
"563 117 LINE",
"568 104 LINE",
"580 77 LINE",
"596 55 LINE",
"618 40 LINE",
"634 40 LINE",
"645 40 LINE",
"658 36 LINE",
"659 19 LINE",
"659 11 LINE",
"650 -3 LINE",
"641 -3 LINE",
"609 -1 LINE",
"561 0 LINE",
"531 0 LINE",
"471 0 LINE",
"407 -3 LINE",
"397 -3 LINE",
"389 11 LINE",
"389 19 LINE",
"390 36 LINE",
"403 40 LINE",
"414 40 LINE",
"438 40 LINE",
"464 49 LINE",
"471 67 LINE",
"466 96 LINE",
"458 117 LINE",
"424 200 LINE",
"177 200 LINE",
"153 139 LINE",
"145 117 LINE",
"137 91 LINE",
"131 61 LINE",
"143 45 LINE",
"176 40 LINE",
"205 40 LINE",
"216 40 LINE",
"229 36 LINE",
"230 19 LINE",
"230 11 LINE",
"221 -3 LINE",
"212 -3 LINE",
"180 -1 LINE",
"133 0 LINE",
"103 0 LINE",
"88 0 LINE",
"66 0 LINE",
"45 -1 LINE",
"22 -2 LINE",
"6 -3 LINE",
"-4 -3 LINE",
"-12 11 LINE",
"-12 19 LINE",
"-11 36 LINE",
"2 40 LINE",
"13 40 LINE",
"33 40 LINE",
"58 53 LINE",
"75 75 LINE",
"87 103 LINE",
"93 117 LINE",
"268 531 LINE",
"275 549 LINE",
"271 571 LINE",
"256 585 LINE",
"233 592 LINE",
"221 594 LINE",
"206 597 LINE",
"196 602 LINE",
"196 617 LINE",
"196 634 LINE",
"219 637 LINE"
);
},
{
closed = 1;
nodes = (
"258 812 LINE",
"271 821 LINE",
"282 821 LINE",
"294 821 LINE",
"306 812 LINE",
"433 719 LINE",
"439 714 LINE",
"443 702 LINE",
"439 691 LINE",
"429 683 LINE",
"422 684 LINE",
"390 692 LINE",
"317 731 LINE",
"282 749 LINE",
"247 731 LINE",
"174 692 LINE",
"142 684 LINE",
"134 683 LINE",
"125 691 LINE",
"121 702 LINE",
"125 714 LINE",
"131 719 LINE"
);
}
);
};
components = (
{
name = A;
},
{
name = circumflexcomb.case;
transform = "{1, 0, 0, 1, 109, 0}";
}
);
layerId = UUID0;
width = 653;
}
);
leftKerningGroup = A;
rightKerningGroup = A;
unicode = 00C2;
},
{
glyphname = Adieresis;
layers = (
{
background = {
paths = (
{
closed = 1;
nodes = (
"196 243 LINE",
"406 243 LINE",
"305 500 LINE",
"302 500 LINE"
);
},
{
closed = 1;
nodes = (
"236 637 LINE",
"267 637 LINE",
"314 628 LINE",
"351 606 LINE",
"381 564 LINE",
"395 531 LINE",
"563 117 LINE",
"568 104 LINE",
"580 77 LINE",
"596 55 LINE",
"618 40 LINE",
"634 40 LINE",
"645 40 LINE",
"658 36 LINE",
"659 19 LINE",
"659 11 LINE",
"650 -3 LINE",
"641 -3 LINE",
"609 -1 LINE",
"561 0 LINE",
"531 0 LINE",
"471 0 LINE",
"407 -3 LINE",
"397 -3 LINE",
"389 11 LINE",
"389 19 LINE",
"390 36 LINE",
"403 40 LINE",
"414 40 LINE",
"438 40 LINE",
"464 49 LINE",
"471 67 LINE",
"466 96 LINE",
"458 117 LINE",
"424 200 LINE",
"177 200 LINE",
"153 139 LINE",
"145 117 LINE",
"137 91 LINE",
"131 61 LINE",
"143 45 LINE",
"176 40 LINE",
"205 40 LINE",
"216 40 LINE",
"229 36 LINE",
"230 19 LINE",
"230 11 LINE",
"221 -3 LINE",
"212 -3 LINE",
"180 -1 LINE",
"133 0 LINE",
"103 0 LINE",
"88 0 LINE",
"66 0 LINE",
"45 -1 LINE",
"22 -2 LINE",
"6 -3 LINE",
"-4 -3 LINE",
"-12 11 LINE",
"-12 19 LINE",
"-11 36 LINE",
"2 40 LINE",
"13 40 LINE",
"33 40 LINE",
"58 53 LINE",
"75 75 LINE",
"87 103 LINE",
"93 117 LINE",
"268 531 LINE",
"275 549 LINE",
"271 571 LINE",
"256 585 LINE",
"233 592 LINE",
"221 594 LINE",
"206 597 LINE",
"196 602 LINE",
"196 617 LINE",
"196 634 LINE",
"219 637 LINE"
);
},
{
closed = 1;
nodes = (
"190 820 LINE",
"216 820 LINE",
"250 786 LINE",
"250 760 LINE",
"250 736 LINE",
"215 700 LINE",
"189 700 LINE",
"163 700 LINE",
"127 736 LINE",
"127 760 LINE",
"127 786 LINE",
"164 820 LINE"
);
},
{
closed = 1;
nodes = (
"382 820 LINE",
"408 820 LINE",
"442 786 LINE",
"442 760 LINE",
"442 736 LINE",
"407 700 LINE",
"381 700 LINE",
"355 700 LINE",
"319 736 LINE",
"319 760 LINE",
"319 786 LINE",
"356 820 LINE"
);
}
);
};
components = (
{
name = A;
},
{
name = dieresiscomb.case;
transform = "{1, 0, 0, 1, 103, 0}";
}
);
layerId = UUID0;
width = 653;
}
);
leftKerningGroup = A;
rightKerningGroup = A;
unicode = 00C4;
},
{
glyphname = Agrave;
layers = (
{
background = {
paths = (
{
closed = 1;
nodes = (
"196 243 LINE",
"406 243 LINE",
"305 500 LINE",
"302 500 LINE"
);
},
{
closed = 1;
nodes = (
"236 637 LINE",
"267 637 LINE",
"314 628 LINE",
"351 606 LINE",
"381 564 LINE",
"395 531 LINE",
"563 117 LINE",
"568 104 LINE",
"580 77 LINE",
"596 55 LINE",
"618 40 LINE",
"634 40 LINE",
"645 40 LINE",
"658 36 LINE",
"659 19 LINE",
"659 11 LINE",
"650 -3 LINE",
"641 -3 LINE",
"609 -1 LINE",
"561 0 LINE",
"531 0 LINE",
"471 0 LINE",
"407 -3 LINE",
"397 -3 LINE",
"389 11 LINE",
"389 19 LINE",
"390 36 LINE",
"403 40 LINE",
"414 40 LINE",
"438 40 LINE",
"464 49 LINE",
"471 67 LINE",
"466 96 LINE",
"458 117 LINE",
"424 200 LINE",
"177 200 LINE",
"153 139 LINE",
"145 117 LINE",
"137 91 LINE",
"131 61 LINE",
"143 45 LINE",
"176 40 LINE",
"205 40 LINE",
"216 40 LINE",
"229 36 LINE",
"230 19 LINE",
"230 11 LINE",
"221 -3 LINE",
"212 -3 LINE",
"180 -1 LINE",
"133 0 LINE",
"103 0 LINE",
"88 0 LINE",
"66 0 LINE",
"45 -1 LINE",
"22 -2 LINE",
"6 -3 LINE",
"-4 -3 LINE",
"-12 11 LINE",
"-12 19 LINE",
"-11 36 LINE",
"2 40 LINE",
"13 40 LINE",
"33 40 LINE",
"58 53 LINE",
"75 75 LINE",
"87 103 LINE",
"93 117 LINE",
"268 531 LINE",
"275 549 LINE",
"271 571 LINE",
"256 585 LINE",
"233 592 LINE",
"221 594 LINE",
"206 597 LINE",
"196 602 LINE",
"196 617 LINE",
"196 634 LINE",
"219 637 LINE"
);
},
{
closed = 1;
nodes = (
"282 672 LINE",
"252 688 LINE",
"190 726 LINE",
"158 746 LINE",
"135 761 LINE",
"114 795 LINE",
"131 815 LINE",
"148 834 LINE",
"183 822 LINE",
"205 805 LINE",
"219 794 LINE",
"249 767 LINE",
"278 739 LINE",
"303 714 LINE",
"311 706 LINE",
"317 700 LINE",
"315 685 LINE",
"305 673 LINE",
"290 668 LINE"
);
}
);
};
components = (
{
name = A;
},
{
name = gravecomb.case;
transform = "{1, 0, 0, 1, 89, 0}";
}
);
layerId = UUID0;
width = 653;
}
);
leftKerningGroup = A;
rightKerningGroup = A;
unicode = 00C0;
},
{
glyphname = Aring;
layers = (
{
background = {
paths = (
{
closed = 1;
nodes = (
"196 243 LINE",
"406 243 LINE",
"305 500 LINE",
"302 500 LINE"
);
},
{
closed = 1;
nodes = (
"236 637 LINE",
"267 637 LINE",
"314 628 LINE",
"351 606 LINE",
"381 564 LINE",
"395 531 LINE",
"563 117 LINE",
"568 104 LINE",
"580 77 LINE",
"596 55 LINE",
"618 40 LINE",
"634 40 LINE",
"645 40 LINE",
"658 36 LINE",
"659 19 LINE",
"659 11 LINE",
"650 -3 LINE",
"641 -3 LINE",
"609 -1 LINE",
"561 0 LINE",
"531 0 LINE",
"471 0 LINE",
"407 -3 LINE",
"397 -3 LINE",
"389 11 LINE",
"389 19 LINE",
"390 36 LINE",
"403 40 LINE",
"414 40 LINE",
"438 40 LINE",
"464 49 LINE",
"471 67 LINE",
"466 96 LINE",
"458 117 LINE",
"424 200 LINE",
"177 200 LINE",
"153 139 LINE",
"145 117 LINE",
"137 91 LINE",
"131 61 LINE",
"143 45 LINE",
"176 40 LINE",
"205 40 LINE",
"216 40 LINE",
"229 36 LINE",
"230 19 LINE",
"230 11 LINE",
"221 -3 LINE",
"212 -3 LINE",
"180 -1 LINE",
"133 0 LINE",
"103 0 LINE",
"88 0 LINE",
"66 0 LINE",
"45 -1 LINE",
"22 -2 LINE",
"6 -3 LINE",
"-4 -3 LINE",
"-12 11 LINE",
"-12 19 LINE",
"-11 36 LINE",
"2 40 LINE",
"13 40 LINE",
"33 40 LINE",
"58 53 LINE",
"75 75 LINE",
"87 103 LINE",
"93 117 LINE",
"268 531 LINE",
"275 549 LINE",
"271 571 LINE",
"256 585 LINE",
"233 592 LINE",
"221 594 LINE",
"206 597 LINE",
"196 602 LINE",
"196 617 LINE",
"196 634 LINE",
"219 637 LINE"
);
},
{
closed = 1;
nodes = (
"392 761 LINE",
"392 717 LINE",
"334 666 LINE",
"284 666 LINE",
"233 666 LINE",
"174 718 LINE",
"174 761 LINE",
"174 859 LINE",
"284 859 LINE",
"337 859 LINE",
"392 807 LINE"
);
},
{
closed = 1;
nodes = (
"327 761 LINE",
"327 790 LINE",
"309 824 LINE",
"284 824 LINE",
"261 824 LINE",
"239 788 LINE",
"239 761 LINE",
"239 703 LINE",
"284 703 LINE",
"310 703 LINE",
"327 735 LINE"
);
}
);
};
components = (
{
name = A;
},
{
name = ringcomb.case;
transform = "{1, 0, 0, 1, 138, 0}";
}
);
layerId = UUID0;
width = 653;
}
);
leftKerningGroup = A;
rightKerningGroup = A;
unicode = 00C5;
},
{
glyphname = Atilde;
layers = (
{
background = {
paths = (
{
closed = 1;
nodes = (
"196 243 LINE",
"406 243 LINE",
"305 500 LINE",
"302 500 LINE"
);
},
{
closed = 1;
nodes = (
"236 637 LINE",
"267 637 LINE",
"314 628 LINE",
"351 606 LINE",
"381 564 LINE",
"395 531 LINE",
"563 117 LINE",
"568 104 LINE",
"580 77 LINE",
"596 55 LINE",
"618 40 LINE",
"634 40 LINE",
"645 40 LINE",
"658 36 LINE",
"659 19 LINE",
"659 11 LINE",
"650 -3 LINE",
"641 -3 LINE",
"609 -1 LINE",
"561 0 LINE",
"531 0 LINE",
"471 0 LINE",
"407 -3 LINE",
"397 -3 LINE",
"389 11 LINE",
"389 19 LINE",
"390 36 LINE",
"403 40 LINE",
"414 40 LINE",
"438 40 LINE",
"464 49 LINE",
"471 67 LINE",
"466 96 LINE",
"458 117 LINE",
"424 200 LINE",
"177 200 LINE",
"153 139 LINE",
"145 117 LINE",
"137 91 LINE",
"131 61 LINE",
"143 45 LINE",
"176 40 LINE",
"205 40 LINE",
"216 40 LINE",
"229 36 LINE",
"230 19 LINE",
"230 11 LINE",
"221 -3 LINE",
"212 -3 LINE",
"180 -1 LINE",
"133 0 LINE",
"103 0 LINE",
"88 0 LINE",
"66 0 LINE",
"45 -1 LINE",
"22 -2 LINE",
"6 -3 LINE",
"-4 -3 LINE",
"-12 11 LINE",
"-12 19 LINE",
"-11 36 LINE",
"2 40 LINE",
"13 40 LINE",
"33 40 LINE",
"58 53 LINE",
"75 75 LINE",
"87 103 LINE",
"93 117 LINE",
"268 531 LINE",
"275 549 LINE",
"271 571 LINE",
"256 585 LINE",
"233 592 LINE",
"221 594 LINE",
"206 597 LINE",
"196 602 LINE",
"196 617 LINE",
"196 634 LINE",
"219 637 LINE"
);
},
{
closed = 1;
nodes = (
"456 779 LINE",
"449 763 LINE",
"429 732 LINE",
"402 707 LINE",
"368 692 LINE",
"348 692 LINE",
"327 692 LINE",
"289 711 LINE",
"256 732 LINE",
"226 750 LINE",
"213 750 LINE",
"201 750 LINE",
"166 731 LINE",
"147 708 LINE",
"142 702 LINE",
"128 700 LINE",
"117 704 LINE",
"111 717 LINE",
"114 726 LINE",
"120 742 LINE",
"141 775 LINE",
"169 801 LINE",
"203 817 LINE",
"224 817 LINE",
"245 817 LINE",
"283 798 LINE",
"316 777 LINE",
"346 759 LINE",
"359 759 LINE",
"371 759 LINE",
"407 779 LINE",
"425 801 LINE",
"431 808 LINE",
"445 810 LINE",
"456 803 LINE",
"460 788 LINE"
);
}
);
};
components = (
{
name = A;
},
{
name = tildecomb.case;
transform = "{1, 0, 0, 1, 87, 0}";
}
);
layerId = UUID0;
width = 653;
}
);
leftKerningGroup = A;
rightKerningGroup = A;
unicode = 00C3;
},
{
glyphname = AE;
layers = (
{
background = {
paths = (
{
closed = 1;
nodes = (
"418 591 LINE",
"403 592 LINE",
"391 579 LINE",
"383 565 LINE",
"245 291 LINE",
"441 291 LINE",
"441 591 LINE"
);
},
{
closed = 1;
nodes = (
"801 631 LINE",
"812 631 LINE",
"827 621 LINE",
"827 607 LINE",
"830 467 LINE",
"830 457 LINE",
"811 447 LINE",
"803 447 LINE",
"792 447 LINE",
"774 456 LINE",
"772 465 LINE",
"767 499 LINE",
"754 546 LINE",
"733 576 LINE",
"700 590 LINE",
"674 591 LINE",
"540 591 LINE",
"540 337 LINE",
"721 337 LINE",
"729 336 LINE",
"736 322 LINE",
"736 314 LINE",
"736 306 LINE",
"729 294 LINE",
"721 294 LINE",
"540 294 LINE",
"540 105 LINE",
"541 95 LINE",
"543 72 LINE",
"556 52 LINE",
"584 39 LINE",
"610 40 LINE",
"702 40 LINE",
"728 41 LINE",
"761 52 LINE",
"783 79 LINE",
"799 123 LINE",
"809 156 LINE",
"813 166 LINE",
"832 172 LINE",
"843 170 LINE",
"851 168 LINE",
"868 157 LINE",
"867 147 LINE",
"847 21 LINE",
"844 7 LINE",
"831 0 LINE",
"818 0 LINE",
"488 0 LINE",
"458 0 LINE",
"401 -1 LINE",
"368 -3 LINE",
"359 -3 LINE",
"351 11 LINE",
"351 19 LINE",
"352 36 LINE",
"365 40 LINE",
"376 40 LINE",
"400 40 LINE",
"426 53 LINE",
"438 75 LINE",
"441 103 LINE",
"441 117 LINE",
"441 248 LINE",
"224 248 LINE",
"157 117 LINE",
"144 92 LINE",
"135 62 LINE",
"146 45 LINE",
"178 40 LINE",
"207 40 LINE",
"218 40 LINE",
"231 36 LINE",
"232 19 LINE",
"232 11 LINE",
"223 -3 LINE",
"214 -3 LINE",
"182 -1 LINE",
"135 0 LINE",
"105 0 LINE",
"90 0 LINE",
"68 0 LINE",
"47 -1 LINE",
"24 -2 LINE",
"8 -3 LINE",
"-2 -3 LINE",
"-10 11 LINE",
"-10 19 LINE",
"-9 36 LINE",
"4 41 LINE",
"15 40 LINE",
"30 39 LINE",
"56 52 LINE",
"79 74 LINE",
"98 102 LINE",
"105 117 LINE",
"318 531 LINE",
"325 549 LINE",
"321 569 LINE",
"306 581 LINE",
"283 586 LINE",
"271 588 LINE",
"256 591 LINE",
"245 596 LINE",
"246 611 LINE",
"247 628 LINE",
"269 631 LINE",
"286 631 LINE"
);
}
);
};
layerId = UUID0;
paths = (
{
closed = 1;
nodes = (
"51 -1 OFFCURVE",
"65 0 OFFCURVE",
"105 0 CURVE SMOOTH",
"145 0 OFFCURVE",
"171 -1 OFFCURVE",
"214 -3 CURVE SMOOTH",
"226 -3 OFFCURVE",
"232 8 OFFCURVE",
"232 19 CURVE SMOOTH",
"231 42 OFFCURVE",
"221 40 OFFCURVE",
"207 40 CURVE SMOOTH",
"130 40 OFFCURVE",
"123 50 OFFCURVE",
"157 117 CURVE",
"224 248 LINE",
"441 248 LINE",
"441 117 LINE",
"440 79 OFFCURVE",
"439 40 OFFCURVE",
"376 40 CURVE SMOOTH",
"362 40 OFFCURVE",
"352 42 OFFCURVE",
"351 19 CURVE SMOOTH",
"351 8 OFFCURVE",
"356 -3 OFFCURVE",
"368 -3 CURVE SMOOTH",
"412 -1 OFFCURVE",
"448 0 OFFCURVE",
"488 0 CURVE SMOOTH",
"818 0 LINE SMOOTH",
"835 0 OFFCURVE",
"843 2 OFFCURVE",
"847 21 CURVE",
"867 147 LINE",
"868 160 OFFCURVE",
"854 168 OFFCURVE",
"843 170 CURVE SMOOTH",
"828 172 OFFCURVE",
"814 169 OFFCURVE",
"809 156 CURVE",
"783 68 OFFCURVE",
"772 42 OFFCURVE",
"702 40 CURVE",
"610 40 LINE",
"541 38 OFFCURVE",
"542 79 OFFCURVE",
"540 105 CURVE",
"540 294 LINE",
"721 294 LINE SMOOTH",
"731 294 OFFCURVE",
"736 304 OFFCURVE",
"736 314 CURVE SMOOTH",
"736 325 OFFCURVE",
"731 336 OFFCURVE",
"721 337 CURVE",
"540 337 LINE",
"540 591 LINE",
"674 591 LINE",
"743 589 OFFCURVE",
"758 555 OFFCURVE",
"772 465 CURVE SMOOTH",
"774 453 OFFCURVE",
"788 447 OFFCURVE",
"803 447 CURVE SMOOTH",
"814 447 OFFCURVE",
"830 454 OFFCURVE",
"830 467 CURVE SMOOTH",
"827 607 LINE SMOOTH",
"827 626 OFFCURVE",
"816 631 OFFCURVE",
"801 631 CURVE SMOOTH",
"286 631 LINE",
"264 631 OFFCURVE",
"247 634 OFFCURVE",
"246 611 CURVE SMOOTH",
"245 591 OFFCURVE",
"251 592 OFFCURVE",
"271 588 CURVE SMOOTH",
"304 582 OFFCURVE",
"337 578 OFFCURVE",
"318 531 CURVE",
"105 117 LINE",
"86 78 OFFCURVE",
"54 37 OFFCURVE",
"15 40 CURVE SMOOTH",
"1 41 OFFCURVE",
"-9 42 OFFCURVE",
"-10 19 CURVE SMOOTH",
"-10 8 OFFCURVE",
"-5 -3 OFFCURVE",
"8 -3 CURVE SMOOTH"
);
},
{
closed = 1;
nodes = (
"383 565 LINE",
"393 584 OFFCURVE",
"398 592 OFFCURVE",
"418 591 CURVE",
"441 591 LINE",
"441 291 LINE",
"245 291 LINE"
);
}
);
width = 902;
}
);
leftKerningGroup = A;
rightKerningGroup = E;
unicode = 00C6;
},
{
glyphname = B;
layers = (
{
anchors = (
{
name = bottom;
position = "{311, 0}";
},
{
name = top;
position = "{311, 631}";
}
);
background = {
paths = (
{
closed = 1;
nodes = (
"303 39 LINE",
"336 39 LINE",
"396 55 LINE",
"440 90 LINE",
"466 148 LINE",
"466 192 LINE",
"464 216 LINE",
"442 260 LINE",
"397 295 LINE",
"325 316 LINE",
"272 316 LINE",
"231 316 LINE",
"231 117 LINE",
"231 92 LINE",
"238 61 LINE",
"254 45 LINE",
"282 39 LINE"
);
},
{
closed = 1;
nodes = (
"231 594 LINE",
"231 356 LINE",
"273 356 LINE",
"293 356 LINE",
"344 360 LINE",
"388 382 LINE",
"418 430 LINE",
"418 475 LINE",
"418 528 LINE",
"367 594 LINE",
"301 594 LINE"
);
},
{
closed = 1;
nodes = (
"179 0 LINE",
"149 0 LINE",
"92 -1 LINE",
"60 -3 LINE",
"50 -3 LINE",
"42 11 LINE",
"42 19 LINE",
"43 36 LINE",
"56 40 LINE",
"67 40 LINE",
"91 40 LINE",
"117 53 LINE",
"129 75 LINE",
"132 103 LINE",
"132 117 LINE",
"132 514 LINE",
"132 528 LINE",
"129 556 LINE",
"117 578 LINE",
"91 591 LINE",
"67 591 LINE",
"56 591 LINE",
"43 595 LINE",
"42 612 LINE",
"42 620 LINE",
"50 634 LINE",
"60 634 LINE",
"92 632 LINE",
"148 631 LINE",
"178 631 LINE",
"319 631 LINE",
"377 631 LINE",
"443 614 LINE",
"469 598 LINE",
"495 581 LINE",
"525 522 LINE",
"525 487 LINE",
"525 453 LINE",
"500 402 LINE",
"460 366 LINE",
"412 344 LINE",
"390 339 LINE",
"390 336 LINE",
"430 336 LINE",
"497 313 LINE",
"545 273 LINE",
"573 221 LINE",
"574 192 LINE",
"575 135 LINE",
"523 61 LINE",
"442 17 LINE",
"344 -1 LINE",
"299 -1 LINE"
);
}
);
};
layerId = UUID0;
paths = (
{
closed = 1;
nodes = (
"103 -1 OFFCURVE",
"139 0 OFFCURVE",
"179 0 CURVE SMOOTH",
"299 -1 LINE",
"418 -1 OFFCURVE",
"578 41 OFFCURVE",
"574 192 CURVE SMOOTH",
"572 269 OFFCURVE",
"496 337 OFFCURVE",
"390 336 CURVE",
"390 339 LINE",
"450 353 OFFCURVE",
"525 396 OFFCURVE",
"525 487 CURVE SMOOTH",
"525 533 OFFCURVE",
"504 575 OFFCURVE",
"469 598 CURVE SMOOTH",
"435 619 OFFCURVE",
"396 631 OFFCURVE",
"319 631 CURVE SMOOTH",
"178 631 LINE SMOOTH",
"138 631 OFFCURVE",
"103 632 OFFCURVE",
"60 634 CURVE SMOOTH",
"47 634 OFFCURVE",
"42 623 OFFCURVE",
"42 612 CURVE SMOOTH",
"43 589 OFFCURVE",
"53 591 OFFCURVE",
"67 591 CURVE SMOOTH",
"130 591 OFFCURVE",
"131 552 OFFCURVE",
"132 514 CURVE",
"132 117 LINE",
"131 79 OFFCURVE",
"130 40 OFFCURVE",
"67 40 CURVE SMOOTH",
"53 40 OFFCURVE",
"43 42 OFFCURVE",
"42 19 CURVE SMOOTH",
"42 8 OFFCURVE",
"47 -3 OFFCURVE",
"60 -3 CURVE SMOOTH"
);
},
{
closed = 1;
nodes = (
"247 39 OFFCURVE",
"231 50 OFFCURVE",
"231 117 CURVE SMOOTH",
"231 316 LINE",
"272 316 LINE SMOOTH",
"414 316 OFFCURVE",
"460 255 OFFCURVE",
"466 192 CURVE",
"466 76 OFFCURVE",
"392 40 OFFCURVE",
"303 39 CURVE SMOOTH"
);
},
{
closed = 1;
nodes = (
"231 594 LINE",
"301 594 LINE",
"389 594 OFFCURVE",
"418 545 OFFCURVE",
"418 475 CURVE SMOOTH",
"418 356 OFFCURVE",
"327 356 OFFCURVE",
"273 356 CURVE SMOOTH",
"231 356 LINE"
);
}
);
width = 621;
}
);
leftKerningGroup = I;
rightKerningGroup = B;
unicode = 0042;
},
{
glyphname = C;
layers = (
{
anchors = (
{
name = bottom;
position = "{364, 0}";
},
{
name = top;
position = "{376, 631}";
}
);
background = {
paths = (
{
closed = 1;
nodes = (
"596 510 LINE",
"596 489 LINE",
"583 450 LINE",
"557 420 LINE",
"518 402 LINE",
"494 402 LINE",
"479 402 LINE",
"458 411 LINE",
"445 423 LINE",
"440 435 LINE",
"440 438 LINE",
"440 440 LINE",
"456 449 LINE",
"474 466 LINE",
"490 493 LINE",
"490 513 LINE",
"490 558 LINE",
"430 611 LINE",
"375 611 LINE",
"330 611 LINE",
"253 572 LINE",
"197 497 LINE",
"166 388 LINE",
"166 317 LINE",
"166 257 LINE",
"199 152 LINE",
"259 74 LINE",
"343 29 LINE",
"394 29 LINE",
"448 29 LINE",
"524 73 LINE",
"556 124 LINE",
"565 141 LINE",
"588 127 LINE",
"597 121 LINE",
"607 104 LINE",
"600 95 LINE",
"571 59 LINE",
"520 14 LINE",
"465 -11 LINE",
"400 -20 LINE",
"358 -20 LINE",
"295 -20 LINE",
"183 25 LINE",
"98 111 LINE",
"49 234 LINE",
"49 311 LINE",
"49 387 LINE",
"95 513 LINE",
"180 602 LINE",
"301 651 LINE",
"376 651 LINE",
"412 651 LINE",
"490 637 LINE",
"555 604 LINE",
"596 550 LINE"
);
}
);
};
layerId = UUID0;
paths = (
{
closed = 1;
nodes = (
"470 -20 OFFCURVE",
"524 -1 OFFCURVE",
"600 95 CURVE SMOOTH",
"609 107 OFFCURVE",
"600 119 OFFCURVE",
"588 127 CURVE SMOOTH",
"573 136 OFFCURVE",
"562 135 OFFCURVE",
"556 124 CURVE",
"514 57 OFFCURVE",
"466 29 OFFCURVE",
"394 29 CURVE SMOOTH",
"257 29 OFFCURVE",
"166 157 OFFCURVE",
"166 317 CURVE SMOOTH",
"166 506 OFFCURVE",
"254 611 OFFCURVE",
"375 611 CURVE SMOOTH",
"448 611 OFFCURVE",
"490 573 OFFCURVE",
"490 513 CURVE SMOOTH",
"490 460 OFFCURVE",
"440 444 OFFCURVE",
"440 438 CURVE SMOOTH",
"439 429 OFFCURVE",
"454 402 OFFCURVE",
"494 402 CURVE SMOOTH",
"559 402 OFFCURVE",
"597 453 OFFCURVE",
"596 510 CURVE",
"596 616 OFFCURVE",
"473 651 OFFCURVE",
"376 651 CURVE SMOOTH",
"176 651 OFFCURVE",
"49 515 OFFCURVE",
"49 311 CURVE SMOOTH",
"49 105 OFFCURVE",
"190 -20 OFFCURVE",
"358 -20 CURVE SMOOTH"
);
}
);
width = 639;
}
);
leftKerningGroup = O;
rightKerningGroup = C;
unicode = 0043;
},
{
glyphname = Ccedilla;
layers = (
{
background = {
paths = (
{
closed = 1;
nodes = (
"596 510 LINE",
"596 489 LINE",
"583 450 LINE",
"557 420 LINE",
"519 402 LINE",
"494 402 LINE",
"479 402 LINE",
"458 411 LINE",
"445 423 LINE",
"440 435 LINE",
"440 438 LINE",
"440 440 LINE",
"456 449 LINE",
"474 466 LINE",
"490 493 LINE",
"490 513 LINE",
"490 558 LINE",
"430 611 LINE",
"375 611 LINE",
"330 611 LINE",
"253 572 LINE",
"197 497 LINE",
"166 387 LINE",
"166 317 LINE",
"166 257 LINE",
"199 152 LINE",
"259 74 LINE",
"343 29 LINE",
"394 29 LINE",
"448 29 LINE",
"524 73 LINE",
"556 124 LINE",
"560 133 LINE",
"570 133 LINE",
"579 133 LINE",
"604 116 LINE",
"604 105 LINE",
"604 101 LINE",
"600 95 LINE",
"572 60 LINE",
"524 17 LINE",
"474 -8 LINE",
"415 -18 LINE",
"375 -20 LINE",
"375 -45 LINE",
"392 -45 LINE",
"427 -52 LINE",
"455 -65 LINE",
"472 -92 LINE",
"472 -111 LINE",
"472 -137 LINE",
"445 -174 LINE",
"397 -197 LINE",
"329 -208 LINE",
"288 -208 LINE",
"278 -208 LINE",
"268 -193 LINE",
"268 -184 LINE",
"268 -170 LINE",
"280 -162 LINE",
"288 -162 LINE",
"309 -162 LINE",
"348 -161 LINE",
"380 -154 LINE",
"399 -140 LINE",
"399 -126 LINE",
"399 -115 LINE",
"376 -107 LINE",
"349 -103 LINE",
"326 -93 LINE",
"326 -77 LINE",
"326 -18 LINE",
"267 -12 LINE",
"166 38 LINE",
"92 122 LINE",
"49 239 LINE",
"49 311 LINE",
"49 387 LINE",
"95 513 LINE",
"180 602 LINE",
"301 651 LINE",
"376 651 LINE",
"412 651 LINE",
"490 637 LINE",
"555 604 LINE",
"596 550 LINE"
);
}
);
};
components = (
{
name = C;
},
{
name = cedillacomb;
transform = "{1, 0, 0, 1, 230, 0}";
}
);
layerId = UUID0;
width = 639;
}
);
leftKerningGroup = O;
rightKerningGroup = C;
unicode = 00C7;
},
{
glyphname = D;
layers = (
{
anchors = (
{
name = bottom;
position = "{364, 0}";
},
{
name = center;
position = "{192, 316}";
},
{
name = top;
position = "{364, 631}";
}
);
background = {
paths = (
{
closed = 1;
nodes = (
"335 631 LINE",
"407 631 LINE",
"532 588 LINE",
"625 506 LINE",
"679 387 LINE",
"679 312 LINE",
"679 232 LINE",
"616 114 LINE",
"514 37 LINE",
"384 0 LINE",
"317 0 LINE",
"179 0 LINE",
"149 0 LINE",
"93 -1 LINE",
"60 -3 LINE",
"51 -3 LINE",
"43 11 LINE",
"43 19 LINE",
"44 36 LINE",
"57 40 LINE",
"68 40 LINE",
"92 40 LINE",
"118 53 LINE",
"130 75 LINE",
"133 103 LINE",
"133 117 LINE",
"133 514 LINE",
"133 528 LINE",
"130 556 LINE",
"118 578 LINE",
"92 591 LINE",
"68 591 LINE",
"57 591 LINE",
"44 595 LINE",
"43 612 LINE",
"43 620 LINE",
"51 634 LINE",
"60 634 LINE",
"93 632 LINE",
"149 631 LINE",
"179 631 LINE"
);
},
{
closed = 1;
nodes = (
"558 312 LINE",
"558 373 LINE",
"525 477 LINE",
"462 553 LINE",
"369 595 LINE",
"310 595 LINE",
"302 595 LINE",
"232 594 LINE",
"232 105 LINE",
"232 64 LINE",
"281 37 LINE",
"332 37 LINE",
"393 37 LINE",
"479 77 LINE",
"533 149 LINE",
"558 250 LINE"
);
}
);
};
layerId = UUID0;
paths = (
{
closed = 1;
nodes = (
"104 -1 OFFCURVE",
"139 0 OFFCURVE",
"179 0 CURVE SMOOTH",
"317 0 LINE SMOOTH",
"496 0 OFFCURVE",
"679 98 OFFCURVE",
"679 312 CURVE SMOOTH",
"679 513 OFFCURVE",
"526 631 OFFCURVE",
"335 631 CURVE SMOOTH",
"179 631 LINE",
"139 631 OFFCURVE",
"104 632 OFFCURVE",
"60 634 CURVE SMOOTH",
"48 634 OFFCURVE",
"43 623 OFFCURVE",
"43 612 CURVE SMOOTH",
"44 589 OFFCURVE",
"54 591 OFFCURVE",
"68 591 CURVE SMOOTH",
"131 591 OFFCURVE",
"132 552 OFFCURVE",
"133 514 CURVE",
"133 117 LINE",
"132 79 OFFCURVE",
"131 40 OFFCURVE",
"68 40 CURVE SMOOTH",
"54 40 OFFCURVE",
"44 42 OFFCURVE",
"43 19 CURVE SMOOTH",
"43 8 OFFCURVE",
"48 -3 OFFCURVE",
"60 -3 CURVE SMOOTH"
);
},
{
closed = 1;
nodes = (
"264 37 OFFCURVE",
"232 51 OFFCURVE",
"232 105 CURVE SMOOTH",
"232 594 LINE",
"245 594 OFFCURVE",
"288 595 OFFCURVE",
"310 595 CURVE SMOOTH",
"468 595 OFFCURVE",
"558 476 OFFCURVE",
"558 312 CURVE SMOOTH",
"558 147 OFFCURVE",
"494 37 OFFCURVE",
"332 37 CURVE SMOOTH"
);
}
);
width = 728;
}
);
leftKerningGroup = I;
rightKerningGroup = D;
unicode = 0044;
},
{
glyphname = Eth;
layers = (
{
background = {
paths = (
{
closed = 1;
nodes = (
"78 311 LINE",
"67 311 LINE",
"59 325 LINE",
"59 332 LINE",
"59 340 LINE",
"67 354 LINE",
"78 354 LINE",
"133 354 LINE",
"133 514 LINE",
"133 528 LINE",
"130 556 LINE",
"118 578 LINE",
"92 591 LINE",
"68 591 LINE",
"57 591 LINE",
"44 595 LINE",
"43 612 LINE",
"43 620 LINE",
"51 634 LINE",
"60 634 LINE",
"93 632 LINE",
"149 631 LINE",
"179 631 LINE",
"335 631 LINE",
"407 631 LINE",
"532 588 LINE",
"625 506 LINE",
"679 387 LINE",
"679 312 LINE",
"679 232 LINE",
"616 114 LINE",
"514 37 LINE",
"384 0 LINE",
"317 0 LINE",
"179 0 LINE",
"149 0 LINE",
"93 -1 LINE",
"60 -3 LINE",
"51 -3 LINE",
"43 11 LINE",
"43 19 LINE",
"44 36 LINE",
"57 40 LINE",
"68 40 LINE",
"92 40 LINE",
"118 53 LINE",
"130 75 LINE",
"133 103 LINE",
"133 117 LINE",
"133 311 LINE"
);
},
{
closed = 1;
nodes = (
"558 312 LINE",
"558 373 LINE",
"525 477 LINE",
"462 553 LINE",
"369 595 LINE",
"310 595 LINE",
"302 595 LINE",
"279 595 LINE",
"256 594 LINE",
"237 594 LINE",
"232 594 LINE",
"232 354 LINE",
"347 354 LINE",
"358 354 LINE",
"366 340 LINE",
"366 332 LINE",
"366 325 LINE",
"358 311 LINE",
"347 311 LINE",
"232 311 LINE",
"232 105 LINE",
"232 64 LINE",
"281 37 LINE",
"332 37 LINE",
"393 37 LINE",
"479 77 LINE",
"533 149 LINE",
"558 250 LINE"
);
}
);
};
layerId = UUID0;
paths = (
{
closed = 1;
nodes = (
"104 -1 OFFCURVE",
"139 0 OFFCURVE",
"179 0 CURVE SMOOTH",
"317 0 LINE SMOOTH",
"496 0 OFFCURVE",
"679 98 OFFCURVE",
"679 312 CURVE SMOOTH",
"679 513 OFFCURVE",
"526 631 OFFCURVE",
"335 631 CURVE SMOOTH",
"179 631 LINE SMOOTH",
"139 631 OFFCURVE",
"104 632 OFFCURVE",
"60 634 CURVE SMOOTH",
"48 634 OFFCURVE",
"43 623 OFFCURVE",
"43 612 CURVE SMOOTH",
"44 589 OFFCURVE",
"54 591 OFFCURVE",
"68 591 CURVE SMOOTH",
"131 591 OFFCURVE",
"132 552 OFFCURVE",
"133 514 CURVE",
"133 354 LINE",
"78 354 LINE SMOOTH",
"63 354 OFFCURVE",
"59 342 OFFCURVE",
"59 332 CURVE SMOOTH",
"59 323 OFFCURVE",
"63 311 OFFCURVE",
"78 311 CURVE",
"133 311 LINE",
"133 117 LINE",
"132 79 OFFCURVE",
"131 40 OFFCURVE",
"68 40 CURVE SMOOTH",
"54 40 OFFCURVE",
"44 42 OFFCURVE",
"43 19 CURVE SMOOTH",
"43 8 OFFCURVE",
"48 -3 OFFCURVE",
"60 -3 CURVE SMOOTH"
);
},
{
closed = 1;
nodes = (
"264 37 OFFCURVE",
"232 51 OFFCURVE",
"232 105 CURVE SMOOTH",
"232 311 LINE",
"347 311 LINE SMOOTH",
"362 311 OFFCURVE",
"366 323 OFFCURVE",
"366 332 CURVE SMOOTH",
"366 342 OFFCURVE",
"362 354 OFFCURVE",
"347 354 CURVE SMOOTH",
"232 354 LINE",
"232 594 LINE",
"245 594 OFFCURVE",
"288 595 OFFCURVE",
"310 595 CURVE SMOOTH",
"468 595 OFFCURVE",
"558 476 OFFCURVE",
"558 312 CURVE SMOOTH",
"558 147 OFFCURVE",
"494 37 OFFCURVE",
"332 37 CURVE SMOOTH"
);
}
);
width = 728;
}
);
leftKerningGroup = I;
rightKerningGroup = D;
unicode = 00D0;
},
{
glyphname = E;
layers = (
{
anchors = (
{
name = bottom;
position = "{297, 0}";
},
{
name = ogonek;
position = "{535, 10}";
},
{
name = top;
position = "{318, 631}";
},
{
name = topleft;
position = "{20, 631}";
}
);
background = {
paths = (
{
closed = 1;
nodes = (
"493 631 LINE",
"504 631 LINE",
"519 621 LINE",
"519 607 LINE",
"522 467 LINE",
"522 457 LINE",
"503 447 LINE",
"495 447 LINE",
"484 447 LINE",
"466 456 LINE",
"464 465 LINE",
"459 499 LINE",
"446 546 LINE",
"425 576 LINE",
"392 590 LINE",
"366 591 LINE",
"232 591 LINE",
"232 337 LINE",
"413 337 LINE",
"421 336 LINE",
"428 322 LINE",
"428 314 LINE",
"428 306 LINE",
"421 294 LINE",
"413 294 LINE",
"232 294 LINE",
"232 105 LINE",
"233 95 LINE",
"235 72 LINE",
"248 52 LINE",
"276 39 LINE",
"302 40 LINE",
"394 40 LINE",
"420 41 LINE",
"453 52 LINE",
"475 79 LINE",
"491 123 LINE",
"501 156 LINE",
"505 166 LINE",
"524 172 LINE",
"535 170 LINE",
"543 168 LINE",
"560 157 LINE",
"559 147 LINE",
"539 21 LINE",
"536 7 LINE",
"523 0 LINE",
"510 0 LINE",
"180 0 LINE",
"150 0 LINE",
"93 -1 LINE",
"60 -3 LINE",
"51 -3 LINE",
"43 11 LINE",
"43 19 LINE",
"44 36 LINE",
"57 40 LINE",
"68 40 LINE",
"92 40 LINE",
"118 53 LINE",
"130 75 LINE",
"133 103 LINE",
"133 117 LINE",
"133 514 LINE",
"133 528 LINE",
"130 556 LINE",
"118 578 LINE",
"92 591 LINE",
"68 591 LINE",
"57 591 LINE",
"44 595 LINE",
"43 612 LINE",
"43 620 LINE",
"51 634 LINE",
"60 634 LINE",
"93 632 LINE",
"149 631 LINE",
"179 631 LINE"
);
}
);
};
layerId = UUID0;
paths = (
{
closed = 1;
nodes = (
"104 -1 OFFCURVE",
"140 0 OFFCURVE",
"180 0 CURVE SMOOTH",
"510 0 LINE SMOOTH",
"527 0 OFFCURVE",
"535 2 OFFCURVE",
"539 21 CURVE",
"559 147 LINE",
"560 160 OFFCURVE",
"546 168 OFFCURVE",
"535 170 CURVE SMOOTH",
"520 172 OFFCURVE",
"506 169 OFFCURVE",
"501 156 CURVE",
"475 68 OFFCURVE",
"464 42 OFFCURVE",
"394 40 CURVE",
"302 40 LINE",
"233 38 OFFCURVE",
"234 79 OFFCURVE",
"232 105 CURVE",
"232 294 LINE",
"413 294 LINE SMOOTH",
"423 294 OFFCURVE",
"428 304 OFFCURVE",
"428 314 CURVE SMOOTH",
"428 325 OFFCURVE",
"423 336 OFFCURVE",
"413 337 CURVE",
"232 337 LINE",
"232 591 LINE",
"366 591 LINE",
"435 589 OFFCURVE",
"450 555 OFFCURVE",
"464 465 CURVE SMOOTH",
"466 453 OFFCURVE",
"480 447 OFFCURVE",
"495 447 CURVE SMOOTH",
"506 447 OFFCURVE",
"522 454 OFFCURVE",
"522 467 CURVE SMOOTH",
"519 607 LINE SMOOTH",
"519 626 OFFCURVE",
"508 631 OFFCURVE",
"493 631 CURVE SMOOTH",
"179 631 LINE",
"139 631 OFFCURVE",
"104 632 OFFCURVE",
"60 634 CURVE SMOOTH",
"48 634 OFFCURVE",
"43 623 OFFCURVE",
"43 612 CURVE SMOOTH",
"44 589 OFFCURVE",
"54 591 OFFCURVE",
"68 591 CURVE SMOOTH",
"131 591 OFFCURVE",
"132 552 OFFCURVE",
"133 514 CURVE",
"133 117 LINE",
"132 79 OFFCURVE",
"131 40 OFFCURVE",
"68 40 CURVE SMOOTH",
"54 40 OFFCURVE",
"44 42 OFFCURVE",
"43 19 CURVE SMOOTH",
"43 8 OFFCURVE",
"48 -3 OFFCURVE",
"60 -3 CURVE SMOOTH"
);
}
);
width = 594;
}
);
leftKerningGroup = I;
rightKerningGroup = E;
unicode = 0045;
},
{
glyphname = Eacute;
layers = (
{
background = {
paths = (
{
closed = 1;
nodes = (
"493 631 LINE",
"504 631 LINE",
"519 621 LINE",
"519 607 LINE",
"522 467 LINE",
"522 457 LINE",
"503 447 LINE",
"495 447 LINE",
"484 447 LINE",
"466 456 LINE",
"464 465 LINE",
"459 499 LINE",
"446 546 LINE",
"425 576 LINE",
"392 590 LINE",
"366 591 LINE",
"232 591 LINE",
"232 337 LINE",
"413 337 LINE",
"421 336 LINE",
"428 322 LINE",
"428 314 LINE",
"428 306 LINE",
"421 294 LINE",
"413 294 LINE",
"232 294 LINE",
"232 105 LINE",
"233 95 LINE",
"235 72 LINE",
"248 52 LINE",
"276 39 LINE",
"302 40 LINE",
"394 40 LINE",
"420 41 LINE",
"453 52 LINE",
"475 79 LINE",
"491 123 LINE",
"501 156 LINE",
"505 166 LINE",
"524 172 LINE",
"535 170 LINE",
"543 168 LINE",
"560 157 LINE",
"559 147 LINE",
"539 21 LINE",
"536 7 LINE",
"523 0 LINE",
"510 0 LINE",
"180 0 LINE",
"150 0 LINE",
"93 -1 LINE",
"60 -3 LINE",
"51 -3 LINE",
"43 11 LINE",
"43 19 LINE",
"44 36 LINE",
"57 40 LINE",
"68 40 LINE",
"92 40 LINE",
"118 53 LINE",
"130 75 LINE",
"133 103 LINE",
"133 117 LINE",
"133 514 LINE",
"133 528 LINE",
"130 556 LINE",
"118 578 LINE",
"92 591 LINE",
"68 591 LINE",
"57 591 LINE",
"44 595 LINE",
"43 612 LINE",
"43 620 LINE",
"51 634 LINE",
"60 634 LINE",
"93 632 LINE",
"149 631 LINE",
"179 631 LINE"
);
},
{
closed = 1;
nodes = (
"292 672 LINE",
"284 668 LINE",
"269 673 LINE",
"259 685 LINE",
"257 700 LINE",
"263 706 LINE",
"271 714 LINE",
"296 739 LINE",
"325 767 LINE",
"355 794 LINE",
"369 805 LINE",
"391 822 LINE",
"426 834 LINE",
"443 815 LINE",
"460 795 LINE",
"439 761 LINE",
"416 746 LINE",
"384 726 LINE",
"322 688 LINE"
);
}
);
};
components = (
{
name = E;
},
{
name = acutecomb.case;
transform = "{1, 0, 0, 1, 233, 0}";
}
);
layerId = UUID0;
width = 594;
}
);
leftKerningGroup = I;
rightKerningGroup = E;
unicode = 00C9;
},
{
glyphname = Ecircumflex;
layers = (
{
background = {
paths = (
{
closed = 1;
nodes = (
"493 631 LINE",
"504 631 LINE",
"519 621 LINE",
"519 607 LINE",
"522 467 LINE",
"522 457 LINE",
"503 447 LINE",
"495 447 LINE",
"484 447 LINE",
"466 456 LINE",
"464 465 LINE",
"459 499 LINE",
"446 546 LINE",
"425 576 LINE",
"392 590 LINE",
"366 591 LINE",
"232 591 LINE",
"232 337 LINE",
"413 337 LINE",
"421 336 LINE",
"428 322 LINE",
"428 314 LINE",
"428 306 LINE",
"421 294 LINE",
"413 294 LINE",
"232 294 LINE",
"232 105 LINE",
"233 95 LINE",
"235 72 LINE",
"248 52 LINE",
"276 39 LINE",
"302 40 LINE",
"394 40 LINE",
"420 41 LINE",
"453 52 LINE",
"475 79 LINE",
"491 123 LINE",
"501 156 LINE",
"505 166 LINE",
"524 172 LINE",
"535 170 LINE",
"543 168 LINE",
"560 157 LINE",
"559 147 LINE",
"539 21 LINE",
"536 7 LINE",
"523 0 LINE",
"510 0 LINE",
"180 0 LINE",
"150 0 LINE",
"93 -1 LINE",
"60 -3 LINE",
"51 -3 LINE",
"43 11 LINE",
"43 19 LINE",
"44 36 LINE",
"57 40 LINE",
"68 40 LINE",
"92 40 LINE",
"118 53 LINE",
"130 75 LINE",
"133 103 LINE",
"133 117 LINE",
"133 514 LINE",
"133 528 LINE",
"130 556 LINE",
"118 578 LINE",
"92 591 LINE",
"68 591 LINE",
"57 591 LINE",
"44 595 LINE",
"43 612 LINE",
"43 620 LINE",
"51 634 LINE",
"60 634 LINE",
"93 632 LINE",
"149 631 LINE",
"179 631 LINE"
);
},
{
closed = 1;
nodes = (
"290 812 LINE",
"303 821 LINE",
"314 821 LINE",
"326 821 LINE",
"338 812 LINE",
"465 719 LINE",
"471 714 LINE",
"475 702 LINE",
"471 691 LINE",
"461 683 LINE",
"454 684 LINE",
"422 692 LINE",
"349 731 LINE",
"314 749 LINE",
"279 731 LINE",
"206 692 LINE",
"174 684 LINE",
"166 683 LINE",
"157 691 LINE",
"153 702 LINE",
"157 714 LINE",
"163 719 LINE"
);
}
);
};
components = (
{
name = E;
},
{
name = circumflexcomb.case;
transform = "{1, 0, 0, 1, 130, 0}";
}
);
layerId = UUID0;
width = 594;
}
);
leftKerningGroup = I;
rightKerningGroup = E;
unicode = 00CA;
},
{
glyphname = Edieresis;
layers = (
{
background = {
paths = (
{
closed = 1;
nodes = (
"493 631 LINE",
"504 631 LINE",
"519 621 LINE",
"519 607 LINE",
"522 467 LINE",
"522 457 LINE",
"503 447 LINE",
"495 447 LINE",
"484 447 LINE",
"466 456 LINE",
"464 465 LINE",
"459 499 LINE",
"446 546 LINE",
"425 576 LINE",
"392 590 LINE",
"366 591 LINE",
"232 591 LINE",
"232 337 LINE",
"413 337 LINE",
"421 336 LINE",
"428 322 LINE",
"428 314 LINE",
"428 306 LINE",
"421 294 LINE",
"413 294 LINE",
"232 294 LINE",
"232 105 LINE",
"233 95 LINE",
"235 72 LINE",
"248 52 LINE",
"276 39 LINE",
"302 40 LINE",
"394 40 LINE",
"420 41 LINE",
"453 52 LINE",
"475 79 LINE",
"491 123 LINE",
"501 156 LINE",
"505 166 LINE",
"524 172 LINE",
"535 170 LINE",
"543 168 LINE",
"560 157 LINE",
"559 147 LINE",
"539 21 LINE",
"536 7 LINE",
"523 0 LINE",
"510 0 LINE",
"180 0 LINE",
"150 0 LINE",
"93 -1 LINE",
"60 -3 LINE",
"51 -3 LINE",
"43 11 LINE",
"43 19 LINE",
"44 36 LINE",
"57 40 LINE",
"68 40 LINE",
"92 40 LINE",
"118 53 LINE",
"130 75 LINE",
"133 103 LINE",
"133 117 LINE",
"133 514 LINE",
"133 528 LINE",
"130 556 LINE",
"118 578 LINE",
"92 591 LINE",
"68 591 LINE",
"57 591 LINE",
"44 595 LINE",
"43 612 LINE",
"43 620 LINE",
"51 634 LINE",
"60 634 LINE",
"93 632 LINE",
"149 631 LINE",
"179 631 LINE"
);
},
{
closed = 1;
nodes = (
"222 820 LINE",
"248 820 LINE",
"282 786 LINE",
"282 760 LINE",
"282 736 LINE",
"247 700 LINE",
"221 700 LINE",
"195 700 LINE",
"159 736 LINE",
"159 760 LINE",
"159 786 LINE",
"196 820 LINE"
);
},
{
closed = 1;
nodes = (
"414 820 LINE",
"440 820 LINE",
"474 786 LINE",
"474 760 LINE",
"474 736 LINE",
"439 700 LINE",
"413 700 LINE",
"387 700 LINE",
"351 736 LINE",
"351 760 LINE",
"351 786 LINE",
"388 820 LINE"
);
}
);
};
components = (
{
name = E;
},
{
name = dieresiscomb.case;
transform = "{1, 0, 0, 1, 124, 0}";
}
);
layerId = UUID0;
width = 594;
}
);
leftKerningGroup = I;
rightKerningGroup = E;
unicode = 00CB;
},
{
glyphname = Egrave;
layers = (
{
background = {
paths = (
{
closed = 1;
nodes = (
"493 631 LINE",
"504 631 LINE",
"519 621 LINE",
"519 607 LINE",
"522 467 LINE",
"522 457 LINE",
"503 447 LINE",
"495 447 LINE",
"484 447 LINE",
"466 456 LINE",
"464 465 LINE",
"459 499 LINE",
"446 546 LINE",
"425 576 LINE",
"392 590 LINE",
"366 591 LINE",
"232 591 LINE",
"232 337 LINE",
"413 337 LINE",
"421 336 LINE",
"428 322 LINE",
"428 314 LINE",
"428 306 LINE",
"421 294 LINE",
"413 294 LINE",
"232 294 LINE",
"232 105 LINE",
"233 95 LINE",
"235 72 LINE",
"248 52 LINE",
"276 39 LINE",
"302 40 LINE",
"394 40 LINE",
"420 41 LINE",
"453 52 LINE",
"475 79 LINE",
"491 123 LINE",
"501 156 LINE",
"505 166 LINE",
"524 172 LINE",
"535 170 LINE",
"543 168 LINE",
"560 157 LINE",
"559 147 LINE",
"539 21 LINE",
"536 7 LINE",
"523 0 LINE",
"510 0 LINE",
"180 0 LINE",
"150 0 LINE",
"93 -1 LINE",
"60 -3 LINE",
"51 -3 LINE",
"43 11 LINE",
"43 19 LINE",
"44 36 LINE",
"57 40 LINE",
"68 40 LINE",
"92 40 LINE",
"118 53 LINE",
"130 75 LINE",
"133 103 LINE",
"133 117 LINE",
"133 514 LINE",
"133 528 LINE",
"130 556 LINE",
"118 578 LINE",
"92 591 LINE",
"68 591 LINE",
"57 591 LINE",
"44 595 LINE",
"43 612 LINE",
"43 620 LINE",
"51 634 LINE",
"60 634 LINE",
"93 632 LINE",
"149 631 LINE",
"179 631 LINE"
);
},
{
closed = 1;
nodes = (
"334 672 LINE",
"304 688 LINE",
"242 726 LINE",
"210 746 LINE",
"187 761 LINE",
"166 795 LINE",
"183 815 LINE",
"200 834 LINE",
"235 822 LINE",
"257 805 LINE",
"271 794 LINE",
"301 767 LINE",
"330 739 LINE",
"355 714 LINE",
"363 706 LINE",
"369 700 LINE",
"367 685 LINE",
"357 673 LINE",
"342 668 LINE"
);
}
);
};
components = (
{
name = E;
},
{
name = gravecomb.case;
transform = "{1, 0, 0, 1, 110, 0}";
}
);
layerId = UUID0;
width = 594;
}
);
leftKerningGroup = I;
rightKerningGroup = E;
unicode = 00C8;
},
{
glyphname = F;
layers = (
{
anchors = (
{
name = bottom;
position = "{263, 0}";
},
{
name = top;
position = "{293, 631}";
}
);
background = {
paths = (
{
closed = 1;
nodes = (
"133 514 LINE",
"133 528 LINE",
"130 556 LINE",
"118 578 LINE",
"92 591 LINE",
"68 591 LINE",
"57 591 LINE",
"44 595 LINE",
"43 612 LINE",
"43 620 LINE",
"51 634 LINE",
"60 634 LINE",
"92 632 LINE",
"149 631 LINE",
"179 631 LINE",
"468 631 LINE",
"479 631 LINE",
"494 621 LINE",
"494 607 LINE",
"497 467 LINE",
"497 457 LINE",
"478 447 LINE",
"470 447 LINE",
"459 447 LINE",
"440 456 LINE",
"438 465 LINE",
"433 499 LINE",
"421 546 LINE",
"400 576 LINE",
"367 590 LINE",
"341 591 LINE",
"232 591 LINE",
"232 331 LINE",
"411 331 LINE",
"419 330 LINE",
"427 316 LINE",
"427 308 LINE",
"427 300 LINE",
"419 288 LINE",
"411 288 LINE",
"232 288 LINE",
"232 117 LINE",
"232 103 LINE",
"235 75 LINE",
"247 53 LINE",
"273 40 LINE",
"297 40 LINE",
"307 40 LINE",
"321 36 LINE",
"322 19 LINE",
"322 11 LINE",
"314 -3 LINE",
"304 -3 LINE",
"239 0 LINE",
"180 0 LINE",
"150 0 LINE",
"92 -1 LINE",
"60 -3 LINE",
"51 -3 LINE",
"43 11 LINE",
"43 19 LINE",
"44 36 LINE",
"57 40 LINE",
"68 40 LINE",
"92 40 LINE",
"118 53 LINE",
"130 75 LINE",
"133 103 LINE",
"133 117 LINE"
);
}
);
};
layerId = UUID0;
paths = (
{
closed = 1;
nodes = (
"103 -1 OFFCURVE",
"140 0 OFFCURVE",
"180 0 CURVE SMOOTH",
"220 0 OFFCURVE",
"261 -1 OFFCURVE",
"304 -3 CURVE SMOOTH",
"317 -3 OFFCURVE",
"322 8 OFFCURVE",
"322 19 CURVE SMOOTH",
"321 42 OFFCURVE",
"310 40 OFFCURVE",
"297 40 CURVE SMOOTH",
"234 40 OFFCURVE",
"233 79 OFFCURVE",
"232 117 CURVE",
"232 288 LINE",
"411 288 LINE SMOOTH",
"422 288 OFFCURVE",
"427 298 OFFCURVE",
"427 308 CURVE SMOOTH",
"427 319 OFFCURVE",
"422 330 OFFCURVE",
"411 331 CURVE",
"232 331 LINE",
"232 591 LINE",
"341 591 LINE",
"410 589 OFFCURVE",
"425 555 OFFCURVE",
"438 465 CURVE SMOOTH",
"440 453 OFFCURVE",
"455 447 OFFCURVE",
"470 447 CURVE SMOOTH",
"480 447 OFFCURVE",
"497 454 OFFCURVE",
"497 467 CURVE SMOOTH",
"494 607 LINE SMOOTH",
"494 626 OFFCURVE",
"482 631 OFFCURVE",
"468 631 CURVE SMOOTH",
"179 631 LINE SMOOTH",
"139 631 OFFCURVE",
"103 632 OFFCURVE",
"60 634 CURVE SMOOTH",
"48 634 OFFCURVE",
"43 623 OFFCURVE",
"43 612 CURVE SMOOTH",
"44 589 OFFCURVE",
"54 591 OFFCURVE",
"68 591 CURVE SMOOTH",
"131 591 OFFCURVE",
"132 552 OFFCURVE",
"133 514 CURVE",
"133 117 LINE",
"132 79 OFFCURVE",
"131 40 OFFCURVE",
"68 40 CURVE SMOOTH",
"54 40 OFFCURVE",
"44 42 OFFCURVE",
"43 19 CURVE SMOOTH",
"43 8 OFFCURVE",
"48 -3 OFFCURVE",
"60 -3 CURVE SMOOTH"
);
}
);
width = 525;
}
);
leftKerningGroup = I;
rightKerningGroup = F;
unicode = 0046;
},
{
glyphname = G;
layers = (
{
anchors = (
{
name = bottom;
position = "{381, 0}";
},
{
name = top;
position = "{381, 631}";
}
);
background = {
paths = (
{
closed = 1;
nodes = (
"590 29 LINE",
"561 15 LINE",
"509 -4 LINE",
"456 -15 LINE",
"396 -20 LINE",
"359 -20 LINE",
"296 -20 LINE",
"183 20 LINE",
"98 102 LINE",
"49 226 LINE",
"49 311 LINE",
"49 387 LINE",
"100 513 LINE",
"193 602 LINE",
"321 651 LINE",
"398 651 LINE",
"433 651 LINE",
"508 635 LINE",
"570 601 LINE",
"610 548 LINE",
"610 510 LINE",
"610 489 LINE",
"597 450 LINE",
"573 420 LINE",
"537 402 LINE",
"515 402 LINE",
"496 402 LINE",
"455 421 LINE",
"454 438 LINE",
"454 440 LINE",
"470 450 LINE",
"488 468 LINE",
"504 496 LINE",
"504 517 LINE",
"504 560 LINE",
"438 611 LINE",
"386 611 LINE",
"340 611 LINE",
"260 572 LINE",
"200 497 LINE",
"166 388 LINE",
"166 317 LINE",
"166 249 LINE",
"199 143 LINE",
"259 68 LINE",
"343 29 LINE",
"394 29 LINE",
"427 29 LINE",
"475 37 LINE",
"502 45 LINE",
"502 147 LINE",
"502 168 LINE",
"501 197 LINE",
"490 215 LINE",
"466 224 LINE",
"444 224 LINE",
"433 224 LINE",
"417 228 LINE",
"416 245 LINE",
"416 253 LINE",
"426 267 LINE",
"437 267 LINE",
"453 266 LINE",
"478 265 LINE",
"503 264 LINE",
"530 264 LINE",
"547 264 LINE",
"564 264 LINE",
"590 264 LINE",
"614 265 LINE",
"639 266 LINE",
"655 267 LINE",
"665 267 LINE",
"674 253 LINE",
"674 245 LINE",
"673 228 LINE",
"657 224 LINE",
"646 224 LINE",
"625 224 LINE",
"602 214 LINE",
"592 195 LINE",
"590 166 LINE",
"590 147 LINE"
);
}
);
};
layerId = UUID0;
paths = (
{
closed = 1;
nodes = (
"459 -20 OFFCURVE",
"512 -8 OFFCURVE",
"590 29 CURVE",
"590 147 LINE SMOOTH",
"590 198 OFFCURVE",
"590 224 OFFCURVE",
"646 224 CURVE SMOOTH",
"661 224 OFFCURVE",
"673 222 OFFCURVE",
"674 245 CURVE SMOOTH",
"674 256 OFFCURVE",
"668 267 OFFCURVE",
"655 267 CURVE SMOOTH",
"613 265 OFFCURVE",
"592 264 OFFCURVE",
"547 264 CURVE",
"501 264 OFFCURVE",
"479 265 OFFCURVE",
"437 267 CURVE SMOOTH",
"423 267 OFFCURVE",
"416 256 OFFCURVE",
"416 245 CURVE SMOOTH",
"417 222 OFFCURVE",
"430 224 OFFCURVE",
"444 224 CURVE SMOOTH",
"504 224 OFFCURVE",
"502 202 OFFCURVE",
"502 147 CURVE",
"502 45 LINE",
"466 34 OFFCURVE",
"438 29 OFFCURVE",
"394 29 CURVE SMOOTH",
"257 29 OFFCURVE",
"166 137 OFFCURVE",
"166 317 CURVE SMOOTH",
"166 506 OFFCURVE",
"263 611 OFFCURVE",
"386 611 CURVE SMOOTH",
"455 611 OFFCURVE",
"504 574 OFFCURVE",
"504 517 CURVE SMOOTH",
"504 462 OFFCURVE",
"454 443 OFFCURVE",
"454 438 CURVE SMOOTH",
"455 415 OFFCURVE",
"490 402 OFFCURVE",
"515 402 CURVE SMOOTH",
"575 402 OFFCURVE",
"610 455 OFFCURVE",
"610 510 CURVE SMOOTH",
"610 611 OFFCURVE",
"491 651 OFFCURVE",
"398 651 CURVE SMOOTH",
"193 651 OFFCURVE",
"49 515 OFFCURVE",
"49 311 CURVE SMOOTH",
"49 85 OFFCURVE",
"190 -20 OFFCURVE",
"359 -20 CURVE SMOOTH"
);
}
);
width = 692;
}
);
leftKerningGroup = O;
rightKerningGroup = C;
unicode = 0047;
},
{
glyphname = H;
layers = (
{
anchors = (
{
name = bottom;
position = "{389, 0}";
},
{
name = center;
position = "{389, 316}";
},
{
name = top;
position = "{389, 631}";
},
{
name = topleft;
position = "{20, 631}";
}
);
layerId = UUID0;
paths = (
{
closed = 1;
nodes = (
"104 -1 OFFCURVE",
"140 0 OFFCURVE",
"180 0 CURVE SMOOTH",
"220 0 OFFCURVE",
"261 -1 OFFCURVE",
"304 -3 CURVE SMOOTH",
"317 -3 OFFCURVE",
"322 8 OFFCURVE",
"322 19 CURVE SMOOTH",
"321 42 OFFCURVE",
"311 40 OFFCURVE",
"297 40 CURVE SMOOTH",
"234 40 OFFCURVE",
"233 79 OFFCURVE",
"232 117 CURVE",
"232 294 LINE",
"546 294 LINE",
"546 117 LINE",
"545 79 OFFCURVE",
"544 40 OFFCURVE",
"481 40 CURVE SMOOTH",
"467 40 OFFCURVE",
"456 42 OFFCURVE",
"455 19 CURVE SMOOTH",
"455 8 OFFCURVE",
"461 -3 OFFCURVE",
"473 -3 CURVE SMOOTH",
"516 -1 OFFCURVE",
"557 0 OFFCURVE",
"597 0 CURVE SMOOTH",
"637 0 OFFCURVE",
"674 -1 OFFCURVE",
"717 -3 CURVE SMOOTH",
"729 -3 OFFCURVE",
"735 8 OFFCURVE",
"735 19 CURVE SMOOTH",
"734 42 OFFCURVE",
"723 40 OFFCURVE",
"710 40 CURVE SMOOTH",
"647 40 OFFCURVE",
"645 79 OFFCURVE",
"644 117 CURVE",
"644 514 LINE",
"645 552 OFFCURVE",
"647 591 OFFCURVE",
"710 591 CURVE SMOOTH",
"723 591 OFFCURVE",
"734 589 OFFCURVE",
"735 612 CURVE SMOOTH",
"735 623 OFFCURVE",
"729 634 OFFCURVE",
"717 634 CURVE SMOOTH",
"674 632 OFFCURVE",
"638 631 OFFCURVE",
"598 631 CURVE SMOOTH",
"558 631 OFFCURVE",
"516 632 OFFCURVE",
"473 634 CURVE SMOOTH",
"461 634 OFFCURVE",
"455 623 OFFCURVE",
"455 612 CURVE SMOOTH",
"456 589 OFFCURVE",
"467 591 OFFCURVE",
"481 591 CURVE SMOOTH",
"544 591 OFFCURVE",
"545 552 OFFCURVE",
"546 514 CURVE",
"546 337 LINE",
"232 337 LINE",
"232 514 LINE",
"233 552 OFFCURVE",
"234 591 OFFCURVE",
"297 591 CURVE SMOOTH",
"311 591 OFFCURVE",
"321 589 OFFCURVE",
"322 612 CURVE SMOOTH",
"322 623 OFFCURVE",
"317 634 OFFCURVE",
"304 634 CURVE SMOOTH",
"261 632 OFFCURVE",
"219 631 OFFCURVE",
"179 631 CURVE SMOOTH",
"139 631 OFFCURVE",
"104 632 OFFCURVE",
"61 634 CURVE SMOOTH",
"48 634 OFFCURVE",
"43 623 OFFCURVE",
"43 612 CURVE SMOOTH",
"44 589 OFFCURVE",
"54 591 OFFCURVE",
"68 591 CURVE SMOOTH",
"131 591 OFFCURVE",
"132 552 OFFCURVE",
"133 514 CURVE",
"133 117 LINE",
"132 79 OFFCURVE",
"131 40 OFFCURVE",
"68 40 CURVE SMOOTH",
"54 40 OFFCURVE",
"44 42 OFFCURVE",
"43 19 CURVE SMOOTH",
"43 8 OFFCURVE",
"48 -3 OFFCURVE",
"61 -3 CURVE SMOOTH"
);
}
);
width = 777;
}
);
leftKerningGroup = I;
rightKerningGroup = I;
unicode = 0048;
},
{
glyphname = I;
layers = (
{
anchors = (
{
name = bottom;
position = "{182, 0}";
},
{
name = ogonek;
position = "{220, 0}";
},
{
name = top;
position = "{182, 631}";
},
{
name = topleft;
position = "{20, 631}";
}
);
background = {
paths = (
{
closed = 1;
nodes = (
"231 117 LINE",
"231 103 LINE",
"234 75 LINE",
"246 53 LINE",
"272 40 LINE",
"296 40 LINE",
"307 40 LINE",
"320 36 LINE",
"322 19 LINE",
"322 11 LINE",
"313 -3 LINE",
"304 -3 LINE",
"239 0 LINE",
"180 0 LINE",
"150 0 LINE",
"92 -1 LINE",
"60 -3 LINE",
"50 -3 LINE",
"42 11 LINE",
"42 19 LINE",
"43 36 LINE",
"57 40 LINE",
"67 40 LINE",
"91 40 LINE",
"117 53 LINE",
"129 75 LINE",
"132 103 LINE",
"133 117 LINE",
"133 514 LINE",
"132 528 LINE",
"129 556 LINE",
"117 578 LINE",
"91 591 LINE",
"67 591 LINE",
"57 591 LINE",
"43 595 LINE",
"42 612 LINE",
"42 620 LINE",
"50 634 LINE",
"60 634 LINE",
"92 632 LINE",
"149 631 LINE",
"179 631 LINE",
"239 631 LINE",
"304 634 LINE",
"313 634 LINE",
"322 620 LINE",
"322 612 LINE",
"320 595 LINE",
"307 591 LINE",
"296 591 LINE",
"272 591 LINE",
"246 578 LINE",
"234 556 LINE",
"231 528 LINE",
"231 514 LINE"
);
}
);
};
layerId = UUID0;
paths = (
{
closed = 1;
nodes = (
"103 -1 OFFCURVE",
"140 0 OFFCURVE",
"180 0 CURVE SMOOTH",
"220 0 OFFCURVE",
"261 -1 OFFCURVE",
"304 -3 CURVE SMOOTH",
"316 -3 OFFCURVE",
"322 8 OFFCURVE",
"322 19 CURVE SMOOTH",
"320 42 OFFCURVE",
"310 40 OFFCURVE",
"296 40 CURVE SMOOTH",
"233 40 OFFCURVE",
"232 79 OFFCURVE",
"231 117 CURVE",
"231 514 LINE",
"232 552 OFFCURVE",
"233 591 OFFCURVE",
"296 591 CURVE SMOOTH",
"310 591 OFFCURVE",
"320 589 OFFCURVE",
"322 612 CURVE SMOOTH",
"322 623 OFFCURVE",
"316 634 OFFCURVE",
"304 634 CURVE",
"261 632 OFFCURVE",
"219 631 OFFCURVE",
"179 631 CURVE",
"139 631 OFFCURVE",
"103 632 OFFCURVE",
"60 634 CURVE SMOOTH",
"47 634 OFFCURVE",
"42 623 OFFCURVE",
"42 612 CURVE SMOOTH",
"43 589 OFFCURVE",
"54 591 OFFCURVE",
"67 591 CURVE SMOOTH",
"130 591 OFFCURVE",
"131 552 OFFCURVE",
"133 514 CURVE",
"133 117 LINE",
"131 79 OFFCURVE",
"130 40 OFFCURVE",
"67 40 CURVE SMOOTH",
"54 40 OFFCURVE",
"43 42 OFFCURVE",
"42 19 CURVE SMOOTH",
"42 8 OFFCURVE",
"47 -3 OFFCURVE",
"60 -3 CURVE SMOOTH"
);
}
);
width = 364;
}
);
leftKerningGroup = I;
rightKerningGroup = I;
unicode = 0049;
},
{
glyphname = Iacute;
layers = (
{
background = {
paths = (
{
closed = 1;
nodes = (
"231 117 LINE",
"231 103 LINE",
"234 75 LINE",
"246 53 LINE",
"272 40 LINE",
"296 40 LINE",
"307 40 LINE",
"320 36 LINE",
"322 19 LINE",
"322 11 LINE",
"313 -3 LINE",
"304 -3 LINE",
"239 0 LINE",
"180 0 LINE",
"150 0 LINE",
"92 -1 LINE",
"60 -3 LINE",
"50 -3 LINE",
"42 11 LINE",
"42 19 LINE",
"43 36 LINE",
"57 40 LINE",
"67 40 LINE",
"91 40 LINE",
"117 53 LINE",
"129 75 LINE",
"132 103 LINE",
"133 117 LINE",
"133 514 LINE",
"132 528 LINE",
"129 556 LINE",
"117 578 LINE",
"91 591 LINE",
"67 591 LINE",
"57 591 LINE",
"43 595 LINE",
"42 612 LINE",
"42 620 LINE",
"50 634 LINE",
"60 634 LINE",
"92 632 LINE",
"149 631 LINE",
"179 631 LINE",
"239 631 LINE",
"304 634 LINE",
"313 634 LINE",
"322 620 LINE",
"322 612 LINE",
"320 595 LINE",
"307 591 LINE",
"296 591 LINE",
"272 591 LINE",
"246 578 LINE",
"234 556 LINE",
"231 528 LINE",
"231 514 LINE"
);
},
{
closed = 1;
nodes = (
"166 672 LINE",
"158 668 LINE",
"143 673 LINE",
"133 685 LINE",
"131 700 LINE",
"137 706 LINE",
"145 714 LINE",
"170 739 LINE",
"199 767 LINE",
"229 794 LINE",
"243 805 LINE",
"265 822 LINE",
"300 834 LINE",
"317 815 LINE",
"334 795 LINE",
"313 761 LINE",
"290 746 LINE",
"258 726 LINE",
"196 688 LINE"
);
}
);
};
components = (
{
name = I;
},
{
name = acutecomb.case;
transform = "{1, 0, 0, 1, 97, 0}";
}
);
layerId = UUID0;
width = 364;
}
);
leftKerningGroup = I;
rightKerningGroup = I;
unicode = 00CD;
},
{
glyphname = Icircumflex;
layers = (
{
background = {
paths = (
{
closed = 1;
nodes = (
"231 117 LINE",
"231 103 LINE",
"234 75 LINE",
"246 53 LINE",
"272 40 LINE",
"296 40 LINE",
"307 40 LINE",
"320 36 LINE",
"322 19 LINE",
"322 11 LINE",
"313 -3 LINE",
"304 -3 LINE",
"239 0 LINE",
"180 0 LINE",
"150 0 LINE",
"92 -1 LINE",
"60 -3 LINE",
"50 -3 LINE",
"42 11 LINE",
"42 19 LINE",
"43 36 LINE",
"57 40 LINE",
"67 40 LINE",
"91 40 LINE",
"117 53 LINE",
"129 75 LINE",
"132 103 LINE",
"133 117 LINE",
"133 514 LINE",
"132 528 LINE",
"129 556 LINE",
"117 578 LINE",
"91 591 LINE",
"67 591 LINE",
"57 591 LINE",
"43 595 LINE",
"42 612 LINE",
"42 620 LINE",
"50 634 LINE",
"60 634 LINE",
"92 632 LINE",
"149 631 LINE",
"179 631 LINE",
"239 631 LINE",
"304 634 LINE",
"313 634 LINE",
"322 620 LINE",
"322 612 LINE",
"320 595 LINE",
"307 591 LINE",
"296 591 LINE",
"272 591 LINE",
"246 578 LINE",
"234 556 LINE",
"231 528 LINE",
"231 514 LINE"
);
},
{
closed = 1;
nodes = (
"154 812 LINE",
"167 821 LINE",
"178 821 LINE",
"190 821 LINE",
"202 812 LINE",
"329 719 LINE",
"335 714 LINE",
"339 702 LINE",
"335 691 LINE",
"325 683 LINE",
"318 684 LINE",
"286 692 LINE",
"213 731 LINE",
"178 749 LINE",
"143 731 LINE",
"70 692 LINE",
"38 684 LINE",
"30 683 LINE",
"21 691 LINE",
"17 702 LINE",
"21 714 LINE",
"27 719 LINE"
);
}
);
};
components = (
{
name = I;
},
{
name = circumflexcomb.case;
transform = "{1, 0, 0, 1, -6, 0}";
}
);
layerId = UUID0;
width = 364;
}
);
leftKerningGroup = I;
rightKerningGroup = I;
unicode = 00CE;
},
{
glyphname = Idieresis;
layers = (
{
background = {
paths = (
{
closed = 1;
nodes = (
"231 117 LINE",
"231 103 LINE",
"234 75 LINE",
"246 53 LINE",
"272 40 LINE",
"296 40 LINE",
"307 40 LINE",
"320 36 LINE",
"322 19 LINE",
"322 11 LINE",
"313 -3 LINE",
"304 -3 LINE",
"239 0 LINE",
"180 0 LINE",
"150 0 LINE",
"92 -1 LINE",
"60 -3 LINE",
"50 -3 LINE",
"42 11 LINE",
"42 19 LINE",
"43 36 LINE",
"57 40 LINE",
"67 40 LINE",
"91 40 LINE",
"117 53 LINE",
"129 75 LINE",
"132 103 LINE",
"133 117 LINE",
"133 514 LINE",
"132 528 LINE",
"129 556 LINE",
"117 578 LINE",
"91 591 LINE",
"67 591 LINE",
"57 591 LINE",
"43 595 LINE",
"42 612 LINE",
"42 620 LINE",
"50 634 LINE",
"60 634 LINE",
"92 632 LINE",
"149 631 LINE",
"179 631 LINE",
"239 631 LINE",
"304 634 LINE",
"313 634 LINE",
"322 620 LINE",
"322 612 LINE",
"320 595 LINE",
"307 591 LINE",
"296 591 LINE",
"272 591 LINE",
"246 578 LINE",
"234 556 LINE",
"231 528 LINE",
"231 514 LINE"
);
},
{
closed = 1;
nodes = (
"86 820 LINE",
"112 820 LINE",
"146 786 LINE",
"146 760 LINE",
"146 736 LINE",
"111 700 LINE",
"85 700 LINE",
"59 700 LINE",
"23 736 LINE",
"23 760 LINE",
"23 786 LINE",
"60 820 LINE"
);
},
{
closed = 1;
nodes = (
"278 820 LINE",
"304 820 LINE",
"338 786 LINE",
"338 760 LINE",
"338 736 LINE",
"303 700 LINE",
"277 700 LINE",
"251 700 LINE",
"215 736 LINE",
"215 760 LINE",
"215 786 LINE",
"252 820 LINE"
);
}
);
};
components = (
{
name = I;
},
{
name = dieresiscomb.case;
transform = "{1, 0, 0, 1, -12, 0}";
}
);
layerId = UUID0;
width = 364;
}
);
leftKerningGroup = I;
rightKerningGroup = I;
unicode = 00CF;
},
{
glyphname = Igrave;
layers = (
{
background = {
paths = (
{
closed = 1;
nodes = (
"231 117 LINE",
"231 103 LINE",
"234 75 LINE",
"246 53 LINE",
"272 40 LINE",
"296 40 LINE",
"307 40 LINE",
"320 36 LINE",
"322 19 LINE",
"322 11 LINE",
"313 -3 LINE",
"304 -3 LINE",
"239 0 LINE",
"180 0 LINE",
"150 0 LINE",
"92 -1 LINE",
"60 -3 LINE",
"50 -3 LINE",
"42 11 LINE",
"42 19 LINE",
"43 36 LINE",
"57 40 LINE",
"67 40 LINE",
"91 40 LINE",
"117 53 LINE",
"129 75 LINE",
"132 103 LINE",
"133 117 LINE",
"133 514 LINE",
"132 528 LINE",
"129 556 LINE",
"117 578 LINE",
"91 591 LINE",
"67 591 LINE",
"57 591 LINE",
"43 595 LINE",
"42 612 LINE",
"42 620 LINE",
"50 634 LINE",
"60 634 LINE",
"92 632 LINE",
"149 631 LINE",
"179 631 LINE",
"239 631 LINE",
"304 634 LINE",
"313 634 LINE",
"322 620 LINE",
"322 612 LINE",
"320 595 LINE",
"307 591 LINE",
"296 591 LINE",
"272 591 LINE",
"246 578 LINE",
"234 556 LINE",
"231 528 LINE",
"231 514 LINE"
);
},
{
closed = 1;
nodes = (
"187 672 LINE",
"157 688 LINE",
"95 726 LINE",
"63 746 LINE",
"40 761 LINE",
"19 795 LINE",
"36 815 LINE",
"53 834 LINE",
"88 822 LINE",
"110 805 LINE",
"124 794 LINE",
"154 767 LINE",
"183 739 LINE",
"208 714 LINE",
"216 706 LINE",
"222 700 LINE",
"220 685 LINE",
"210 673 LINE",
"195 668 LINE"
);
}
);
};
components = (
{
name = I;
},
{
name = gravecomb.case;
transform = "{1, 0, 0, 1, -26, 0}";
}
);
layerId = UUID0;
width = 364;
}
);
leftKerningGroup = I;
rightKerningGroup = I;
unicode = 00CC;
},
{
glyphname = J;
layers = (
{
anchors = (
{
name = bottom;
position = "{171, -188}";
},
{
name = top;
position = "{171, 631}";
}
);
background = {
paths = (
{
closed = 1;
nodes = (
"23 -192 LINE",
"6 -195 LINE",
"0 -175 LINE",
"-5 -156 LINE",
"10 -150 LINE",
"49 -134 LINE",
"93 -81 LINE",
"116 -4 LINE",
"122 97 LINE",
"122 162 LINE",
"122 514 LINE",
"122 528 LINE",
"119 556 LINE",
"107 578 LINE",
"81 591 LINE",
"57 591 LINE",
"46 591 LINE",
"32 595 LINE",
"31 612 LINE",
"31 620 LINE",
"40 634 LINE",
"49 634 LINE",
"81 632 LINE",
"138 631 LINE",
"168 631 LINE",
"228 631 LINE",
"293 634 LINE",
"302 634 LINE",
"311 620 LINE",
"311 612 LINE",
"310 595 LINE",
"296 591 LINE",
"285 591 LINE",
"261 591 LINE",
"235 578 LINE",
"223 556 LINE",
"220 528 LINE",
"220 514 LINE",
"220 128 LINE",
"220 68 LINE",
"201 -36 LINE",
"155 -120 LINE",
"79 -179 LINE"
);
}
);
};
layerId = UUID0;
paths = (
{
closed = 1;
nodes = (
"173 -156 OFFCURVE",
"220 -31 OFFCURVE",
"220 128 CURVE SMOOTH",
"220 514 LINE",
"221 552 OFFCURVE",
"222 591 OFFCURVE",
"285 591 CURVE SMOOTH",
"299 591 OFFCURVE",
"310 589 OFFCURVE",
"311 612 CURVE SMOOTH",
"311 623 OFFCURVE",
"305 634 OFFCURVE",
"293 634 CURVE SMOOTH",
"250 632 OFFCURVE",
"208 631 OFFCURVE",
"168 631 CURVE SMOOTH",
"128 631 OFFCURVE",
"92 632 OFFCURVE",
"49 634 CURVE SMOOTH",
"37 634 OFFCURVE",
"31 623 OFFCURVE",
"31 612 CURVE SMOOTH",
"32 589 OFFCURVE",
"43 591 OFFCURVE",
"57 591 CURVE SMOOTH",
"120 591 OFFCURVE",
"121 552 OFFCURVE",
"122 514 CURVE",
"122 162 LINE SMOOTH",
"122 -10 OFFCURVE",
"113 -107 OFFCURVE",
"10 -150 CURVE",
"-1 -154 OFFCURVE",
"-3 -164 OFFCURVE",
"0 -175 CURVE SMOOTH",
"4 -188 OFFCURVE",
"11 -194 OFFCURVE",
"23 -192 CURVE"
);
}
);
width = 345;
}
);
leftKerningGroup = J;
rightKerningGroup = U;
unicode = 004A;
},
{
glyphname = K;
layers = (
{
anchors = (
{
name = bottom;
position = "{350, 0}";
},
{
name = top;
position = "{367, 631}";
}
);
background = {
paths = (
{
closed = 1;
nodes = (
"458 542 LINE",
"478 564 LINE",
"475 588 LINE",
"449 590 LINE",
"436 591 LINE",
"435 611 LINE",
"435 620 LINE",
"445 634 LINE",
"453 634 LINE",
"479 632 LINE",
"537 631 LINE",
"563 631 LINE",
"583 631 LINE",
"634 633 LINE",
"654 634 LINE",
"664 634 LINE",
"673 620 LINE",
"673 611 LINE",
"671 596 LINE",
"661 590 LINE",
"653 590 LINE",
"615 592 LINE",
"544 564 LINE",
"503 523 LINE",
"486 505 LINE",
"431 448 LINE",
"405 421 LINE",
"374 389 LINE",
"341 354 LINE",
"400 282 LINE",
"521 163 LINE",
"564 117 LINE",
"581 100 LINE",
"607 73 LINE",
"632 54 LINE",
"658 42 LINE",
"675 40 LINE",
"683 39 LINE",
"699 36 LINE",
"700 19 LINE",
"700 11 LINE",
"692 -3 LINE",
"682 -3 LINE",
"666 -2 LINE",
"647 -1 LINE",
"630 0 LINE",
"612 0 LINE",
"597 0 LINE",
"533 0 LINE",
"478 61 LINE",
"363 190 LINE",
"297 267 LINE",
"279 288 LINE",
"248 305 LINE",
"232 307 LINE",
"232 117 LINE",
"232 103 LINE",
"235 75 LINE",
"247 53 LINE",
"273 40 LINE",
"297 40 LINE",
"308 40 LINE",
"321 36 LINE",
"322 19 LINE",
"322 11 LINE",
"314 -3 LINE",
"304 -3 LINE",
"239 0 LINE",
"180 0 LINE",
"150 0 LINE",
"93 -1 LINE",
"61 -3 LINE",
"51 -3 LINE",
"43 11 LINE",
"43 19 LINE",
"44 36 LINE",
"57 40 LINE",
"68 40 LINE",
"92 40 LINE",
"118 53 LINE",
"130 75 LINE",
"133 103 LINE",
"133 117 LINE",
"133 514 LINE",
"133 528 LINE",
"130 556 LINE",
"118 578 LINE",
"92 591 LINE",
"68 591 LINE",
"57 591 LINE",
"44 595 LINE",
"43 612 LINE",
"43 621 LINE",
"51 634 LINE",
"61 634 LINE",
"93 632 LINE",
"149 631 LINE",
"179 631 LINE",
"239 631 LINE",
"304 634 LINE",
"314 634 LINE",
"322 622 LINE",
"322 612 LINE",
"321 597 LINE",
"310 591 LINE",
"297 591 LINE",
"273 591 LINE",
"247 578 LINE",
"235 556 LINE",
"232 528 LINE",
"232 514 LINE",
"232 333 LINE",
"249 337 LINE",
"294 369 LINE",
"317 389 LINE",
"355 424 LINE",
"427 505 LINE"
);
}
);
};
layerId = UUID0;
paths = (
{
closed = 1;
nodes = (
"104 -1 OFFCURVE",
"140 0 OFFCURVE",
"180 0 CURVE SMOOTH",
"220 0 OFFCURVE",
"261 -1 OFFCURVE",
"304 -3 CURVE SMOOTH",
"317 -3 OFFCURVE",
"322 8 OFFCURVE",
"322 19 CURVE SMOOTH",
"321 42 OFFCURVE",
"311 40 OFFCURVE",
"297 40 CURVE SMOOTH",
"234 40 OFFCURVE",
"233 79 OFFCURVE",
"232 117 CURVE",
"232 307 LINE",
"253 305 OFFCURVE",
"273 295 OFFCURVE",
"297 267 CURVE SMOOTH",
"385 165 OFFCURVE",
"460 81 OFFCURVE",
"533 0 CURVE",
"597 0 LINE",
"637 0 OFFCURVE",
"639 -1 OFFCURVE",
"682 -3 CURVE SMOOTH",
"695 -3 OFFCURVE",
"700 8 OFFCURVE",
"700 19 CURVE SMOOTH",
"699 41 OFFCURVE",
"686 39 OFFCURVE",
"675 40 CURVE",
"630 45 OFFCURVE",
"609 72 OFFCURVE",
"564 117 CURVE",
"507 178 OFFCURVE",
"419 259 OFFCURVE",
"341 354 CURVE",
"341 354 OFFCURVE",
"458 476 OFFCURVE",
"503 523 CURVE SMOOTH",
"557 577 OFFCURVE",
"603 592 OFFCURVE",
"653 590 CURVE",
"663 590 OFFCURVE",
"671 591 OFFCURVE",
"673 611 CURVE",
"673 623 OFFCURVE",
"667 634 OFFCURVE",
"654 634 CURVE SMOOTH",
"628 633 OFFCURVE",
"590 631 OFFCURVE",
"563 631 CURVE SMOOTH",
"528 631 OFFCURVE",
"488 631 OFFCURVE",
"453 634 CURVE",
"442 634 OFFCURVE",
"435 623 OFFCURVE",
"435 611 CURVE SMOOTH",
"437 597 OFFCURVE",
"440 591 OFFCURVE",
"449 590 CURVE",
"484 588 OFFCURVE",
"484 571 OFFCURVE",
"458 542 CURVE",
"417 493 OFFCURVE",
"367 435 OFFCURVE",
"317 389 CURVE",
"286 363 OFFCURVE",
"255 338 OFFCURVE",
"232 333 CURVE",
"232 514 LINE",
"233 552 OFFCURVE",
"234 591 OFFCURVE",
"297 591 CURVE SMOOTH",
"311 591 OFFCURVE",
"321 589 OFFCURVE",
"322 612 CURVE SMOOTH",
"322 623 OFFCURVE",
"317 634 OFFCURVE",
"304 634 CURVE SMOOTH",
"261 632 OFFCURVE",
"219 631 OFFCURVE",
"179 631 CURVE SMOOTH",
"139 631 OFFCURVE",
"104 632 OFFCURVE",
"61 634 CURVE SMOOTH",
"48 634 OFFCURVE",
"43 623 OFFCURVE",
"43 612 CURVE SMOOTH",
"44 589 OFFCURVE",
"54 591 OFFCURVE",
"68 591 CURVE SMOOTH",
"131 591 OFFCURVE",
"132 552 OFFCURVE",
"133 514 CURVE",
"133 117 LINE",
"132 79 OFFCURVE",
"131 40 OFFCURVE",
"68 40 CURVE SMOOTH",
"54 40 OFFCURVE",
"44 42 OFFCURVE",
"43 19 CURVE SMOOTH",
"43 8 OFFCURVE",
"48 -3 OFFCURVE",
"61 -3 CURVE SMOOTH"
);
}
);
width = 700;
}
);
leftKerningGroup = I;
rightKerningGroup = K;
unicode = 004B;
},
{
glyphname = L;
layers = (
{
anchors = (
{
name = bottom;
position = "{315, 0}";
},
{
name = center;
position = "{180, 316}";
},
{
name = top;
position = "{197, 631}";
},
{
name = topright;
position = "{461, 631}";
}
);
background = {
paths = (
{
closed = 1;
nodes = (
"232 102 LINE",
"233 92 LINE",
"235 70 LINE",
"248 51 LINE",
"276 39 LINE",
"302 40 LINE",
"392 40 LINE",
"418 41 LINE",
"451 52 LINE",
"473 79 LINE",
"489 123 LINE",
"499 156 LINE",
"503 166 LINE",
"522 172 LINE",
"533 170 LINE",
"541 168 LINE",
"558 157 LINE",
"557 147 LINE",
"537 21 LINE",
"534 7 LINE",
"521 0 LINE",
"508 0 LINE",
"180 0 LINE",
"150 0 LINE",
"93 -1 LINE",
"60 -3 LINE",
"51 -3 LINE",
"43 11 LINE",
"43 19 LINE",
"44 34 LINE",
"57 40 LINE",
"68 40 LINE",
"92 40 LINE",
"118 53 LINE",
"130 75 LINE",
"133 103 LINE",
"133 117 LINE",
"133 514 LINE",
"133 528 LINE",
"130 556 LINE",
"118 578 LINE",
"92 591 LINE",
"68 591 LINE",
"57 591 LINE",
"44 596 LINE",
"43 612 LINE",
"43 622 LINE",
"51 634 LINE",
"60 634 LINE",
"93 632 LINE",
"149 631 LINE",
"179 631 LINE",
"239 631 LINE",
"304 634 LINE",
"314 634 LINE",
"322 620 LINE",
"322 612 LINE",
"321 595 LINE",
"307 591 LINE",
"297 591 LINE",
"273 591 LINE",
"247 578 LINE",
"235 556 LINE",
"232 528 LINE",
"232 514 LINE"
);
}
);
};
layerId = UUID0;
paths = (
{
closed = 1;
nodes = (
"104 -1 OFFCURVE",
"140 0 OFFCURVE",
"180 0 CURVE SMOOTH",
"508 0 LINE SMOOTH",
"525 0 OFFCURVE",
"533 2 OFFCURVE",
"537 21 CURVE",
"557 147 LINE",
"558 160 OFFCURVE",
"543 168 OFFCURVE",
"533 170 CURVE SMOOTH",
"518 172 OFFCURVE",
"504 169 OFFCURVE",
"499 156 CURVE SMOOTH",
"473 68 OFFCURVE",
"462 42 OFFCURVE",
"392 40 CURVE",
"302 40 LINE",
"233 38 OFFCURVE",
"234 76 OFFCURVE",
"232 102 CURVE",
"232 514 LINE",
"233 552 OFFCURVE",
"234 591 OFFCURVE",
"297 591 CURVE SMOOTH",
"310 591 OFFCURVE",
"321 589 OFFCURVE",
"322 612 CURVE SMOOTH",
"322 623 OFFCURVE",
"317 634 OFFCURVE",
"304 634 CURVE SMOOTH",
"261 632 OFFCURVE",
"219 631 OFFCURVE",
"179 631 CURVE",
"139 631 OFFCURVE",
"104 632 OFFCURVE",
"60 634 CURVE SMOOTH",
"48 634 OFFCURVE",
"43 623 OFFCURVE",
"43 612 CURVE SMOOTH",
"44 589 OFFCURVE",
"54 591 OFFCURVE",
"68 591 CURVE SMOOTH",
"131 591 OFFCURVE",
"132 552 OFFCURVE",
"133 514 CURVE",
"133 117 LINE",
"132 79 OFFCURVE",
"131 40 OFFCURVE",
"68 40 CURVE SMOOTH",
"54 40 OFFCURVE",
"44 42 OFFCURVE",
"43 19 CURVE SMOOTH",
"43 8 OFFCURVE",
"48 -3 OFFCURVE",
"60 -3 CURVE SMOOTH"
);
}
);
width = 571;
}
);
leftKerningGroup = I;
rightKerningGroup = L;
unicode = 004C;
},
{
glyphname = M;
layers = (
{
anchors = (
{
name = bottom;
position = "{445, 0}";
},
{
name = top;
position = "{445, 631}";
}
);
background = {
paths = (
{
closed = 1;
nodes = (
"448 5 LINE",
"446 0 LINE",
"434 -5 LINE",
"428 -5 LINE",
"422 -5 LINE",
"410 0 LINE",
"407 5 LINE",
"182 514 LINE",
"179 514 LINE",
"181 117 LINE",
"181 103 LINE",
"183 75 LINE",
"195 53 LINE",
"220 40 LINE",
"244 40 LINE",
"255 40 LINE",
"268 36 LINE",
"270 19 LINE",
"270 11 LINE",
"261 -3 LINE",
"252 -3 LINE",
"236 -2 LINE",
"215 -1 LINE",
"196 0 LINE",
"176 0 LINE",
"161 0 LINE",
"146 0 LINE",
"123 0 LINE",
"102 -1 LINE",
"78 -2 LINE",
"62 -3 LINE",
"52 -3 LINE",
"44 11 LINE",
"44 19 LINE",
"45 36 LINE",
"58 40 LINE",
"69 40 LINE",
"93 40 LINE",
"118 53 LINE",
"130 75 LINE",
"132 103 LINE",
"132 117 LINE",
"134 514 LINE",
"134 538 LINE",
"126 566 LINE",
"109 582 LINE",
"84 591 LINE",
"67 594 LINE",
"53 597 LINE",
"42 601 LINE",
"42 617 LINE",
"42 634 LINE",
"65 637 LINE",
"82 637 LINE",
"119 637 LINE",
"179 628 LINE",
"228 606 LINE",
"266 564 LINE",
"280 531 LINE",
"452 145 LINE",
"455 145 LINE",
"652 631 LINE",
"709 631 LINE",
"739 631 LINE",
"796 632 LINE",
"828 634 LINE",
"838 634 LINE",
"846 620 LINE",
"846 612 LINE",
"845 595 LINE",
"831 591 LINE",
"821 591 LINE",
"797 591 LINE",
"771 578 LINE",
"759 556 LINE",
"756 528 LINE",
"756 514 LINE",
"756 117 LINE",
"756 103 LINE",
"759 75 LINE",
"771 53 LINE",
"797 40 LINE",
"821 40 LINE",
"831 40 LINE",
"845 36 LINE",
"846 19 LINE",
"846 11 LINE",
"838 -3 LINE",
"828 -3 LINE",
"796 -1 LINE",
"738 0 LINE",
"708 0 LINE",
"649 0 LINE",
"585 -3 LINE",
"575 -3 LINE",
"567 11 LINE",
"567 19 LINE",
"568 36 LINE",
"581 40 LINE",
"592 40 LINE",
"616 40 LINE",
"642 53 LINE",
"654 75 LINE",
"657 103 LINE",
"657 117 LINE",
"657 514 LINE",
"654 514 LINE"
);
}
);
};
layerId = UUID0;
paths = (
{
closed = 1;
nodes = (
"436 -5 OFFCURVE",
"445 -2 OFFCURVE",
"448 5 CURVE",
"654 514 LINE",
"657 514 LINE",
"657 117 LINE",
"656 79 OFFCURVE",
"655 40 OFFCURVE",
"592 40 CURVE SMOOTH",
"578 40 OFFCURVE",
"568 42 OFFCURVE",
"567 19 CURVE SMOOTH",
"567 8 OFFCURVE",
"572 -3 OFFCURVE",
"585 -3 CURVE SMOOTH",
"628 -1 OFFCURVE",
"669 0 OFFCURVE",
"708 0 CURVE SMOOTH",
"748 0 OFFCURVE",
"785 -1 OFFCURVE",
"828 -3 CURVE SMOOTH",
"841 -3 OFFCURVE",
"846 8 OFFCURVE",
"846 19 CURVE SMOOTH",
"845 42 OFFCURVE",
"834 40 OFFCURVE",
"821 40 CURVE SMOOTH",
"758 40 OFFCURVE",
"757 79 OFFCURVE",
"756 117 CURVE",
"756 514 LINE",
"757 552 OFFCURVE",
"758 591 OFFCURVE",
"821 591 CURVE SMOOTH",
"834 591 OFFCURVE",
"845 589 OFFCURVE",
"846 612 CURVE SMOOTH",
"846 623 OFFCURVE",
"841 634 OFFCURVE",
"828 634 CURVE SMOOTH",
"785 632 OFFCURVE",
"749 631 OFFCURVE",
"709 631 CURVE SMOOTH",
"652 631 LINE",
"455 145 LINE",
"452 145 LINE",
"280 531 LINE",
"243 620 OFFCURVE",
"180 636 OFFCURVE",
"82 637 CURVE",
"60 637 OFFCURVE",
"42 640 OFFCURVE",
"42 617 CURVE SMOOTH",
"42 596 OFFCURVE",
"48 598 OFFCURVE",
"67 594 CURVE",
"113 585 OFFCURVE",
"134 577 OFFCURVE",
"134 514 CURVE SMOOTH",
"132 117 LINE",
"131 79 OFFCURVE",
"132 40 OFFCURVE",
"69 40 CURVE SMOOTH",
"55 40 OFFCURVE",
"45 42 OFFCURVE",
"44 19 CURVE SMOOTH",
"44 8 OFFCURVE",
"49 -3 OFFCURVE",
"62 -3 CURVE SMOOTH",
"105 -1 OFFCURVE",
"121 0 OFFCURVE",
"161 0 CURVE SMOOTH",
"201 0 OFFCURVE",
"209 -1 OFFCURVE",
"252 -3 CURVE SMOOTH",
"264 -3 OFFCURVE",
"270 8 OFFCURVE",
"270 19 CURVE SMOOTH",
"268 42 OFFCURVE",
"258 40 OFFCURVE",
"244 40 CURVE SMOOTH",
"181 40 OFFCURVE",
"182 79 OFFCURVE",
"181 117 CURVE",
"179 514 LINE",
"182 514 LINE",
"407 5 LINE",
"411 -2 OFFCURVE",
"420 -5 OFFCURVE",
"428 -5 CURVE SMOOTH"
);
}
);
width = 889;
}
);
leftKerningGroup = I;
rightKerningGroup = I;
unicode = 004D;
},
{
glyphname = N;
layers = (
{
anchors = (
{
name = bottom;
position = "{369, 0}";
},
{
name = top;
position = "{369, 631}";
}
);
background = {
paths = (
{
closed = 1;
nodes = (
"182 514 LINE",
"179 514 LINE",
"181 117 LINE",
"181 103 LINE",
"183 75 LINE",
"195 53 LINE",
"220 40 LINE",
"244 40 LINE",
"255 40 LINE",
"269 36 LINE",
"270 19 LINE",
"270 11 LINE",
"261 -3 LINE",
"252 -3 LINE",
"236 -2 LINE",
"213 -1 LINE",
"192 0 LINE",
"170 0 LINE",
"155 0 LINE",
"140 0 LINE",
"119 0 LINE",
"100 -1 LINE",
"78 -2 LINE",
"62 -3 LINE",
"52 -3 LINE",
"44 11 LINE",
"44 19 LINE",
"45 36 LINE",
"58 40 LINE",
"69 40 LINE",
"93 40 LINE",
"118 53 LINE",
"130 75 LINE",
"132 103 LINE",
"132 117 LINE",
"134 514 LINE",
"134 537 LINE",
"126 566 LINE",
"110 582 LINE",
"85 591 LINE",
"67 594 LINE",
"52 597 LINE",
"42 602 LINE",
"42 617 LINE",
"42 634 LINE",
"65 637 LINE",
"82 637 LINE",
"124 637 LINE",
"182 627 LINE",
"228 603 LINE",
"268 562 LINE",
"291 531 LINE",
"565 171 LINE",
"568 171 LINE",
"566 514 LINE",
"566 528 LINE",
"564 556 LINE",
"552 578 LINE",
"527 591 LINE",
"503 591 LINE",
"492 591 LINE",
"479 595 LINE",
"477 612 LINE",
"477 620 LINE",
"486 634 LINE",
"495 634 LINE",
"511 633 LINE",
"534 632 LINE",
"554 631 LINE",
"576 631 LINE",
"591 631 LINE",
"606 631 LINE",
"627 631 LINE",
"647 632 LINE",
"669 633 LINE",
"685 634 LINE",
"695 634 LINE",
"703 620 LINE",
"703 612 LINE",
"702 595 LINE",
"689 591 LINE",
"678 591 LINE",
"654 591 LINE",
"629 578 LINE",
"617 556 LINE",
"615 528 LINE",
"615 514 LINE",
"613 10 LINE",
"612 2 LINE",
"595 -3 LINE",
"588 -3 LINE",
"569 -3 LINE",
"559 10 LINE"
);
}
);
};
layerId = UUID0;
paths = (
{
closed = 1;
nodes = (
"105 -1 OFFCURVE",
"115 0 OFFCURVE",
"155 0 CURVE SMOOTH",
"195 0 OFFCURVE",
"209 -1 OFFCURVE",
"252 -3 CURVE SMOOTH",
"264 -3 OFFCURVE",
"270 8 OFFCURVE",
"270 19 CURVE SMOOTH",
"269 42 OFFCURVE",
"258 40 OFFCURVE",
"244 40 CURVE SMOOTH",
"181 40 OFFCURVE",
"182 79 OFFCURVE",
"181 117 CURVE",
"179 514 LINE",
"182 514 LINE",
"559 10 LINE",
"565 2 OFFCURVE",
"575 -3 OFFCURVE",
"588 -3 CURVE SMOOTH",
"597 -3 OFFCURVE",
"612 -1 OFFCURVE",
"613 10 CURVE",
"615 514 LINE",
"616 552 OFFCURVE",
"615 591 OFFCURVE",
"678 591 CURVE SMOOTH",
"692 591 OFFCURVE",
"702 589 OFFCURVE",
"703 612 CURVE SMOOTH",
"703 623 OFFCURVE",
"698 634 OFFCURVE",
"685 634 CURVE SMOOTH",
"642 632 OFFCURVE",
"631 631 OFFCURVE",
"591 631 CURVE SMOOTH",
"551 631 OFFCURVE",
"538 632 OFFCURVE",
"495 634 CURVE SMOOTH",
"483 634 OFFCURVE",
"477 623 OFFCURVE",
"477 612 CURVE SMOOTH",
"479 589 OFFCURVE",
"489 591 OFFCURVE",
"503 591 CURVE SMOOTH",
"566 591 OFFCURVE",
"565 552 OFFCURVE",
"566 514 CURVE",
"568 171 LINE",
"565 171 LINE",
"291 531 LINE",
"229 615 OFFCURVE",
"193 637 OFFCURVE",
"82 637 CURVE",
"60 637 OFFCURVE",
"42 640 OFFCURVE",
"42 617 CURVE SMOOTH",
"42 597 OFFCURVE",
"47 598 OFFCURVE",
"67 594 CURVE SMOOTH",
"114 585 OFFCURVE",
"134 576 OFFCURVE",
"134 514 CURVE",
"132 117 LINE",
"131 79 OFFCURVE",
"132 40 OFFCURVE",
"69 40 CURVE SMOOTH",
"55 40 OFFCURVE",
"45 42 OFFCURVE",
"44 19 CURVE SMOOTH",
"44 8 OFFCURVE",
"49 -3 OFFCURVE",
"62 -3 CURVE SMOOTH"
);
}
);
width = 737;
}
);
leftKerningGroup = I;
rightKerningGroup = I;
unicode = 004E;
},
{
glyphname = Ntilde;
layers = (
{
background = {
paths = (
{
closed = 1;
nodes = (
"182 514 LINE",
"179 514 LINE",
"181 117 LINE",
"181 103 LINE",
"183 75 LINE",
"195 53 LINE",
"220 40 LINE",
"244 40 LINE",
"255 40 LINE",
"269 36 LINE",
"270 19 LINE",
"270 11 LINE",
"261 -3 LINE",
"252 -3 LINE",
"236 -2 LINE",
"213 -1 LINE",
"192 0 LINE",
"170 0 LINE",
"155 0 LINE",
"140 0 LINE",
"119 0 LINE",
"100 -1 LINE",
"78 -2 LINE",
"62 -3 LINE",
"52 -3 LINE",
"44 11 LINE",
"44 19 LINE",
"45 36 LINE",
"58 40 LINE",
"69 40 LINE",
"93 40 LINE",
"118 53 LINE",
"130 75 LINE",
"132 103 LINE",
"132 117 LINE",
"134 514 LINE",
"134 537 LINE",
"126 566 LINE",
"110 582 LINE",
"85 591 LINE",
"67 594 LINE",
"52 597 LINE",
"42 602 LINE",
"42 617 LINE",
"42 634 LINE",
"65 637 LINE",
"82 637 LINE",
"124 637 LINE",
"182 627 LINE",
"228 603 LINE",
"268 562 LINE",
"291 531 LINE",
"565 171 LINE",
"568 171 LINE",
"566 514 LINE",
"566 528 LINE",
"564 556 LINE",
"552 578 LINE",
"527 591 LINE",
"503 591 LINE",
"492 591 LINE",
"479 595 LINE",
"477 612 LINE",
"477 620 LINE",
"486 634 LINE",
"495 634 LINE",
"511 633 LINE",
"534 632 LINE",
"554 631 LINE",
"576 631 LINE",
"591 631 LINE",
"606 631 LINE",
"627 631 LINE",
"647 632 LINE",
"669 633 LINE",
"685 634 LINE",
"695 634 LINE",
"703 620 LINE",
"703 612 LINE",
"702 595 LINE",
"689 591 LINE",
"678 591 LINE",
"654 591 LINE",
"629 578 LINE",
"617 556 LINE",
"615 528 LINE",
"615 514 LINE",
"613 10 LINE",
"612 2 LINE",
"595 -3 LINE",
"588 -3 LINE",
"569 -3 LINE",
"559 10 LINE"
);
},
{
closed = 1;
nodes = (
"543 779 LINE",
"536 763 LINE",
"516 732 LINE",
"489 707 LINE",
"455 692 LINE",
"435 692 LINE",
"414 692 LINE",
"376 711 LINE",
"343 732 LINE",
"313 750 LINE",
"300 750 LINE",
"288 750 LINE",
"253 731 LINE",
"234 708 LINE",
"229 702 LINE",
"215 700 LINE",
"204 704 LINE",
"198 717 LINE",
"201 726 LINE",
"207 742 LINE",
"228 775 LINE",
"256 801 LINE",
"290 817 LINE",
"311 817 LINE",
"332 817 LINE",
"370 798 LINE",
"403 777 LINE",
"433 759 LINE",
"446 759 LINE",
"458 759 LINE",
"494 779 LINE",
"512 801 LINE",
"518 808 LINE",
"532 810 LINE",
"543 803 LINE",
"547 788 LINE"
);
}
);
};
components = (
{
name = N;
},
{
name = tildecomb.case;
transform = "{1, 0, 0, 1, 159, 0}";
}
);
layerId = UUID0;
width = 737;
}
);
leftKerningGroup = I;
rightKerningGroup = I;
unicode = 00D1;
},
{
glyphname = O;
layers = (
{
anchors = (
{
name = bottom;
position = "{368, 0}";
},
{
name = center;
position = "{368, 316}";
},
{
name = ogonek;
position = "{532, 33}";
},
{
name = top;
position = "{368, 631}";
},
{
name = topleft;
position = "{68, 631}";
},
{
name = topright;
position = "{579, 571}";
}
);
background = {
paths = (
{
closed = 1;
nodes = (
"366 651 LINE",
"441 651 LINE",
"560 597 LINE",
"643 506 LINE",
"688 388 LINE",
"688 325 LINE",
"688 242 LINE",
"629 114 LINE",
"536 26 LINE",
"421 -20 LINE",
"366 -20 LINE",
"292 -20 LINE",
"174 34 LINE",
"92 125 LINE",
"47 243 LINE",
"47 307 LINE",
"47 390 LINE",
"105 518 LINE",
"197 606 LINE",
"311 651 LINE"
);
},
{
closed = 1;
nodes = (
"365 24 LINE",
"418 24 LINE",
"495 73 LINE",
"545 156 LINE",
"569 265 LINE",
"569 325 LINE",
"569 381 LINE",
"544 484 LINE",
"493 562 LINE",
"416 608 LINE",
"365 608 LINE",
"312 608 LINE",
"236 560 LINE",
"187 478 LINE",
"164 370 LINE",
"164 310 LINE",
"164 253 LINE",
"188 150 LINE",
"238 71 LINE",
"314 24 LINE"
);
}
);
};
layerId = UUID0;
paths = (
{
closed = 1;
nodes = (
"513 -20 OFFCURVE",
"688 104 OFFCURVE",
"688 325 CURVE SMOOTH",
"688 494 OFFCURVE",
"565 651 OFFCURVE",
"366 651 CURVE SMOOTH",
"219 651 OFFCURVE",
"47 528 OFFCURVE",
"47 307 CURVE SMOOTH",
"47 137 OFFCURVE",
"170 -20 OFFCURVE",
"366 -20 CURVE SMOOTH"
);
},
{
closed = 1;
nodes = (
"228 24 OFFCURVE",
"164 159 OFFCURVE",
"164 310 CURVE SMOOTH",
"164 469 OFFCURVE",
"224 608 OFFCURVE",
"365 608 CURVE SMOOTH",
"502 608 OFFCURVE",
"569 475 OFFCURVE",
"569 325 CURVE SMOOTH",
"569 165 OFFCURVE",
"506 24 OFFCURVE",
"365 24 CURVE SMOOTH"
);
}
);
width = 735;
}
);
leftKerningGroup = O;
rightKerningGroup = O;
unicode = 004F;
},
{
glyphname = Oacute;
layers = (
{
background = {
paths = (
{
closed = 1;
nodes = (
"366 651 LINE",
"441 651 LINE",
"560 597 LINE",
"643 506 LINE",
"688 388 LINE",
"688 325 LINE",
"688 242 LINE",
"629 114 LINE",
"536 26 LINE",
"421 -20 LINE",
"366 -20 LINE",
"292 -20 LINE",
"174 34 LINE",
"92 125 LINE",
"47 243 LINE",
"47 307 LINE",
"47 390 LINE",
"105 518 LINE",
"197 606 LINE",
"311 651 LINE"
);
},
{
closed = 1;
nodes = (
"365 24 LINE",
"418 24 LINE",
"495 73 LINE",
"545 156 LINE",
"569 265 LINE",
"569 325 LINE",
"569 381 LINE",
"544 484 LINE",
"493 562 LINE",
"416 608 LINE",
"365 608 LINE",
"312 608 LINE",
"236 560 LINE",
"187 478 LINE",
"164 370 LINE",
"164 310 LINE",
"164 253 LINE",
"188 150 LINE",
"238 71 LINE",
"314 24 LINE"
);
},
{
closed = 1;
nodes = (
"353 681 LINE",
"345 677 LINE",
"330 682 LINE",
"320 694 LINE",
"318 709 LINE",
"324 715 LINE",
"332 723 LINE",
"357 748 LINE",
"386 776 LINE",
"416 803 LINE",
"430 814 LINE",
"452 831 LINE",
"487 843 LINE",
"504 824 LINE",
"521 804 LINE",
"500 770 LINE",
"477 755 LINE",
"445 735 LINE",
"383 697 LINE"
);
}
);
};
components = (
{
name = O;
},
{
name = acutecomb.case;
transform = "{1, 0, 0, 1, 283, 0}";
}
);
layerId = UUID0;
width = 735;
}
);
leftKerningGroup = O;
rightKerningGroup = O;
unicode = 00D3;
},
{
glyphname = Ocircumflex;
layers = (
{
background = {
paths = (
{
closed = 1;
nodes = (
"366 651 LINE",
"441 651 LINE",
"560 597 LINE",
"643 506 LINE",
"688 388 LINE",
"688 325 LINE",
"688 242 LINE",
"629 114 LINE",
"536 26 LINE",
"421 -20 LINE",
"366 -20 LINE",
"292 -20 LINE",
"174 34 LINE",
"92 125 LINE",
"47 243 LINE",
"47 307 LINE",
"47 390 LINE",
"105 518 LINE",
"197 606 LINE",
"311 651 LINE"
);
},
{
closed = 1;
nodes = (
"365 24 LINE",
"418 24 LINE",
"495 73 LINE",
"545 156 LINE",
"569 265 LINE",
"569 325 LINE",
"569 381 LINE",
"544 484 LINE",
"493 562 LINE",
"416 608 LINE",
"365 608 LINE",
"312 608 LINE",
"236 560 LINE",
"187 478 LINE",
"164 370 LINE",
"164 310 LINE",
"164 253 LINE",
"188 150 LINE",
"238 71 LINE",
"314 24 LINE"
);
},
{
closed = 1;
nodes = (
"351 821 LINE",
"364 830 LINE",
"375 830 LINE",
"387 830 LINE",
"399 821 LINE",
"526 728 LINE",
"532 723 LINE",
"536 711 LINE",
"532 700 LINE",
"522 692 LINE",
"515 693 LINE",
"483 701 LINE",
"410 740 LINE",
"375 758 LINE",
"340 740 LINE",
"267 701 LINE",
"235 693 LINE",
"227 692 LINE",
"218 700 LINE",
"214 711 LINE",
"218 723 LINE",
"224 728 LINE"
);
}
);
};
components = (
{
name = O;
},
{
name = circumflexcomb.case;
transform = "{1, 0, 0, 1, 180, 0}";
}
);
layerId = UUID0;
width = 735;
}
);
leftKerningGroup = O;
rightKerningGroup = O;
unicode = 00D4;
},
{
glyphname = Odieresis;
layers = (
{
background = {
paths = (
{
closed = 1;
nodes = (
"366 651 LINE",
"441 651 LINE",
"560 597 LINE",
"643 506 LINE",
"688 388 LINE",
"688 325 LINE",
"688 242 LINE",
"629 114 LINE",
"536 26 LINE",
"421 -20 LINE",
"366 -20 LINE",
"292 -20 LINE",
"174 34 LINE",
"92 125 LINE",
"47 243 LINE",
"47 307 LINE",
"47 390 LINE",
"105 518 LINE",
"197 606 LINE",
"311 651 LINE"
);
},
{
closed = 1;
nodes = (
"365 24 LINE",
"418 24 LINE",
"495 73 LINE",
"545 156 LINE",
"569 265 LINE",
"569 325 LINE",
"569 381 LINE",
"544 484 LINE",
"493 562 LINE",
"416 608 LINE",
"365 608 LINE",
"312 608 LINE",
"236 560 LINE",
"187 478 LINE",
"164 370 LINE",
"164 310 LINE",
"164 253 LINE",
"188 150 LINE",
"238 71 LINE",
"314 24 LINE"
);
},
{
closed = 1;
nodes = (
"283 829 LINE",
"309 829 LINE",
"343 795 LINE",
"343 769 LINE",
"343 745 LINE",
"308 709 LINE",
"282 709 LINE",
"256 709 LINE",
"220 745 LINE",
"220 769 LINE",
"220 795 LINE",
"257 829 LINE"
);
},
{
closed = 1;
nodes = (
"475 829 LINE",
"501 829 LINE",
"535 795 LINE",
"535 769 LINE",
"535 745 LINE",
"500 709 LINE",
"474 709 LINE",
"448 709 LINE",
"412 745 LINE",
"412 769 LINE",
"412 795 LINE",
"449 829 LINE"
);
}
);
};
components = (
{
name = O;
},
{
name = dieresiscomb.case;
transform = "{1, 0, 0, 1, 174, 0}";
}
);
layerId = UUID0;
width = 735;
}
);
leftKerningGroup = O;
rightKerningGroup = O;
unicode = 00D6;
},
{
glyphname = Ograve;
layers = (
{
background = {
paths = (
{
closed = 1;
nodes = (
"366 651 LINE",
"441 651 LINE",
"560 597 LINE",
"643 506 LINE",
"688 388 LINE",
"688 325 LINE",
"688 242 LINE",
"629 114 LINE",
"536 26 LINE",
"421 -20 LINE",
"366 -20 LINE",
"292 -20 LINE",
"174 34 LINE",
"92 125 LINE",
"47 243 LINE",
"47 307 LINE",
"47 390 LINE",
"105 518 LINE",
"197 606 LINE",
"311 651 LINE"
);
},
{
closed = 1;
nodes = (
"365 24 LINE",
"418 24 LINE",
"495 73 LINE",
"545 156 LINE",
"569 265 LINE",
"569 325 LINE",
"569 381 LINE",
"544 484 LINE",
"493 562 LINE",
"416 608 LINE",
"365 608 LINE",
"312 608 LINE",
"236 560 LINE",
"187 478 LINE",
"164 370 LINE",
"164 310 LINE",
"164 253 LINE",
"188 150 LINE",
"238 71 LINE",
"314 24 LINE"
);
},
{
closed = 1;
nodes = (
"375 681 LINE",
"345 697 LINE",
"283 735 LINE",
"251 755 LINE",
"228 770 LINE",
"207 804 LINE",
"224 824 LINE",
"241 843 LINE",
"276 831 LINE",
"298 814 LINE",
"312 803 LINE",
"342 776 LINE",
"371 748 LINE",
"396 723 LINE",
"404 715 LINE",
"410 709 LINE",
"408 694 LINE",
"398 682 LINE",
"383 677 LINE"
);
}
);
};
components = (
{
name = O;
},
{
name = gravecomb.case;
transform = "{1, 0, 0, 1, 160, 0}";
}
);
layerId = UUID0;
width = 735;
}
);
leftKerningGroup = O;
rightKerningGroup = O;
unicode = 00D2;
},
{
glyphname = Oslash;
layers = (
{
background = {
paths = (
{
closed = 1;
nodes = (
"599 554 LINE",
"642 508 LINE",
"688 389 LINE",
"688 325 LINE",
"688 242 LINE",
"629 114 LINE",
"536 26 LINE",
"421 -20 LINE",
"366 -20 LINE",
"302 -20 LINE",
"198 21 LINE",
"157 56 LINE",
"103 -5 LINE",
"97 -12 LINE",
"79 -11 LINE",
"74 -6 LINE",
"68 -1 LINE",
"67 14 LINE",
"72 19 LINE",
"129 84 LINE",
"89 129 LINE",
"47 244 LINE",
"47 307 LINE",
"47 390 LINE",
"105 518 LINE",
"197 606 LINE",
"311 651 LINE",
"366 651 LINE",
"428 651 LINE",
"530 613 LINE",
"570 580 LINE",
"627 644 LINE",
"633 651 LINE",
"651 650 LINE",
"656 645 LINE",
"662 640 LINE",
"663 625 LINE",
"658 620 LINE"
);
},
{
closed = 1;
nodes = (
"365 24 LINE",
"418 24 LINE",
"495 73 LINE",
"545 156 LINE",
"569 265 LINE",
"569 325 LINE",
"569 369 LINE",
"554 450 LINE",
"538 485 LINE",
"210 115 LINE",
"235 73 LINE",
"311 24 LINE"
);
},
{
closed = 1;
nodes = (
"164 310 LINE",
"164 222 LINE",
"191 153 LINE",
"519 522 LINE",
"493 562 LINE",
"417 608 LINE",
"365 608 LINE",
"312 608 LINE",
"236 560 LINE",
"187 478 LINE",
"164 370 LINE"
);
}
);
};
layerId = UUID0;
paths = (
{
closed = 1;
nodes = (
"513 -20 OFFCURVE",
"688 104 OFFCURVE",
"688 325 CURVE SMOOTH",
"688 410 OFFCURVE",
"656 493 OFFCURVE",
"599 554 CURVE",
"658 620 LINE SMOOTH",
"664 627 OFFCURVE",
"664 639 OFFCURVE",
"656 645 CURVE SMOOTH",
"649 651 OFFCURVE",
"635 653 OFFCURVE",
"627 644 CURVE SMOOTH",
"570 580 LINE",
"517 624 OFFCURVE",
"448 651 OFFCURVE",
"366 651 CURVE SMOOTH",
"219 651 OFFCURVE",
"47 528 OFFCURVE",
"47 307 CURVE SMOOTH",
"47 224 OFFCURVE",
"76 144 OFFCURVE",
"129 84 CURVE",
"72 19 LINE SMOOTH",
"66 12 OFFCURVE",
"66 0 OFFCURVE",
"74 -6 CURVE SMOOTH",
"81 -12 OFFCURVE",
"95 -14 OFFCURVE",
"103 -5 CURVE SMOOTH",
"157 56 LINE",
"211 9 OFFCURVE",
"281 -20 OFFCURVE",
"366 -20 CURVE SMOOTH"
);
},
{
closed = 1;
nodes = (
"294 24 OFFCURVE",
"243 60 OFFCURVE",
"210 115 CURVE",
"538 485 LINE",
"559 439 OFFCURVE",
"569 383 OFFCURVE",
"569 325 CURVE SMOOTH",
"569 165 OFFCURVE",
"506 24 OFFCURVE",
"365 24 CURVE SMOOTH"
);
},
{
closed = 1;
nodes = (
"173 199 OFFCURVE",
"164 253 OFFCURVE",
"164 310 CURVE SMOOTH",
"164 469 OFFCURVE",
"224 608 OFFCURVE",
"365 608 CURVE SMOOTH",
"434 608 OFFCURVE",
"485 575 OFFCURVE",
"519 522 CURVE",
"191 153 LINE"
);
}
);
width = 735;
}
);
leftKerningGroup = O;
rightKerningGroup = O;
unicode = 00D8;
},
{
glyphname = Otilde;
layers = (
{
background = {
paths = (
{
closed = 1;
nodes = (
"366 651 LINE",
"441 651 LINE",
"560 597 LINE",
"643 506 LINE",
"688 388 LINE",
"688 325 LINE",
"688 242 LINE",
"629 114 LINE",
"536 26 LINE",
"421 -20 LINE",
"366 -20 LINE",
"292 -20 LINE",
"174 34 LINE",
"92 125 LINE",
"47 243 LINE",
"47 307 LINE",
"47 390 LINE",
"105 518 LINE",
"197 606 LINE",
"311 651 LINE"
);
},
{
closed = 1;
nodes = (
"365 24 LINE",
"418 24 LINE",
"495 73 LINE",
"545 156 LINE",
"569 265 LINE",
"569 325 LINE",
"569 381 LINE",
"544 484 LINE",
"493 562 LINE",
"416 608 LINE",
"365 608 LINE",
"312 608 LINE",
"236 560 LINE",
"187 478 LINE",
"164 370 LINE",
"164 310 LINE",
"164 253 LINE",
"188 150 LINE",
"238 71 LINE",
"314 24 LINE"
);
},
{
closed = 1;
nodes = (
"539 788 LINE",
"532 772 LINE",
"512 741 LINE",
"485 716 LINE",
"451 701 LINE",
"431 701 LINE",
"410 701 LINE",
"372 720 LINE",
"339 741 LINE",
"309 759 LINE",
"296 759 LINE",
"284 759 LINE",
"249 740 LINE",
"230 717 LINE",
"225 711 LINE",
"211 709 LINE",
"200 713 LINE",
"194 726 LINE",
"197 735 LINE",
"203 751 LINE",
"224 784 LINE",
"252 810 LINE",
"286 826 LINE",
"307 826 LINE",
"328 826 LINE",
"366 807 LINE",
"399 786 LINE",
"429 768 LINE",
"442 768 LINE",
"454 768 LINE",
"490 788 LINE",
"508 810 LINE",
"514 817 LINE",
"528 819 LINE",
"539 812 LINE",
"543 797 LINE"
);
}
);
};
components = (
{
name = O;
},
{
name = tildecomb.case;
transform = "{1, 0, 0, 1, 158, 0}";
}
);
layerId = UUID0;
width = 735;
}
);
leftKerningGroup = O;
rightKerningGroup = O;
unicode = 00D5;
},
{
glyphname = OE;
layers = (
{
background = {
paths = (
{
closed = 1;
nodes = (
"907 631 LINE",
"918 631 LINE",
"933 621 LINE",
"933 607 LINE",
"936 467 LINE",
"936 457 LINE",
"917 447 LINE",
"909 447 LINE",
"898 447 LINE",
"880 456 LINE",
"878 465 LINE",
"873 499 LINE",
"860 546 LINE",
"839 576 LINE",
"806 590 LINE",
"780 591 LINE",
"646 591 LINE",
"646 337 LINE",
"827 337 LINE",
"835 336 LINE",
"842 322 LINE",
"842 314 LINE",
"842 306 LINE",
"835 294 LINE",
"827 294 LINE",
"646 294 LINE",
"646 105 LINE",
"647 95 LINE",
"649 72 LINE",
"662 52 LINE",
"690 39 LINE",
"716 40 LINE",
"808 40 LINE",
"834 41 LINE",
"867 52 LINE",
"889 79 LINE",
"905 123 LINE",
"915 156 LINE",
"919 166 LINE",
"938 172 LINE",
"949 170 LINE",
"957 168 LINE",
"974 157 LINE",
"973 147 LINE",
"953 21 LINE",
"950 7 LINE",
"937 0 LINE",
"924 0 LINE",
"389 0 LINE",
"318 0 LINE",
"194 44 LINE",
"102 126 LINE",
"49 245 LINE",
"49 319 LINE",
"49 399 LINE",
"112 517 LINE",
"212 594 LINE",
"339 631 LINE",
"404 631 LINE"
);
},
{
closed = 1;
nodes = (
"403 591 LINE",
"355 591 LINE",
"269 562 LINE",
"205 498 LINE",
"167 394 LINE",
"167 318 LINE",
"167 255 LINE",
"202 153 LINE",
"266 80 LINE",
"356 40 LINE",
"411 40 LINE",
"482 40 LINE",
"506 40 LINE",
"532 53 LINE",
"544 75 LINE",
"547 103 LINE",
"547 117 LINE",
"547 514 LINE",
"547 528 LINE",
"544 556 LINE",
"532 578 LINE",
"506 591 LINE",
"482 591 LINE"
);
}
);
};
layerId = UUID0;
paths = (
{
closed = 1;
nodes = (
"924 0 LINE SMOOTH",
"941 0 OFFCURVE",
"949 2 OFFCURVE",
"953 21 CURVE",
"973 147 LINE",
"974 160 OFFCURVE",
"960 168 OFFCURVE",
"949 170 CURVE SMOOTH",
"934 172 OFFCURVE",
"920 169 OFFCURVE",
"915 156 CURVE",
"889 68 OFFCURVE",
"878 42 OFFCURVE",
"808 40 CURVE",
"716 40 LINE",
"647 38 OFFCURVE",
"648 79 OFFCURVE",
"646 105 CURVE",
"646 294 LINE",
"827 294 LINE SMOOTH",
"837 294 OFFCURVE",
"842 304 OFFCURVE",
"842 314 CURVE SMOOTH",
"842 325 OFFCURVE",
"837 336 OFFCURVE",
"827 337 CURVE",
"646 337 LINE",
"646 591 LINE",
"780 591 LINE",
"849 589 OFFCURVE",
"864 555 OFFCURVE",
"878 465 CURVE SMOOTH",
"880 453 OFFCURVE",
"894 447 OFFCURVE",
"909 447 CURVE SMOOTH",
"920 447 OFFCURVE",
"936 454 OFFCURVE",
"936 467 CURVE SMOOTH",
"933 607 LINE SMOOTH",
"933 626 OFFCURVE",
"922 631 OFFCURVE",
"907 631 CURVE SMOOTH",
"404 631 LINE",
"232 631 OFFCURVE",
"49 533 OFFCURVE",
"49 319 CURVE SMOOTH",
"49 121 OFFCURVE",
"199 0 OFFCURVE",
"389 0 CURVE SMOOTH"
);
},
{
closed = 1;
nodes = (
"264 40 OFFCURVE",
"167 151 OFFCURVE",
"167 318 CURVE SMOOTH",
"167 520 OFFCURVE",
"275 591 OFFCURVE",
"403 591 CURVE",
"482 591 LINE",
"545 591 OFFCURVE",
"546 552 OFFCURVE",
"547 514 CURVE",
"547 117 LINE",
"546 79 OFFCURVE",
"545 40 OFFCURVE",
"482 40 CURVE",
"411 40 LINE"
);
}
);
width = 1008;
}
);
leftKerningGroup = O;
rightKerningGroup = E;
unicode = 0152;
},
{
glyphname = P;
layers = (
{
background = {
paths = (
{
closed = 1;
nodes = (
"330 631 LINE",
"346 631 LINE",
"395 628 LINE",
"450 616 LINE",
"506 592 LINE",
"552 552 LINE",
"580 493 LINE",
"580 451 LINE",
"580 404 LINE",
"537 328 LINE",
"466 274 LINE",
"377 245 LINE",
"331 245 LINE",
"308 245 LINE",
"257 251 LINE",
"231 261 LINE",
"231 117 LINE",
"231 103 LINE",
"234 75 LINE",
"246 53 LINE",
"272 40 LINE",
"296 40 LINE",
"307 40 LINE",
"321 36 LINE",
"322 19 LINE",
"322 11 LINE",
"313 -3 LINE",
"304 -3 LINE",
"239 0 LINE",
"179 0 LINE",
"149 0 LINE",
"92 -1 LINE",
"60 -3 LINE",
"51 -3 LINE",
"42 11 LINE",
"42 19 LINE",
"43 36 LINE",
"57 40 LINE",
"68 40 LINE",
"92 40 LINE",
"118 53 LINE",
"130 75 LINE",
"133 103 LINE",
"133 117 LINE",
"133 514 LINE",
"133 528 LINE",
"130 556 LINE",
"118 578 LINE",
"92 591 LINE",
"68 591 LINE",
"57 591 LINE",
"43 595 LINE",
"42 612 LINE",
"42 620 LINE",
"51 634 LINE",
"60 634 LINE",
"92 632 LINE",
"150 631 LINE",
"180 631 LINE"
);
},
{
closed = 1;
nodes = (
"231 301 LINE",
"241 296 LINE",
"279 290 LINE",
"302 290 LINE",
"325 290 LINE",
"383 304 LINE",
"434 340 LINE",
"469 401 LINE",
"469 448 LINE",
"469 499 LINE",
"428 557 LINE",
"371 587 LINE",
"312 594 LINE",
"294 594 LINE",
"276 594 LINE",
"251 589 LINE",
"237 573 LINE",
"231 542 LINE",
"231 517 LINE"
);
}
);
};
layerId = UUID0;
paths = (
{
closed = 1;
nodes = (
"103 -1 OFFCURVE",
"139 0 OFFCURVE",
"179 0 CURVE SMOOTH",
"219 0 OFFCURVE",
"261 -1 OFFCURVE",
"304 -3 CURVE SMOOTH",
"316 -3 OFFCURVE",
"322 8 OFFCURVE",
"322 19 CURVE SMOOTH",
"321 42 OFFCURVE",
"310 40 OFFCURVE",
"296 40 CURVE SMOOTH",
"233 40 OFFCURVE",
"232 79 OFFCURVE",
"231 117 CURVE",
"231 261 LINE",
"266 248 OFFCURVE",
"301 245 OFFCURVE",
"331 245 CURVE SMOOTH",
"454 245 OFFCURVE",
"580 326 OFFCURVE",
"580 451 CURVE SMOOTH",
"580 619 OFFCURVE",
"392 631 OFFCURVE",
"330 631 CURVE SMOOTH",
"180 631 LINE SMOOTH",
"140 631 OFFCURVE",
"103 632 OFFCURVE",
"60 634 CURVE SMOOTH",
"48 634 OFFCURVE",
"42 623 OFFCURVE",
"42 612 CURVE SMOOTH",
"43 589 OFFCURVE",
"54 591 OFFCURVE",
"68 591 CURVE SMOOTH",
"131 591 OFFCURVE",
"132 552 OFFCURVE",
"133 514 CURVE",
"133 117 LINE",
"132 79 OFFCURVE",
"131 40 OFFCURVE",
"68 40 CURVE SMOOTH",
"54 40 OFFCURVE",
"43 42 OFFCURVE",
"42 19 CURVE SMOOTH",
"42 8 OFFCURVE",
"48 -3 OFFCURVE",
"60 -3 CURVE SMOOTH"
);
},
{
closed = 1;
nodes = (
"271 290 OFFCURVE",
"244 295 OFFCURVE",
"231 301 CURVE",
"231 517 LINE SMOOTH",
"231 585 OFFCURVE",
"245 594 OFFCURVE",
"294 594 CURVE SMOOTH",
"342 594 OFFCURVE",
"469 584 OFFCURVE",
"469 448 CURVE SMOOTH",
"469 323 OFFCURVE",
"363 290 OFFCURVE",
"302 290 CURVE SMOOTH"
);
}
);
width = 604;
}
);
leftKerningGroup = I;
rightKerningGroup = P;
unicode = 0050;
},
{
glyphname = Thorn;
layers = (
{
anchors = (
{
name = bottom;
position = "{303, 0}";
},
{
name = top;
position = "{179, 631}";
}
);
background = {
paths = (
{
closed = 1;
nodes = (
"231 117 LINE",
"231 103 LINE",
"234 75 LINE",
"246 53 LINE",
"272 40 LINE",
"296 40 LINE",
"307 40 LINE",
"320 36 LINE",
"322 19 LINE",
"322 11 LINE",
"313 -3 LINE",
"304 -3 LINE",
"239 0 LINE",
"180 0 LINE",
"150 0 LINE",
"92 -1 LINE",
"60 -3 LINE",
"50 -3 LINE",
"42 11 LINE",
"42 19 LINE",
"43 36 LINE",
"57 40 LINE",
"67 40 LINE",
"91 40 LINE",
"117 53 LINE",
"129 75 LINE",
"132 103 LINE",
"133 117 LINE",
"133 514 LINE",
"132 528 LINE",
"129 556 LINE",
"117 578 LINE",
"91 591 LINE",
"67 591 LINE",
"57 591 LINE",
"43 595 LINE",
"42 612 LINE",
"42 620 LINE",
"50 634 LINE",
"60 634 LINE",
"92 632 LINE",
"149 631 LINE",
"179 631 LINE",
"239 631 LINE",
"304 634 LINE",
"313 634 LINE",
"322 620 LINE",
"322 612 LINE",
"320 595 LINE",
"307 591 LINE",
"296 591 LINE",
"274 591 LINE",
"248 579 LINE",
"235 560 LINE",
"231 535 LINE",
"231 522 LINE",
"331 522 LINE",
"361 522 LINE",
"446 508 LINE",
"524 469 LINE",
"580 395 LINE",
"580 335 LINE",
"580 287 LINE",
"537 213 LINE",
"466 162 LINE",
"376 135 LINE",
"329 135 LINE",
"303 135 LINE",
"254 143 LINE",
"231 152 LINE"
);
},
{
closed = 1;
nodes = (
"231 476 LINE",
"231 191 LINE",
"253 181 LINE",
"302 181 LINE",
"325 181 LINE",
"383 193 LINE",
"434 226 LINE",
"469 285 LINE",
"469 332 LINE",
"469 380 LINE",
"434 436 LINE",
"383 466 LINE",
"326 475 LINE",
"303 476 LINE"
);
}
);
};
layerId = UUID0;
paths = (
{
closed = 1;
nodes = (
"103 -1 OFFCURVE",
"140 0 OFFCURVE",
"180 0 CURVE SMOOTH",
"220 0 OFFCURVE",
"261 -1 OFFCURVE",
"304 -3 CURVE SMOOTH",
"316 -3 OFFCURVE",
"322 8 OFFCURVE",
"322 19 CURVE",
"320 42 OFFCURVE",
"310 40 OFFCURVE",
"296 40 CURVE SMOOTH",
"233 40 OFFCURVE",
"232 79 OFFCURVE",
"231 117 CURVE SMOOTH",
"231 152 LINE",
"262 140 OFFCURVE",
"295 135 OFFCURVE",
"329 135 CURVE SMOOTH",
"454 136 OFFCURVE",
"580 207 OFFCURVE",
"580 335 CURVE SMOOTH",
"580 496 OFFCURVE",
"410 521 OFFCURVE",
"331 522 CURVE",
"231 522 LINE",
"232 557 OFFCURVE",
"237 591 OFFCURVE",
"296 591 CURVE SMOOTH",
"310 591 OFFCURVE",
"320 589 OFFCURVE",
"322 612 CURVE",
"322 623 OFFCURVE",
"316 634 OFFCURVE",
"304 634 CURVE SMOOTH",
"261 632 OFFCURVE",
"219 631 OFFCURVE",
"179 631 CURVE SMOOTH",
"139 631 OFFCURVE",
"103 632 OFFCURVE",
"60 634 CURVE SMOOTH",
"47 634 OFFCURVE",
"42 623 OFFCURVE",
"42 612 CURVE SMOOTH",
"43 589 OFFCURVE",
"54 591 OFFCURVE",
"67 591 CURVE SMOOTH",
"130 591 OFFCURVE",
"131 552 OFFCURVE",
"133 514 CURVE",
"133 117 LINE",
"131 79 OFFCURVE",
"130 40 OFFCURVE",
"67 40 CURVE SMOOTH",
"54 40 OFFCURVE",
"43 42 OFFCURVE",
"42 19 CURVE SMOOTH",
"42 8 OFFCURVE",
"47 -3 OFFCURVE",
"60 -3 CURVE SMOOTH"
);
},
{
closed = 1;
nodes = (
"271 181 OFFCURVE",
"244 185 OFFCURVE",
"231 191 CURVE",
"231 476 LINE",
"303 476 LINE",
"364 474 OFFCURVE",
"469 459 OFFCURVE",
"469 332 CURVE SMOOTH",
"469 207 OFFCURVE",
"363 181 OFFCURVE",
"302 181 CURVE SMOOTH"
);
}
);
width = 606;
}
);
leftKerningGroup = I;
rightKerningGroup = P;
unicode = 00DE;
},
{
glyphname = Q;
layers = (
{
background = {
paths = (
{
closed = 1;
nodes = (
"735 -150 LINE",
"754 -148 LINE",
"770 -128 LINE",
"770 -115 LINE",
"770 -92 LINE",
"735 -50 LINE",
"704 -49 LINE",
"701 -35 LINE",
"729 -3 LINE",
"761 -3 LINE",
"769 -3 LINE",
"793 -12 LINE",
"816 -31 LINE",
"832 -62 LINE",
"832 -83 LINE",
"832 -106 LINE",
"807 -148 LINE",
"768 -180 LINE",
"720 -199 LINE",
"696 -200 LINE",
"645 -200 LINE",
"572 -167 LINE",
"509 -119 LINE",
"444 -64 LINE",
"401 -42 LINE",
"383 -33 LINE",
"348 -21 LINE",
"325 -16 LINE",
"281 -6 LINE",
"200 23 LINE",
"172 45 LINE",
"112 91 LINE",
"48 229 LINE",
"48 307 LINE",
"48 390 LINE",
"106 518 LINE",
"198 606 LINE",
"312 651 LINE",
"367 651 LINE",
"442 651 LINE",
"562 597 LINE",
"645 506 LINE",
"690 388 LINE",
"690 325 LINE",
"690 268 LINE",
"659 168 LINE",
"605 87 LINE",
"529 27 LINE",
"484 9 LINE",
"479 7 LINE",
"460 2 LINE",
"443 1 LINE",
"443 -1 LINE",
"470 -4 LINE",
"492 -15 LINE",
"529 -33 LINE",
"594 -80 LINE",
"653 -122 LINE",
"708 -150 LINE"
);
},
{
closed = 1;
nodes = (
"366 21 LINE",
"419 21 LINE",
"497 71 LINE",
"547 155 LINE",
"571 265 LINE",
"571 325 LINE",
"571 381 LINE",
"546 484 LINE",
"495 562 LINE",
"418 608 LINE",
"366 608 LINE",
"313 608 LINE",
"237 560 LINE",
"189 478 LINE",
"166 370 LINE",
"166 310 LINE",
"166 253 LINE",
"190 149 LINE",
"240 69 LINE",
"315 21 LINE"
);
}
);
};
layerId = UUID0;
paths = (
{
closed = 1;
nodes = (
"760 -198 OFFCURVE",
"832 -145 OFFCURVE",
"832 -83 CURVE SMOOTH",
"832 -26 OFFCURVE",
"783 -3 OFFCURVE",
"761 -3 CURVE SMOOTH",
"718 -3 OFFCURVE",
"700 -30 OFFCURVE",
"704 -49 CURVE",
"745 -50 OFFCURVE",
"770 -85 OFFCURVE",
"770 -115 CURVE SMOOTH",
"770 -132 OFFCURVE",
"760 -147 OFFCURVE",
"735 -150 CURVE",
"663 -150 OFFCURVE",
"590 -64 OFFCURVE",
"492 -15 CURVE SMOOTH",
"478 -8 OFFCURVE",
"460 -3 OFFCURVE",
"443 -1 CURVE",
"443 1 LINE",
"465 2 OFFCURVE",
"477 6 OFFCURVE",
"484 9 CURVE SMOOTH",
"604 57 OFFCURVE",
"690 172 OFFCURVE",
"690 325 CURVE SMOOTH",
"690 494 OFFCURVE",
"567 651 OFFCURVE",
"367 651 CURVE SMOOTH",
"220 651 OFFCURVE",
"48 528 OFFCURVE",
"48 307 CURVE SMOOTH",
"48 203 OFFCURVE",
"93 106 OFFCURVE",
"172 45 CURVE SMOOTH",
"209 16 OFFCURVE",
"267 -3 OFFCURVE",
"325 -16 CURVE SMOOTH",
"356 -23 OFFCURVE",
"377 -30 OFFCURVE",
"401 -42 CURVE SMOOTH",
"516 -101 OFFCURVE",
"560 -200 OFFCURVE",
"696 -200 CURVE"
);
},
{
closed = 1;
nodes = (
"230 21 OFFCURVE",
"166 159 OFFCURVE",
"166 310 CURVE SMOOTH",
"166 469 OFFCURVE",
"225 608 OFFCURVE",
"366 608 CURVE SMOOTH",
"504 608 OFFCURVE",
"571 475 OFFCURVE",
"571 325 CURVE SMOOTH",
"571 165 OFFCURVE",
"508 21 OFFCURVE",
"366 21 CURVE SMOOTH"
);
}
);
width = 737;
}
);
leftKerningGroup = O;
rightKerningGroup = O;
unicode = 0051;
},
{
glyphname = R;
layers = (
{
background = {
paths = (
{
closed = 1;
nodes = (
"302 594 LINE",
"281 594 LINE",
"253 587 LINE",
"238 568 LINE",
"232 536 LINE",
"232 511 LINE",
"232 319 LINE",
"320 319 LINE",
"371 319 LINE",
"430 348 LINE",
"460 390 LINE",
"469 439 LINE",
"469 459 LINE",
"469 483 LINE",
"453 532 LINE",
"415 570 LINE",
"351 594 LINE"
);
},
{
closed = 1;
nodes = (
"418 301 LINE",
"456 241 LINE",
"534 120 LINE",
"585 67 LINE",
"599 56 LINE",
"626 42 LINE",
"645 40 LINE",
"653 39 LINE",
"669 36 LINE",
"670 19 LINE",
"670 11 LINE",
"662 -3 LINE",
"652 -3 LINE",
"636 -2 LINE",
"615 -1 LINE",
"597 0 LINE",
"577 0 LINE",
"562 0 LINE",
"520 8 LINE",
"464 49 LINE",
"437 87 LINE",
"409 125 LINE",
"361 202 LINE",
"338 240 LINE",
"331 250 LINE",
"319 266 LINE",
"303 275 LINE",
"279 280 LINE",
"261 280 LINE",
"232 280 LINE",
"232 117 LINE",
"232 103 LINE",
"235 75 LINE",
"247 53 LINE",
"273 40 LINE",
"297 40 LINE",
"307 40 LINE",
"321 36 LINE",
"322 19 LINE",
"322 11 LINE",
"314 -3 LINE",
"304 -3 LINE",
"239 0 LINE",
"179 0 LINE",
"149 0 LINE",
"93 -1 LINE",
"61 -3 LINE",
"51 -3 LINE",
"43 11 LINE",
"43 19 LINE",
"44 36 LINE",
"57 40 LINE",
"68 40 LINE",
"92 40 LINE",
"118 53 LINE",
"130 75 LINE",
"133 103 LINE",
"133 117 LINE",
"133 513 LINE",
"133 527 LINE",
"130 555 LINE",
"118 577 LINE",
"92 591 LINE",
"68 591 LINE",
"57 591 LINE",
"44 595 LINE",
"43 612 LINE",
"43 620 LINE",
"51 634 LINE",
"61 634 LINE",
"93 632 LINE",
"150 631 LINE",
"180 631 LINE",
"352 631 LINE",
"413 630 LINE",
"499 601 LINE",
"554 556 LINE",
"580 498 LINE",
"580 468 LINE",
"580 441 LINE",
"558 390 LINE",
"516 346 LINE",
"456 311 LINE"
);
}
);
};
layerId = UUID0;
paths = (
{
closed = 1;
nodes = (
"104 -1 OFFCURVE",
"139 0 OFFCURVE",
"179 0 CURVE SMOOTH",
"219 0 OFFCURVE",
"261 -1 OFFCURVE",
"304 -3 CURVE SMOOTH",
"317 -3 OFFCURVE",
"322 8 OFFCURVE",
"322 19 CURVE SMOOTH",
"321 42 OFFCURVE",
"310 40 OFFCURVE",
"297 40 CURVE SMOOTH",
"234 40 OFFCURVE",
"233 79 OFFCURVE",
"232 117 CURVE",
"232 280 LINE",
"261 280 LINE SMOOTH",
"310 280 OFFCURVE",
"320 268 OFFCURVE",
"338 240 CURVE",
"369 190 OFFCURVE",
"400 137 OFFCURVE",
"437 87 CURVE SMOOTH",
"473 37 OFFCURVE",
"507 11 OFFCURVE",
"562 0 CURVE",
"602 0 OFFCURVE",
"609 -1 OFFCURVE",
"652 -3 CURVE SMOOTH",
"665 -3 OFFCURVE",
"670 8 OFFCURVE",
"670 19 CURVE SMOOTH",
"669 41 OFFCURVE",
"656 39 OFFCURVE",
"645 40 CURVE SMOOTH",
"620 43 OFFCURVE",
"603 52 OFFCURVE",
"585 67 CURVE SMOOTH",
"517 137 OFFCURVE",
"468 221 OFFCURVE",
"418 301 CURVE SMOOTH",
"520 328 OFFCURVE",
"580 397 OFFCURVE",
"580 468 CURVE SMOOTH",
"580 548 OFFCURVE",
"514 628 OFFCURVE",
"352 631 CURVE",
"180 631 LINE",
"140 631 OFFCURVE",
"104 632 OFFCURVE",
"61 634 CURVE SMOOTH",
"48 634 OFFCURVE",
"43 623 OFFCURVE",
"43 612 CURVE SMOOTH",
"44 589 OFFCURVE",
"54 591 OFFCURVE",
"68 591 CURVE SMOOTH",
"131 591 OFFCURVE",
"132 551 OFFCURVE",
"133 513 CURVE",
"133 117 LINE",
"132 79 OFFCURVE",
"131 40 OFFCURVE",
"68 40 CURVE SMOOTH",
"54 40 OFFCURVE",
"44 42 OFFCURVE",
"43 19 CURVE SMOOTH",
"43 8 OFFCURVE",
"48 -3 OFFCURVE",
"61 -3 CURVE SMOOTH"
);
},
{
closed = 1;
nodes = (
"232 511 LINE SMOOTH",
"232 578 OFFCURVE",
"245 594 OFFCURVE",
"302 594 CURVE SMOOTH",
"432 594 OFFCURVE",
"469 524 OFFCURVE",
"469 459 CURVE SMOOTH",
"469 406 OFFCURVE",
"455 319 OFFCURVE",
"320 319 CURVE SMOOTH",
"232 319 LINE"
);
}
);
width = 671;
}
);
leftKerningGroup = I;
rightKerningGroup = R;
unicode = 0052;
},
{
glyphname = S;
layers = (
{
background = {
paths = (
{
closed = 1;
nodes = (
"265 20 LINE",
"297 20 LINE",
"348 40 LINE",
"383 72 LINE",
"401 113 LINE",
"401 134 LINE",
"401 175 LINE",
"351 229 LINE",
"277 269 LINE",
"190 305 LINE",
"114 352 LINE",
"63 420 LINE",
"62 472 LINE",
"61 519 LINE",
"93 587 LINE",
"152 630 LINE",
"232 651 LINE",
"278 651 LINE",
"311 651 LINE",
"379 637 LINE",
"433 607 LINE",
"467 559 LINE",
"467 525 LINE",
"467 489 LINE",
"418 442 LINE",
"379 442 LINE",
"353 444 LINE",
"332 467 LINE",
"332 473 LINE",
"332 475 LINE",
"347 480 LINE",
"365 492 LINE",
"380 513 LINE",
"380 531 LINE",
"380 569 LINE",
"322 610 LINE",
"279 610 LINE",
"246 610 LINE",
"199 593 LINE",
"169 566 LINE",
"155 530 LINE",
"155 511 LINE",
"155 474 LINE",
"195 428 LINE",
"235 406 LINE",
"280 382 LINE",
"373 342 LINE",
"450 290 LINE",
"499 216 LINE",
"499 157 LINE",
"499 119 LINE",
"462 54 LINE",
"399 7 LINE",
"313 -20 LINE",
"265 -20 LINE",
"160 -20 LINE",
"49 52 LINE",
"49 124 LINE",
"49 160 LINE",
"98 207 LINE",
"137 207 LINE",
"163 205 LINE",
"184 182 LINE",
"184 176 LINE",
"184 174 LINE",
"173 169 LINE",
"159 157 LINE",
"148 136 LINE",
"148 118 LINE",
"148 73 LINE",
"203 20 LINE"
);
}
);
};
layerId = UUID0;
paths = (
{
closed = 1;
nodes = (
"394 -20 OFFCURVE",
"499 55 OFFCURVE",
"499 157 CURVE SMOOTH",
"499 314 OFFCURVE",
"354 341 OFFCURVE",
"235 406 CURVE SMOOTH",
"182 435 OFFCURVE",
"155 462 OFFCURVE",
"155 511 CURVE SMOOTH",
"155 562 OFFCURVE",
"192 610 OFFCURVE",
"279 610 CURVE SMOOTH",
"336 610 OFFCURVE",
"380 581 OFFCURVE",
"380 531 CURVE SMOOTH",
"380 484 OFFCURVE",
"332 478 OFFCURVE",
"332 473 CURVE SMOOTH",
"332 465 OFFCURVE",
"344 444 OFFCURVE",
"379 442 CURVE",
"431 442 OFFCURVE",
"467 477 OFFCURVE",
"467 525 CURVE SMOOTH",
"467 615 OFFCURVE",
"367 651 OFFCURVE",
"278 651 CURVE SMOOTH",
"155 651 OFFCURVE",
"59 597 OFFCURVE",
"62 472 CURVE SMOOTH",
"67 263 OFFCURVE",
"401 300 OFFCURVE",
"401 134 CURVE SMOOTH",
"401 77 OFFCURVE",
"351 20 OFFCURVE",
"265 20 CURVE SMOOTH",
"183 20 OFFCURVE",
"148 58 OFFCURVE",
"148 118 CURVE SMOOTH",
"148 165 OFFCURVE",
"184 171 OFFCURVE",
"184 176 CURVE SMOOTH",
"184 184 OFFCURVE",
"172 205 OFFCURVE",
"137 207 CURVE",
"85 207 OFFCURVE",
"49 172 OFFCURVE",
"49 124 CURVE SMOOTH",
"49 29 OFFCURVE",
"126 -20 OFFCURVE",
"265 -20 CURVE SMOOTH"
);
}
);
width = 545;
}
);
leftKerningGroup = S;
rightKerningGroup = S;
unicode = 0053;
},
{
glyphname = T;
layers = (
{
background = {
paths = (
{
closed = 1;
nodes = (
"545 631 LINE",
"556 631 LINE",
"571 621 LINE",
"571 607 LINE",
"575 466 LINE",
"575 456 LINE",
"558 446 LINE",
"550 446 LINE",
"539 446 LINE",
"518 455 LINE",
"516 464 LINE",
"511 498 LINE",
"498 546 LINE",
"477 578 LINE",
"444 593 LINE",
"418 594 LINE",
"350 594 LINE",
"350 117 LINE",
"350 103 LINE",
"353 75 LINE",
"365 53 LINE",
"391 40 LINE",
"415 40 LINE",
"425 40 LINE",
"439 36 LINE",
"440 19 LINE",
"440 11 LINE",
"432 -3 LINE",
"422 -3 LINE",
"390 -1 LINE",
"333 0 LINE",
"304 0 LINE",
"243 0 LINE",
"179 -3 LINE",
"169 -3 LINE",
"161 11 LINE",
"161 19 LINE",
"162 36 LINE",
"175 40 LINE",
"186 40 LINE",
"210 40 LINE",
"236 53 LINE",
"248 75 LINE",
"251 103 LINE",
"251 117 LINE",
"251 594 LINE",
"182 594 LINE",
"156 593 LINE",
"123 578 LINE",
"102 546 LINE",
"90 498 LINE",
"85 464 LINE",
"83 455 LINE",
"61 446 LINE",
"50 446 LINE",
"42 446 LINE",
"26 456 LINE",
"26 466 LINE",
"29 607 LINE",
"29 621 LINE",
"45 631 LINE",
"56 631 LINE"
);
}
);
};
layerId = UUID0;
paths = (
{
closed = 1;
nodes = (
"222 -1 OFFCURVE",
"264 0 OFFCURVE",
"304 0 CURVE SMOOTH",
"343 0 OFFCURVE",
"379 -1 OFFCURVE",
"422 -3 CURVE SMOOTH",
"435 -3 OFFCURVE",
"440 8 OFFCURVE",
"440 19 CURVE SMOOTH",
"439 42 OFFCURVE",
"428 40 OFFCURVE",
"415 40 CURVE SMOOTH",
"352 40 OFFCURVE",
"351 79 OFFCURVE",
"350 117 CURVE",
"350 594 LINE",
"418 594 LINE",
"488 592 OFFCURVE",
"502 554 OFFCURVE",
"516 464 CURVE SMOOTH",
"518 452 OFFCURVE",
"536 446 OFFCURVE",
"550 446 CURVE SMOOTH",
"561 446 OFFCURVE",
"575 453 OFFCURVE",
"575 466 CURVE SMOOTH",
"571 607 LINE SMOOTH",
"571 626 OFFCURVE",
"560 631 OFFCURVE",
"545 631 CURVE SMOOTH",
"56 631 LINE",
"41 631 OFFCURVE",
"29 626 OFFCURVE",
"29 607 CURVE SMOOTH",
"26 466 LINE SMOOTH",
"26 453 OFFCURVE",
"40 446 OFFCURVE",
"50 446 CURVE SMOOTH",
"65 446 OFFCURVE",
"83 452 OFFCURVE",
"85 464 CURVE SMOOTH",
"98 554 OFFCURVE",
"113 592 OFFCURVE",
"182 594 CURVE",
"251 594 LINE",
"251 117 LINE",
"250 79 OFFCURVE",
"249 40 OFFCURVE",
"186 40 CURVE SMOOTH",
"172 40 OFFCURVE",
"162 42 OFFCURVE",
"161 19 CURVE SMOOTH",
"161 8 OFFCURVE",
"166 -3 OFFCURVE",
"179 -3 CURVE SMOOTH"
);
}
);
width = 600;
}
);
leftKerningGroup = T;
rightKerningGroup = T;
unicode = 0054;
},
{
glyphname = U;
layers = (
{
anchors = (
{
name = top;
position = "{379, 650}";
}
);
background = {
paths = (
{
closed = 1;
nodes = (
"600 178 LINE",
"600 125 LINE",
"554 50 LINE",
"483 2 LINE",
"398 -20 LINE",
"359 -20 LINE",
"299 -20 LINE",
"208 13 LINE",
"148 67 LINE",
"117 136 LINE",
"117 173 LINE",
"117 514 LINE",
"117 528 LINE",
"114 556 LINE",
"102 578 LINE",
"76 591 LINE",
"52 591 LINE",
"41 591 LINE",
"28 595 LINE",
"27 612 LINE",
"27 620 LINE",
"35 634 LINE",
"45 634 LINE",
"77 632 LINE",
"133 631 LINE",
"163 631 LINE",
"223 631 LINE",
"288 634 LINE",
"298 634 LINE",
"306 620 LINE",
"306 612 LINE",
"305 597 LINE",
"295 591 LINE",
"286 591 LINE",
"260 591 LINE",
"233 578 LINE",
"219 557 LINE",
"216 529 LINE",
"216 514 LINE",
"216 202 LINE",
"216 176 LINE",
"226 119 LINE",
"259 71 LINE",
"322 39 LINE",
"375 39 LINE",
"426 39 LINE",
"491 65 LINE",
"529 108 LINE",
"544 161 LINE",
"544 188 LINE",
"544 451 LINE",
"544 500 LINE",
"539 556 LINE",
"523 584 LINE",
"492 591 LINE",
"467 591 LINE",
"457 591 LINE",
"443 595 LINE",
"442 612 LINE",
"442 620 LINE",
"450 634 LINE",
"460 634 LINE",
"492 632 LINE",
"542 631 LINE",
"572 631 LINE",
"602 631 LINE",
"652 632 LINE",
"684 634 LINE",
"694 634 LINE",
"702 620 LINE",
"702 612 LINE",
"701 597 LINE",
"691 591 LINE",
"682 591 LINE",
"655 591 LINE",
"622 585 LINE",
"605 559 LINE",
"600 505 LINE",
"600 457 LINE"
);
}
);
};
layerId = UUID0;
paths = (
{
closed = 1;
nodes = (
"462 -20 OFFCURVE",
"600 36 OFFCURVE",
"600 178 CURVE SMOOTH",
"600 457 LINE",
"600 586 OFFCURVE",
"609 591 OFFCURVE",
"682 591 CURVE SMOOTH",
"694 591 OFFCURVE",
"701 592 OFFCURVE",
"702 612 CURVE SMOOTH",
"702 623 OFFCURVE",
"697 634 OFFCURVE",
"684 634 CURVE SMOOTH",
"641 632 OFFCURVE",
"612 631 OFFCURVE",
"572 631 CURVE SMOOTH",
"532 631 OFFCURVE",
"503 632 OFFCURVE",
"460 634 CURVE SMOOTH",
"447 634 OFFCURVE",
"442 623 OFFCURVE",
"442 612 CURVE SMOOTH",
"443 589 OFFCURVE",
"454 591 OFFCURVE",
"467 591 CURVE SMOOTH",
"535 591 OFFCURVE",
"544 582 OFFCURVE",
"544 451 CURVE SMOOTH",
"544 188 LINE SMOOTH",
"544 116 OFFCURVE",
"510 39 OFFCURVE",
"375 39 CURVE SMOOTH",
"234 39 OFFCURVE",
"216 133 OFFCURVE",
"216 202 CURVE SMOOTH",
"216 514 LINE",
"217 555 OFFCURVE",
"218 591 OFFCURVE",
"286 591 CURVE SMOOTH",
"298 591 OFFCURVE",
"305 592 OFFCURVE",
"306 612 CURVE SMOOTH",
"306 623 OFFCURVE",
"301 634 OFFCURVE",
"288 634 CURVE SMOOTH",
"245 632 OFFCURVE",
"203 631 OFFCURVE",
"163 631 CURVE SMOOTH",
"123 631 OFFCURVE",
"88 632 OFFCURVE",
"45 634 CURVE SMOOTH",
"32 634 OFFCURVE",
"27 623 OFFCURVE",
"27 612 CURVE SMOOTH",
"28 589 OFFCURVE",
"38 591 OFFCURVE",
"52 591 CURVE SMOOTH",
"115 591 OFFCURVE",
"116 552 OFFCURVE",
"117 514 CURVE",
"117 173 LINE SMOOTH",
"117 75 OFFCURVE",
"199 -20 OFFCURVE",
"359 -20 CURVE SMOOTH"
);
}
);
width = 720;
}
);
leftKerningGroup = U;
rightKerningGroup = U;
unicode = 0055;
},
{
glyphname = Uacute;
layers = (
{
background = {
paths = (
{
closed = 1;
nodes = (
"600 178 LINE",
"600 125 LINE",
"554 50 LINE",
"483 2 LINE",
"398 -20 LINE",
"359 -20 LINE",
"299 -20 LINE",
"208 13 LINE",
"148 67 LINE",
"117 136 LINE",
"117 173 LINE",
"117 514 LINE",
"117 528 LINE",
"114 556 LINE",
"102 578 LINE",
"76 591 LINE",
"52 591 LINE",
"41 591 LINE",
"28 595 LINE",
"27 612 LINE",
"27 620 LINE",
"35 634 LINE",
"45 634 LINE",
"77 632 LINE",
"133 631 LINE",
"163 631 LINE",
"223 631 LINE",
"288 634 LINE",
"298 634 LINE",
"306 620 LINE",
"306 612 LINE",
"305 597 LINE",
"295 591 LINE",
"286 591 LINE",
"260 591 LINE",
"233 578 LINE",
"219 557 LINE",
"216 529 LINE",
"216 514 LINE",
"216 202 LINE",
"216 176 LINE",
"226 119 LINE",
"259 71 LINE",
"322 39 LINE",
"375 39 LINE",
"426 39 LINE",
"491 65 LINE",
"529 108 LINE",
"544 161 LINE",
"544 188 LINE",
"544 451 LINE",
"544 500 LINE",
"539 556 LINE",
"523 584 LINE",
"492 591 LINE",
"467 591 LINE",
"457 591 LINE",
"443 595 LINE",
"442 612 LINE",
"442 620 LINE",
"450 634 LINE",
"460 634 LINE",
"492 632 LINE",
"542 631 LINE",
"572 631 LINE",
"602 631 LINE",
"652 632 LINE",
"684 634 LINE",
"694 634 LINE",
"702 620 LINE",
"702 612 LINE",
"701 597 LINE",
"691 591 LINE",
"682 591 LINE",
"655 591 LINE",
"622 585 LINE",
"605 559 LINE",
"600 505 LINE",
"600 457 LINE"
);
},
{
closed = 1;
nodes = (
"356 672 LINE",
"348 668 LINE",
"333 673 LINE",
"323 685 LINE",
"321 700 LINE",
"327 706 LINE",
"335 714 LINE",
"360 739 LINE",
"389 767 LINE",
"419 794 LINE",
"433 805 LINE",
"455 822 LINE",
"490 834 LINE",
"507 815 LINE",
"524 795 LINE",
"503 761 LINE",
"480 746 LINE",
"448 726 LINE",
"386 688 LINE"
);
}
);
};
components = (
{
name = U;
},
{
name = acutecomb.case;
transform = "{1, 0, 0, 1, 294, 19}";
}
);
layerId = UUID0;
width = 720;
}
);
leftKerningGroup = U;
rightKerningGroup = U;
unicode = 00DA;
},
{
glyphname = Ucircumflex;
layers = (
{
background = {
paths = (
{
closed = 1;
nodes = (
"600 178 LINE",
"600 125 LINE",
"554 50 LINE",
"483 2 LINE",
"398 -20 LINE",
"359 -20 LINE",
"299 -20 LINE",
"208 13 LINE",
"148 67 LINE",
"117 136 LINE",
"117 173 LINE",
"117 514 LINE",
"117 528 LINE",
"114 556 LINE",
"102 578 LINE",
"76 591 LINE",
"52 591 LINE",
"41 591 LINE",
"28 595 LINE",
"27 612 LINE",
"27 620 LINE",
"35 634 LINE",
"45 634 LINE",
"77 632 LINE",
"133 631 LINE",
"163 631 LINE",
"223 631 LINE",
"288 634 LINE",
"298 634 LINE",
"306 620 LINE",
"306 612 LINE",
"305 597 LINE",
"295 591 LINE",
"286 591 LINE",
"260 591 LINE",
"233 578 LINE",
"219 557 LINE",
"216 529 LINE",
"216 514 LINE",
"216 202 LINE",
"216 176 LINE",
"226 119 LINE",
"259 71 LINE",
"322 39 LINE",
"375 39 LINE",
"426 39 LINE",
"491 65 LINE",
"529 108 LINE",
"544 161 LINE",
"544 188 LINE",
"544 451 LINE",
"544 500 LINE",
"539 556 LINE",
"523 584 LINE",
"492 591 LINE",
"467 591 LINE",
"457 591 LINE",
"443 595 LINE",
"442 612 LINE",
"442 620 LINE",
"450 634 LINE",
"460 634 LINE",
"492 632 LINE",
"542 631 LINE",
"572 631 LINE",
"602 631 LINE",
"652 632 LINE",
"684 634 LINE",
"694 634 LINE",
"702 620 LINE",
"702 612 LINE",
"701 597 LINE",
"691 591 LINE",
"682 591 LINE",
"655 591 LINE",
"622 585 LINE",
"605 559 LINE",
"600 505 LINE",
"600 457 LINE"
);
},
{
closed = 1;
nodes = (
"354 812 LINE",
"367 821 LINE",
"378 821 LINE",
"390 821 LINE",
"402 812 LINE",
"529 719 LINE",
"535 714 LINE",
"539 702 LINE",
"535 691 LINE",
"525 683 LINE",
"518 684 LINE",
"486 692 LINE",
"413 731 LINE",
"378 749 LINE",
"343 731 LINE",
"270 692 LINE",
"238 684 LINE",
"230 683 LINE",
"221 691 LINE",
"217 702 LINE",
"221 714 LINE",
"227 719 LINE"
);
}
);
};
components = (
{
name = U;
},
{
name = circumflexcomb.case;
transform = "{1, 0, 0, 1, 191, 19}";
}
);
layerId = UUID0;
width = 720;
}
);
leftKerningGroup = U;
rightKerningGroup = U;
unicode = 00DB;
},
{
glyphname = Udieresis;
layers = (
{
background = {
paths = (
{
closed = 1;
nodes = (
"600 178 LINE",
"600 125 LINE",
"554 50 LINE",
"483 2 LINE",
"398 -20 LINE",
"359 -20 LINE",
"299 -20 LINE",
"208 13 LINE",
"148 67 LINE",
"117 136 LINE",
"117 173 LINE",
"117 514 LINE",
"117 528 LINE",
"114 556 LINE",
"102 578 LINE",
"76 591 LINE",
"52 591 LINE",
"41 591 LINE",
"28 595 LINE",
"27 612 LINE",
"27 620 LINE",
"35 634 LINE",
"45 634 LINE",
"77 632 LINE",
"133 631 LINE",
"163 631 LINE",
"223 631 LINE",
"288 634 LINE",
"298 634 LINE",
"306 620 LINE",
"306 612 LINE",
"305 597 LINE",
"295 591 LINE",
"286 591 LINE",
"260 591 LINE",
"233 578 LINE",
"219 557 LINE",
"216 529 LINE",
"216 514 LINE",
"216 202 LINE",
"216 176 LINE",
"226 119 LINE",
"259 71 LINE",
"322 39 LINE",
"375 39 LINE",
"426 39 LINE",
"491 65 LINE",
"529 108 LINE",
"544 161 LINE",
"544 188 LINE",
"544 451 LINE",
"544 500 LINE",
"539 556 LINE",
"523 584 LINE",
"492 591 LINE",
"467 591 LINE",
"457 591 LINE",
"443 595 LINE",
"442 612 LINE",
"442 620 LINE",
"450 634 LINE",
"460 634 LINE",
"492 632 LINE",
"542 631 LINE",
"572 631 LINE",
"602 631 LINE",
"652 632 LINE",
"684 634 LINE",
"694 634 LINE",
"702 620 LINE",
"702 612 LINE",
"701 597 LINE",
"691 591 LINE",
"682 591 LINE",
"655 591 LINE",
"622 585 LINE",
"605 559 LINE",
"600 505 LINE",
"600 457 LINE"
);
},
{
closed = 1;
nodes = (
"286 820 LINE",
"312 820 LINE",
"346 786 LINE",
"346 760 LINE",
"346 736 LINE",
"311 700 LINE",
"285 700 LINE",
"259 700 LINE",
"223 736 LINE",
"223 760 LINE",
"223 786 LINE",
"260 820 LINE"
);
},
{
closed = 1;
nodes = (
"478 820 LINE",
"504 820 LINE",
"538 786 LINE",
"538 760 LINE",
"538 736 LINE",
"503 700 LINE",
"477 700 LINE",
"451 700 LINE",
"415 736 LINE",
"415 760 LINE",
"415 786 LINE",
"452 820 LINE"
);
}
);
};
components = (
{
name = U;
},
{
name = dieresiscomb.case;
transform = "{1, 0, 0, 1, 185, 19}";
}
);
layerId = UUID0;
width = 720;
}
);
leftKerningGroup = U;
rightKerningGroup = U;
unicode = 00DC;
},
{
glyphname = Ugrave;
layers = (
{
background = {
paths = (
{
closed = 1;
nodes = (
"600 178 LINE",
"600 125 LINE",
"554 50 LINE",
"483 2 LINE",
"398 -20 LINE",
"359 -20 LINE",
"299 -20 LINE",
"208 13 LINE",
"148 67 LINE",
"117 136 LINE",
"117 173 LINE",
"117 514 LINE",
"117 528 LINE",
"114 556 LINE",
"102 578 LINE",
"76 591 LINE",
"52 591 LINE",
"41 591 LINE",
"28 595 LINE",
"27 612 LINE",
"27 620 LINE",
"35 634 LINE",
"45 634 LINE",
"77 632 LINE",
"133 631 LINE",
"163 631 LINE",
"223 631 LINE",
"288 634 LINE",
"298 634 LINE",
"306 620 LINE",
"306 612 LINE",
"305 597 LINE",
"295 591 LINE",
"286 591 LINE",
"260 591 LINE",
"233 578 LINE",
"219 557 LINE",
"216 529 LINE",
"216 514 LINE",
"216 202 LINE",
"216 176 LINE",
"226 119 LINE",
"259 71 LINE",
"322 39 LINE",
"375 39 LINE",
"426 39 LINE",
"491 65 LINE",
"529 108 LINE",
"544 161 LINE",
"544 188 LINE",
"544 451 LINE",
"544 500 LINE",
"539 556 LINE",
"523 584 LINE",
"492 591 LINE",
"467 591 LINE",
"457 591 LINE",
"443 595 LINE",
"442 612 LINE",
"442 620 LINE",
"450 634 LINE",
"460 634 LINE",
"492 632 LINE",
"542 631 LINE",
"572 631 LINE",
"602 631 LINE",
"652 632 LINE",
"684 634 LINE",
"694 634 LINE",
"702 620 LINE",
"702 612 LINE",
"701 597 LINE",
"691 591 LINE",
"682 591 LINE",
"655 591 LINE",
"622 585 LINE",
"605 559 LINE",
"600 505 LINE",
"600 457 LINE"
);
},
{
closed = 1;
nodes = (
"388 672 LINE",
"358 688 LINE",
"296 726 LINE",
"264 746 LINE",
"241 761 LINE",
"220 795 LINE",
"237 815 LINE",
"254 834 LINE",
"289 822 LINE",
"311 805 LINE",
"325 794 LINE",
"355 767 LINE",
"384 739 LINE",
"409 714 LINE",
"417 706 LINE",
"423 700 LINE",
"421 685 LINE",
"411 673 LINE",
"396 668 LINE"
);
}
);
};
components = (
{
name = U;
},
{
name = gravecomb.case;
transform = "{1, 0, 0, 1, 171, 19}";
}
);
layerId = UUID0;
width = 720;
}
);
leftKerningGroup = U;
rightKerningGroup = U;
unicode = 00D9;
},
{
glyphname = V;
layers = (
{
background = {
paths = (
{
closed = 1;
nodes = (
"498 542 LINE",
"509 574 LINE",
"489 591 LINE",
"454 591 LINE",
"443 591 LINE",
"430 595 LINE",
"429 612 LINE",
"429 620 LINE",
"437 634 LINE",
"446 634 LINE",
"478 632 LINE",
"525 631 LINE",
"555 631 LINE",
"570 631 LINE",
"591 631 LINE",
"611 632 LINE",
"633 633 LINE",
"649 634 LINE",
"659 634 LINE",
"667 620 LINE",
"667 612 LINE",
"666 595 LINE",
"653 591 LINE",
"642 591 LINE",
"604 591 LINE",
"560 563 LINE",
"544 523 LINE",
"544 523 LINE",
"527 478 LINE",
"500 404 LINE",
"465 308 LINE",
"447 258 LINE",
"351 -10 LINE",
"304 -10 LINE",
"250 137 LINE",
"209 251 LINE",
"191 300 LINE",
"157 393 LINE",
"130 466 LINE",
"114 510 LINE",
"114 510 LINE",
"106 530 LINE",
"91 559 LINE",
"73 578 LINE",
"50 590 LINE",
"34 593 LINE",
"20 596 LINE",
"9 600 LINE",
"9 616 LINE",
"9 633 LINE",
"32 636 LINE",
"49 636 LINE",
"116 635 LINE",
"189 588 LINE",
"212 531 LINE",
"357 141 LINE",
"360 141 LINE"
);
}
);
};
layerId = UUID0;
paths = (
{
closed = 1;
nodes = (
"351 -10 LINE",
"351 -10 OFFCURVE",
"544 526 OFFCURVE",
"544 523 CURVE",
"565 576 OFFCURVE",
"591 591 OFFCURVE",
"642 591 CURVE SMOOTH",
"656 591 OFFCURVE",
"666 589 OFFCURVE",
"667 612 CURVE SMOOTH",
"667 623 OFFCURVE",
"662 634 OFFCURVE",
"649 634 CURVE SMOOTH",
"606 632 OFFCURVE",
"595 631 OFFCURVE",
"555 631 CURVE SMOOTH",
"515 631 OFFCURVE",
"489 632 OFFCURVE",
"446 634 CURVE SMOOTH",
"434 634 OFFCURVE",
"429 623 OFFCURVE",
"429 612 CURVE SMOOTH",
"430 589 OFFCURVE",
"440 591 OFFCURVE",
"454 591 CURVE SMOOTH",
"500 591 OFFCURVE",
"513 584 OFFCURVE",
"498 542 CURVE",
"360 141 LINE",
"357 141 LINE",
"212 531 LINE SMOOTH",
"182 607 OFFCURVE",
"138 635 OFFCURVE",
"49 636 CURVE SMOOTH",
"27 636 OFFCURVE",
"9 639 OFFCURVE",
"9 616 CURVE SMOOTH",
"9 595 OFFCURVE",
"15 597 OFFCURVE",
"34 593 CURVE SMOOTH",
"77 585 OFFCURVE",
"92 564 OFFCURVE",
"114 510 CURVE",
"114 512 OFFCURVE",
"304 -10 OFFCURVE",
"304 -10 CURVE"
);
}
);
width = 648;
}
);
leftKerningGroup = V;
rightKerningGroup = V;
unicode = 0056;
},
{
glyphname = W;
layers = (
{
background = {
paths = (
{
closed = 1;
nodes = (
"33 593 LINE",
"19 596 LINE",
"8 600 LINE",
"8 616 LINE",
"8 633 LINE",
"31 636 LINE",
"48 636 LINE",
"115 635 LINE",
"188 588 LINE",
"211 531 LINE",
"325 165 LINE",
"329 165 LINE",
"451 631 LINE",
"503 631 LINE",
"666 165 LINE",
"669 165 LINE",
"782 542 LINE",
"790 574 LINE",
"773 591 LINE",
"738 591 LINE",
"727 591 LINE",
"714 595 LINE",
"713 612 LINE",
"713 620 LINE",
"721 634 LINE",
"730 634 LINE",
"762 632 LINE",
"809 631 LINE",
"839 631 LINE",
"854 631 LINE",
"875 631 LINE",
"895 632 LINE",
"917 633 LINE",
"933 634 LINE",
"943 634 LINE",
"951 620 LINE",
"951 612 LINE",
"950 595 LINE",
"937 591 LINE",
"926 591 LINE",
"888 591 LINE",
"839 562 LINE",
"828 523 LINE",
"664 -10 LINE",
"617 -10 LINE",
"455 467 LINE",
"326 -10 LINE",
"279 -10 LINE",
"113 510 LINE",
"105 530 LINE",
"90 559 LINE",
"72 578 LINE",
"49 590 LINE"
);
}
);
};
layerId = UUID0;
paths = (
{
closed = 1;
nodes = (
"326 -10 LINE",
"455 467 LINE",
"617 -10 LINE",
"664 -10 LINE",
"828 523 LINE",
"843 575 OFFCURVE",
"875 591 OFFCURVE",
"926 591 CURVE SMOOTH",
"940 591 OFFCURVE",
"950 589 OFFCURVE",
"951 612 CURVE SMOOTH",
"951 623 OFFCURVE",
"946 634 OFFCURVE",
"933 634 CURVE SMOOTH",
"890 632 OFFCURVE",
"879 631 OFFCURVE",
"839 631 CURVE SMOOTH",
"799 631 OFFCURVE",
"773 632 OFFCURVE",
"730 634 CURVE SMOOTH",
"718 634 OFFCURVE",
"713 623 OFFCURVE",
"713 612 CURVE SMOOTH",
"714 589 OFFCURVE",
"724 591 OFFCURVE",
"738 591 CURVE SMOOTH",
"784 591 OFFCURVE",
"793 585 OFFCURVE",
"782 542 CURVE",
"669 165 LINE",
"666 165 LINE",
"503 631 LINE",
"451 631 LINE",
"329 165 LINE",
"325 165 LINE",
"211 531 LINE",
"181 607 OFFCURVE",
"137 635 OFFCURVE",
"48 636 CURVE",
"26 636 OFFCURVE",
"8 639 OFFCURVE",
"8 616 CURVE SMOOTH",
"8 595 OFFCURVE",
"14 597 OFFCURVE",
"33 593 CURVE",
"76 585 OFFCURVE",
"91 564 OFFCURVE",
"113 510 CURVE",
"279 -10 LINE"
);
}
);
width = 934;
}
);
leftKerningGroup = V;
rightKerningGroup = V;
unicode = 0057;
},
{
glyphname = X;
layers = (
{
background = {
paths = (
{
closed = 1;
nodes = (
"543 109 LINE",
"560 84 LINE",
"601 40 LINE",
"634 40 LINE",
"645 40 LINE",
"658 36 LINE",
"659 19 LINE",
"659 11 LINE",
"651 -3 LINE",
"642 -3 LINE",
"610 -1 LINE",
"552 0 LINE",
"522 0 LINE",
"464 0 LINE",
"400 -3 LINE",
"390 -3 LINE",
"382 11 LINE",
"382 19 LINE",
"383 36 LINE",
"397 40 LINE",
"407 40 LINE",
"437 40 LINE",
"453 70 LINE",
"439 89 LINE",
"311 272 LINE",
"183 89 LINE",
"172 73 LINE",
"170 54 LINE",
"183 43 LINE",
"210 40 LINE",
"227 40 LINE",
"238 40 LINE",
"251 36 LINE",
"252 19 LINE",
"252 11 LINE",
"244 -3 LINE",
"235 -3 LINE",
"203 -1 LINE",
"156 0 LINE",
"126 0 LINE",
"111 0 LINE",
"88 0 LINE",
"65 -1 LINE",
"41 -2 LINE",
"25 -3 LINE",
"15 -3 LINE",
"7 11 LINE",
"7 19 LINE",
"8 36 LINE",
"21 40 LINE",
"32 40 LINE",
"51 40 LINE",
"78 47 LINE",
"101 62 LINE",
"123 88 LINE",
"137 108 LINE",
"282 314 LINE",
"154 515 LINE",
"129 553 LINE",
"83 586 LINE",
"51 593 LINE",
"37 596 LINE",
"26 600 LINE",
"26 616 LINE",
"26 633 LINE",
"49 636 LINE",
"66 636 LINE",
"101 636 LINE",
"156 625 LINE",
"201 600 LINE",
"239 560 LINE",
"259 532 LINE",
"341 398 LINE",
"440 542 LINE",
"451 558 LINE",
"453 578 LINE",
"439 588 LINE",
"413 591 LINE",
"396 591 LINE",
"385 591 LINE",
"372 595 LINE",
"371 612 LINE",
"371 620 LINE",
"379 634 LINE",
"388 634 LINE",
"420 632 LINE",
"467 631 LINE",
"497 631 LINE",
"512 631 LINE",
"535 631 LINE",
"558 632 LINE",
"582 633 LINE",
"598 634 LINE",
"608 634 LINE",
"616 620 LINE",
"616 612 LINE",
"615 595 LINE",
"602 591 LINE",
"591 591 LINE",
"572 591 LINE",
"544 584 LINE",
"521 569 LINE",
"499 542 LINE",
"486 523 LINE",
"369 357 LINE",
"543 109 LINE"
);
}
);
};
layerId = UUID0;
paths = (
{
closed = 1;
nodes = (
"68 -1 OFFCURVE",
"86 0 OFFCURVE",
"126 0 CURVE SMOOTH",
"166 0 OFFCURVE",
"192 -1 OFFCURVE",
"235 -3 CURVE SMOOTH",
"247 -3 OFFCURVE",
"252 8 OFFCURVE",
"252 19 CURVE SMOOTH",
"251 42 OFFCURVE",
"241 40 OFFCURVE",
"227 40 CURVE SMOOTH",
"181 40 OFFCURVE",
"153 46 OFFCURVE",
"183 89 CURVE SMOOTH",
"311 272 LINE",
"439 89 LINE SMOOTH",
"457 64 OFFCURVE",
"447 40 OFFCURVE",
"407 40 CURVE SMOOTH",
"394 40 OFFCURVE",
"383 42 OFFCURVE",
"382 19 CURVE SMOOTH",
"382 8 OFFCURVE",
"387 -3 OFFCURVE",
"400 -3 CURVE SMOOTH",
"443 -1 OFFCURVE",
"482 0 OFFCURVE",
"522 0 CURVE SMOOTH",
"562 0 OFFCURVE",
"599 -1 OFFCURVE",
"642 -3 CURVE SMOOTH",
"654 -3 OFFCURVE",
"659 8 OFFCURVE",
"659 19 CURVE SMOOTH",
"658 42 OFFCURVE",
"648 40 OFFCURVE",
"634 40 CURVE SMOOTH",
"590 40 OFFCURVE",
"565 76 OFFCURVE",
"543 109 CURVE",
"369 357 LINE",
"486 523 LINE SMOOTH",
"522 575 OFFCURVE",
"540 591 OFFCURVE",
"591 591 CURVE SMOOTH",
"605 591 OFFCURVE",
"615 589 OFFCURVE",
"616 612 CURVE SMOOTH",
"616 623 OFFCURVE",
"611 634 OFFCURVE",
"598 634 CURVE SMOOTH",
"555 632 OFFCURVE",
"537 631 OFFCURVE",
"497 631 CURVE SMOOTH",
"457 631 OFFCURVE",
"431 632 OFFCURVE",
"388 634 CURVE SMOOTH",
"376 634 OFFCURVE",
"371 623 OFFCURVE",
"371 612 CURVE SMOOTH",
"372 589 OFFCURVE",
"382 591 OFFCURVE",
"396 591 CURVE SMOOTH",
"442 591 OFFCURVE",
"469 586 OFFCURVE",
"440 542 CURVE",
"341 398 LINE",
"259 532 LINE",
"207 608 OFFCURVE",
"160 636 OFFCURVE",
"66 636 CURVE SMOOTH",
"44 636 OFFCURVE",
"26 639 OFFCURVE",
"26 616 CURVE SMOOTH",
"26 595 OFFCURVE",
"32 597 OFFCURVE",
"51 593 CURVE SMOOTH",
"94 584 OFFCURVE",
"121 565 OFFCURVE",
"154 515 CURVE",
"282 314 LINE",
"137 108 LINE SMOOTH",
"100 56 OFFCURVE",
"83 40 OFFCURVE",
"32 40 CURVE SMOOTH",
"18 40 OFFCURVE",
"8 42 OFFCURVE",
"7 19 CURVE SMOOTH",
"7 8 OFFCURVE",
"12 -3 OFFCURVE",
"25 -3 CURVE SMOOTH"
);
}
);
width = 653;
}
);
leftKerningGroup = X;
rightKerningGroup = X;
unicode = 0058;
},
{
glyphname = Y;
layers = (
{
anchors = (
{
name = top;
position = "{305, 650}";
}
);
background = {
paths = (
{
closed = 1;
nodes = (
"236 532 LINE",
"265 478 LINE",
"312 377 LINE",
"341 323 LINE",
"344 323 LINE",
"455 542 LINE",
"464 559 LINE",
"465 578 LINE",
"453 588 LINE",
"428 591 LINE",
"411 591 LINE",
"400 591 LINE",
"387 595 LINE",
"386 612 LINE",
"386 620 LINE",
"394 634 LINE",
"403 634 LINE",
"435 632 LINE",
"482 631 LINE",
"512 631 LINE",
"527 631 LINE",
"550 631 LINE",
"573 632 LINE",
"597 633 LINE",
"613 634 LINE",
"623 634 LINE",
"631 620 LINE",
"631 612 LINE",
"630 595 LINE",
"617 591 LINE",
"606 591 LINE",
"568 591 LINE",
"520 558 LINE",
"501 523 LINE",
"388 310 LINE",
"381 295 LINE",
"371 275 LINE",
"364 255 LINE",
"361 231 LINE",
"361 214 LINE",
"361 117 LINE",
"361 103 LINE",
"364 75 LINE",
"376 53 LINE",
"402 40 LINE",
"426 40 LINE",
"437 40 LINE",
"450 36 LINE",
"451 19 LINE",
"451 11 LINE",
"443 -3 LINE",
"434 -3 LINE",
"402 -1 LINE",
"344 0 LINE",
"314 0 LINE",
"254 0 LINE",
"190 -3 LINE",
"180 -3 LINE",
"172 11 LINE",
"172 19 LINE",
"173 36 LINE",
"187 40 LINE",
"197 40 LINE",
"221 40 LINE",
"247 53 LINE",
"259 75 LINE",
"262 103 LINE",
"262 117 LINE",
"262 242 LINE",
"262 248 LINE",
"247 286 LINE",
"223 338 LINE",
"193 398 LINE",
"164 455 LINE",
"139 502 LINE",
"132 515 LINE",
"111 553 LINE",
"61 586 LINE",
"29 593 LINE",
"15 596 LINE",
"4 600 LINE",
"4 616 LINE",
"4 633 LINE",
"27 636 LINE",
"44 636 LINE",
"79 636 LINE",
"135 626 LINE",
"181 602 LINE",
"219 562 LINE"
);
}
);
};
layerId = UUID0;
paths = (
{
closed = 1;
nodes = (
"233 -1 OFFCURVE",
"274 0 OFFCURVE",
"314 0 CURVE SMOOTH",
"354 0 OFFCURVE",
"391 -1 OFFCURVE",
"434 -3 CURVE SMOOTH",
"446 -3 OFFCURVE",
"451 8 OFFCURVE",
"451 19 CURVE SMOOTH",
"450 42 OFFCURVE",
"440 40 OFFCURVE",
"426 40 CURVE SMOOTH",
"363 40 OFFCURVE",
"362 79 OFFCURVE",
"361 117 CURVE",
"361 214 LINE SMOOTH",
"361 260 OFFCURVE",
"369 271 OFFCURVE",
"388 310 CURVE",
"501 523 LINE",
"526 570 OFFCURVE",
"555 591 OFFCURVE",
"606 591 CURVE SMOOTH",
"620 591 OFFCURVE",
"630 589 OFFCURVE",
"631 612 CURVE SMOOTH",
"631 623 OFFCURVE",
"626 634 OFFCURVE",
"613 634 CURVE SMOOTH",
"570 632 OFFCURVE",
"552 631 OFFCURVE",
"512 631 CURVE SMOOTH",
"472 631 OFFCURVE",
"446 632 OFFCURVE",
"403 634 CURVE SMOOTH",
"391 634 OFFCURVE",
"386 623 OFFCURVE",
"386 612 CURVE SMOOTH",
"387 589 OFFCURVE",
"397 591 OFFCURVE",
"411 591 CURVE SMOOTH",
"457 591 OFFCURVE",
"478 587 OFFCURVE",
"455 542 CURVE",
"344 323 LINE",
"341 323 LINE",
"302 394 OFFCURVE",
"274 460 OFFCURVE",
"236 532 CURVE",
"190 612 OFFCURVE",
"138 636 OFFCURVE",
"44 636 CURVE SMOOTH",
"22 636 OFFCURVE",
"4 639 OFFCURVE",
"4 616 CURVE SMOOTH",
"4 595 OFFCURVE",
"10 597 OFFCURVE",
"29 593 CURVE SMOOTH",
"72 584 OFFCURVE",
"104 566 OFFCURVE",
"132 515 CURVE",
"161 463 OFFCURVE",
"262 267 OFFCURVE",
"262 242 CURVE SMOOTH",
"262 117 LINE",
"261 79 OFFCURVE",
"260 40 OFFCURVE",
"197 40 CURVE SMOOTH",
"184 40 OFFCURVE",
"173 42 OFFCURVE",
"172 19 CURVE SMOOTH",
"172 8 OFFCURVE",
"177 -3 OFFCURVE",
"190 -3 CURVE SMOOTH"
);
}
);
width = 621;
}
);
leftKerningGroup = Y;
rightKerningGroup = Y;
unicode = 0059;
},
{
glyphname = Yacute;
layers = (
{
background = {
paths = (
{
closed = 1;
nodes = (
"236 532 LINE",
"265 478 LINE",
"312 377 LINE",
"341 323 LINE",
"344 323 LINE",
"455 542 LINE",
"464 559 LINE",
"465 578 LINE",
"453 588 LINE",
"428 591 LINE",
"411 591 LINE",
"400 591 LINE",
"387 595 LINE",
"386 612 LINE",
"386 620 LINE",
"394 634 LINE",
"403 634 LINE",
"435 632 LINE",
"482 631 LINE",
"512 631 LINE",
"527 631 LINE",
"550 631 LINE",
"573 632 LINE",
"597 633 LINE",
"613 634 LINE",
"623 634 LINE",
"631 620 LINE",
"631 612 LINE",
"630 595 LINE",
"617 591 LINE",
"606 591 LINE",
"568 591 LINE",
"520 558 LINE",
"501 523 LINE",
"388 310 LINE",
"381 295 LINE",
"371 275 LINE",
"364 255 LINE",
"361 231 LINE",
"361 214 LINE",
"361 117 LINE",
"361 103 LINE",
"364 75 LINE",
"376 53 LINE",
"402 40 LINE",
"426 40 LINE",
"437 40 LINE",
"450 36 LINE",
"451 19 LINE",
"451 11 LINE",
"443 -3 LINE",
"434 -3 LINE",
"402 -1 LINE",
"344 0 LINE",
"314 0 LINE",
"254 0 LINE",
"190 -3 LINE",
"180 -3 LINE",
"172 11 LINE",
"172 19 LINE",
"173 36 LINE",
"187 40 LINE",
"197 40 LINE",
"221 40 LINE",
"247 53 LINE",
"259 75 LINE",
"262 103 LINE",
"262 117 LINE",
"262 242 LINE",
"262 248 LINE",
"247 286 LINE",
"223 338 LINE",
"193 398 LINE",
"164 455 LINE",
"139 502 LINE",
"132 515 LINE",
"111 553 LINE",
"61 586 LINE",
"29 593 LINE",
"15 596 LINE",
"4 600 LINE",
"4 616 LINE",
"4 633 LINE",
"27 636 LINE",
"44 636 LINE",
"79 636 LINE",
"135 626 LINE",
"181 602 LINE",
"219 562 LINE"
);
},
{
closed = 1;
nodes = (
"282 672 LINE",
"274 668 LINE",
"259 673 LINE",
"249 685 LINE",
"247 700 LINE",
"253 706 LINE",
"261 714 LINE",
"286 739 LINE",
"315 767 LINE",
"345 794 LINE",
"359 805 LINE",
"381 822 LINE",
"416 834 LINE",
"433 815 LINE",
"450 795 LINE",
"429 761 LINE",
"406 746 LINE",
"374 726 LINE",
"312 688 LINE"
);
}
);
};
components = (
{
name = Y;
},
{
name = acutecomb.case;
transform = "{1, 0, 0, 1, 220, 19}";
}
);
layerId = UUID0;
width = 621;
}
);
leftKerningGroup = Y;
rightKerningGroup = Y;
unicode = 00DD;
},
{
glyphname = Z;
layers = (
{
background = {
paths = (
{
closed = 1;
nodes = (
"358 515 LINE",
"371 543 LINE",
"379 574 LINE",
"368 588 LINE",
"341 591 LINE",
"319 591 LINE",
"210 591 LINE",
"184 590 LINE",
"152 579 LINE",
"130 552 LINE",
"113 508 LINE",
"103 475 LINE",
"100 465 LINE",
"81 459 LINE",
"70 461 LINE",
"62 463 LINE",
"48 474 LINE",
"49 484 LINE",
"69 610 LINE",
"72 624 LINE",
"85 631 LINE",
"98 631 LINE",
"441 631 LINE",
"499 631 LINE",
"564 634 LINE",
"574 634 LINE",
"582 620 LINE",
"582 612 LINE",
"581 595 LINE",
"568 592 LINE",
"557 591 LINE",
"539 590 LINE",
"511 575 LINE",
"490 554 LINE",
"475 528 LINE",
"468 515 LINE",
"249 100 LINE",
"245 91 LINE",
"239 70 LINE",
"245 52 LINE",
"268 40 LINE",
"294 40 LINE",
"412 40 LINE",
"438 41 LINE",
"471 52 LINE",
"493 79 LINE",
"510 123 LINE",
"520 156 LINE",
"523 166 LINE",
"542 172 LINE",
"553 170 LINE",
"561 168 LINE",
"575 157 LINE",
"574 147 LINE",
"554 21 LINE",
"551 7 LINE",
"538 0 LINE",
"525 0 LINE",
"172 0 LINE",
"142 0 LINE",
"84 -1 LINE",
"52 -3 LINE",
"43 -3 LINE",
"34 11 LINE",
"34 19 LINE",
"36 36 LINE",
"49 40 LINE",
"60 40 LINE",
"72 40 LINE",
"90 44 LINE",
"107 56 LINE",
"123 80 LINE",
"134 100 LINE"
);
}
);
};
layerId = UUID0;
paths = (
{
closed = 1;
nodes = (
"95 -1 OFFCURVE",
"132 0 OFFCURVE",
"172 0 CURVE SMOOTH",
"525 0 LINE SMOOTH",
"542 0 OFFCURVE",
"550 2 OFFCURVE",
"554 21 CURVE",
"574 147 LINE",
"575 160 OFFCURVE",
"564 168 OFFCURVE",
"553 170 CURVE SMOOTH",
"538 172 OFFCURVE",
"524 169 OFFCURVE",
"520 156 CURVE SMOOTH",
"493 68 OFFCURVE",
"482 42 OFFCURVE",
"412 40 CURVE",
"294 40 LINE",
"226 41 OFFCURVE",
"238 76 OFFCURVE",
"249 100 CURVE",
"468 515 LINE",
"486 549 OFFCURVE",
"508 588 OFFCURVE",
"557 591 CURVE SMOOTH",
"571 592 OFFCURVE",
"581 589 OFFCURVE",
"582 612 CURVE SMOOTH",
"582 623 OFFCURVE",
"577 634 OFFCURVE",
"564 634 CURVE SMOOTH",
"521 632 OFFCURVE",
"480 631 OFFCURVE",
"441 631 CURVE SMOOTH",
"98 631 LINE SMOOTH",
"81 631 OFFCURVE",
"73 629 OFFCURVE",
"69 610 CURVE",
"49 484 LINE",
"48 471 OFFCURVE",
"59 463 OFFCURVE",
"70 461 CURVE SMOOTH",
"84 459 OFFCURVE",
"99 462 OFFCURVE",
"103 475 CURVE SMOOTH",
"130 563 OFFCURVE",
"141 589 OFFCURVE",
"210 591 CURVE",
"319 591 LINE SMOOTH",
"377 591 OFFCURVE",
"394 590 OFFCURVE",
"358 515 CURVE",
"134 100 LINE",
"105 47 OFFCURVE",
"93 40 OFFCURVE",
"60 40 CURVE SMOOTH",
"46 40 OFFCURVE",
"36 42 OFFCURVE",
"34 19 CURVE SMOOTH",
"34 8 OFFCURVE",
"40 -3 OFFCURVE",
"52 -3 CURVE SMOOTH"
);
}
);
width = 621;
}
);
leftKerningGroup = Z;
rightKerningGroup = Z;
unicode = 005A;
},
{
glyphname = a;
layers = (
{
anchors = (
{
name = bottom;
position = "{251, 0}";
},
{
name = ogonek;
position = "{451, 10}";
},
{
name = top;
position = "{231, 460}";
}
);
background = {
paths = (
{
closed = 1;
nodes = (
"223 436 LINE",
"194 436 LINE",
"146 400 LINE",
"146 366 LINE",
"146 354 LINE",
"156 335 LINE",
"168 323 LINE",
"178 315 LINE",
"178 314 LINE",
"178 309 LINE",
"155 289 LINE",
"135 289 LINE",
"103 289 LINE",
"70 335 LINE",
"70 363 LINE",
"70 391 LINE",
"98 430 LINE",
"143 454 LINE",
"200 465 LINE",
"229 465 LINE",
"263 465 LINE",
"329 454 LINE",
"381 422 LINE",
"414 365 LINE",
"414 319 LINE",
"414 86 LINE",
"414 78 LINE",
"419 58 LINE",
"431 40 LINE",
"451 27 LINE",
"466 27 LINE",
"473 27 LINE",
"481 22 LINE",
"481 11 LINE",
"481 4 LINE",
"469 -5 LINE",
"451 -10 LINE",
"432 -12 LINE",
"426 -12 LINE",
"389 -12 LINE",
"331 31 LINE",
"326 69 LINE",
"315 49 LINE",
"275 19 LINE",
"228 -2 LINE",
"179 -12 LINE",
"158 -12 LINE",
"132 -12 LINE",
"87 7 LINE",
"54 39 LINE",
"34 82 LINE",
"34 107 LINE",
"34 143 LINE",
"69 193 LINE",
"123 225 LINE",
"190 243 LINE",
"255 252 LINE",
"310 255 LINE",
"326 257 LINE",
"326 336 LINE",
"326 383 LINE",
"280 436 LINE"
);
},
{
closed = 1;
nodes = (
"326 227 LINE",
"278 221 LINE",
"206 205 LINE",
"159 181 LINE",
"135 145 LINE",
"135 120 LINE",
"135 88 LINE",
"171 42 LINE",
"200 42 LINE",
"225 42 LINE",
"271 62 LINE",
"306 96 LINE",
"326 144 LINE",
"326 171 LINE"
);
}
);
};
layerId = UUID0;
paths = (
{
closed = 1;
nodes = (
"233 -12 OFFCURVE",
"297 16 OFFCURVE",
"326 69 CURVE",
"332 18 OFFCURVE",
"377 -12 OFFCURVE",
"426 -12 CURVE SMOOTH",
"443 -12 OFFCURVE",
"481 -7 OFFCURVE",
"481 11 CURVE SMOOTH",
"481 26 OFFCURVE",
"475 27 OFFCURVE",
"466 27 CURVE SMOOTH",
"425 27 OFFCURVE",
"415 66 OFFCURVE",
"414 86 CURVE",
"414 319 LINE SMOOTH",
"414 442 OFFCURVE",
"319 465 OFFCURVE",
"229 465 CURVE SMOOTH",
"152 465 OFFCURVE",
"70 438 OFFCURVE",
"70 363 CURVE SMOOTH",
"70 326 OFFCURVE",
"93 289 OFFCURVE",
"135 289 CURVE SMOOTH",
"162 289 OFFCURVE",
"178 308 OFFCURVE",
"178 314 CURVE SMOOTH",
"178 318 OFFCURVE",
"146 333 OFFCURVE",
"146 366 CURVE SMOOTH",
"146 411 OFFCURVE",
"185 436 OFFCURVE",
"223 436 CURVE SMOOTH",
"298 436 OFFCURVE",
"326 398 OFFCURVE",
"326 336 CURVE SMOOTH",
"326 257 LINE",
"194 250 OFFCURVE",
"34 242 OFFCURVE",
"34 107 CURVE SMOOTH",
"34 41 OFFCURVE",
"86 -12 OFFCURVE",
"168 -12 CURVE SMOOTH"
);
},
{
closed = 1;
nodes = (
"158 42 OFFCURVE",
"135 63 OFFCURVE",
"135 110 CURVE SMOOTH",
"135 188 OFFCURVE",
"188 218 OFFCURVE",
"326 228 CURVE",
"326 171 LINE",
"326 98 OFFCURVE",
"268 42 OFFCURVE",
"200 42 CURVE SMOOTH"
);
}
);
width = 501;
}
);
leftKerningGroup = a;
rightKerningGroup = a;
unicode = 0061;
},
{
glyphname = aacute;
layers = (
{
background = {
paths = (
{
closed = 1;
nodes = (
"223 436 LINE",
"194 436 LINE",
"146 400 LINE",
"146 366 LINE",
"146 354 LINE",
"156 335 LINE",
"168 323 LINE",
"178 315 LINE",
"178 314 LINE",
"178 309 LINE",
"155 289 LINE",
"135 289 LINE",
"103 289 LINE",
"70 335 LINE",
"70 363 LINE",
"70 391 LINE",
"98 430 LINE",
"143 454 LINE",
"200 465 LINE",
"229 465 LINE",
"263 465 LINE",
"329 454 LINE",
"381 422 LINE",
"414 365 LINE",
"414 319 LINE",
"414 86 LINE",
"414 78 LINE",
"419 58 LINE",
"431 40 LINE",
"451 27 LINE",
"466 27 LINE",
"473 27 LINE",
"481 22 LINE",
"481 11 LINE",
"481 4 LINE",
"469 -5 LINE",
"451 -10 LINE",
"432 -12 LINE",
"426 -12 LINE",
"389 -12 LINE",
"331 31 LINE",
"326 69 LINE",
"315 49 LINE",
"275 19 LINE",
"228 -2 LINE",
"179 -12 LINE",
"158 -12 LINE",
"132 -12 LINE",
"87 7 LINE",
"54 39 LINE",
"34 82 LINE",
"34 107 LINE",
"34 143 LINE",
"69 193 LINE",
"123 225 LINE",
"190 243 LINE",
"255 252 LINE",
"310 255 LINE",
"326 257 LINE",
"326 336 LINE",
"326 383 LINE",
"280 436 LINE"
);
},
{
closed = 1;
nodes = (
"326 227 LINE",
"278 221 LINE",
"206 205 LINE",
"159 181 LINE",
"135 145 LINE",
"135 120 LINE",
"135 88 LINE",
"171 42 LINE",
"200 42 LINE",
"225 42 LINE",
"271 62 LINE",
"306 96 LINE",
"326 144 LINE",
"326 171 LINE"
);
},
{
closed = 1;
nodes = (
"251 518 LINE",
"241 507 LINE",
"221 505 LINE",
"214 509 LINE",
"207 513 LINE",
"201 531 LINE",
"207 542 LINE",
"282 679 LINE",
"290 693 LINE",
"320 706 LINE",
"337 697 LINE",
"354 688 LINE",
"366 652 LINE",
"353 637 LINE"
);
}
);
};
components = (
{
name = a;
},
{
name = acutecomb;
transform = "{1, 0, 0, 1, 19, 7}";
}
);
layerId = UUID0;
width = 501;
}
);
leftKerningGroup = a;
rightKerningGroup = a;
unicode = 00E1;
},
{
glyphname = acircumflex;
layers = (
{
background = {
paths = (
{
closed = 1;
nodes = (
"223 436 LINE",
"194 436 LINE",
"146 400 LINE",
"146 366 LINE",
"146 354 LINE",
"156 335 LINE",
"168 323 LINE",
"178 315 LINE",
"178 314 LINE",
"178 309 LINE",
"155 289 LINE",
"135 289 LINE",
"103 289 LINE",
"70 335 LINE",
"70 363 LINE",
"70 391 LINE",
"98 430 LINE",
"143 454 LINE",
"200 465 LINE",
"229 465 LINE",
"263 465 LINE",
"329 454 LINE",
"381 422 LINE",
"414 365 LINE",
"414 319 LINE",
"414 86 LINE",
"414 78 LINE",
"419 58 LINE",
"431 40 LINE",
"451 27 LINE",
"466 27 LINE",
"473 27 LINE",
"481 22 LINE",
"481 11 LINE",
"481 4 LINE",
"469 -5 LINE",
"451 -10 LINE",
"432 -12 LINE",
"426 -12 LINE",
"389 -12 LINE",
"331 31 LINE",
"326 69 LINE",
"315 49 LINE",
"275 19 LINE",
"228 -2 LINE",
"179 -12 LINE",
"158 -12 LINE",
"132 -12 LINE",
"87 7 LINE",
"54 39 LINE",
"34 82 LINE",
"34 107 LINE",
"34 143 LINE",
"69 193 LINE",
"123 225 LINE",
"190 243 LINE",
"255 252 LINE",
"310 255 LINE",
"326 257 LINE",
"326 336 LINE",
"326 383 LINE",
"280 436 LINE"
);
},
{
closed = 1;
nodes = (
"326 227 LINE",
"278 221 LINE",
"206 205 LINE",
"159 181 LINE",
"135 145 LINE",
"135 120 LINE",
"135 88 LINE",
"171 42 LINE",
"200 42 LINE",
"225 42 LINE",
"271 62 LINE",
"306 96 LINE",
"326 144 LINE",
"326 171 LINE"
);
},
{
closed = 1;
nodes = (
"354 549 LINE",
"361 538 LINE",
"354 523 LINE",
"348 519 LINE",
"342 516 LINE",
"326 517 LINE",
"314 526 LINE",
"300 537 LINE",
"259 583 LINE",
"227 624 LINE",
"195 583 LINE",
"154 537 LINE",
"140 526 LINE",
"128 517 LINE",
"112 516 LINE",
"106 519 LINE",
"100 523 LINE",
"93 538 LINE",
"100 549 LINE",
"202 697 LINE",
"211 710 LINE",
"226 710 LINE",
"233 710 LINE",
"247 705 LINE",
"252 697 LINE"
);
}
);
};
components = (
{
name = a;
},
{
name = circumflexcomb;
transform = "{1, 0, 0, 1, 39, 7}";
}
);
layerId = UUID0;
width = 501;
}
);
leftKerningGroup = a;
rightKerningGroup = a;
unicode = 00E2;
},
{
glyphname = adieresis;
layers = (
{
background = {
paths = (
{
closed = 1;
nodes = (
"223 436 LINE",
"194 436 LINE",
"146 400 LINE",
"146 366 LINE",
"146 354 LINE",
"156 335 LINE",
"168 323 LINE",
"178 315 LINE",
"178 314 LINE",
"178 309 LINE",
"155 289 LINE",
"135 289 LINE",
"103 289 LINE",
"70 335 LINE",
"70 363 LINE",
"70 391 LINE",
"98 430 LINE",
"143 454 LINE",
"200 465 LINE",
"229 465 LINE",
"263 465 LINE",
"329 454 LINE",
"381 422 LINE",
"414 365 LINE",
"414 319 LINE",
"414 86 LINE",
"414 78 LINE",
"419 58 LINE",
"431 40 LINE",
"451 27 LINE",
"466 27 LINE",
"473 27 LINE",
"481 22 LINE",
"481 11 LINE",
"481 4 LINE",
"469 -5 LINE",
"451 -10 LINE",
"432 -12 LINE",
"426 -12 LINE",
"389 -12 LINE",
"331 31 LINE",
"326 69 LINE",
"315 49 LINE",
"275 19 LINE",
"228 -2 LINE",
"179 -12 LINE",
"158 -12 LINE",
"132 -12 LINE",
"87 7 LINE",
"54 39 LINE",
"34 82 LINE",
"34 107 LINE",
"34 143 LINE",
"69 193 LINE",
"123 225 LINE",
"190 243 LINE",
"255 252 LINE",
"310 255 LINE",
"326 257 LINE",
"326 336 LINE",
"326 383 LINE",
"280 436 LINE"
);
},
{
closed = 1;
nodes = (
"326 227 LINE",
"278 221 LINE",
"206 205 LINE",
"159 181 LINE",
"135 145 LINE",
"135 120 LINE",
"135 88 LINE",
"171 42 LINE",
"200 42 LINE",
"225 42 LINE",
"271 62 LINE",
"306 96 LINE",
"326 144 LINE",
"326 171 LINE"
);
},
{
closed = 1;
nodes = (
"150 667 LINE",
"176 667 LINE",
"210 633 LINE",
"210 607 LINE",
"210 583 LINE",
"175 547 LINE",
"149 547 LINE",
"123 547 LINE",
"87 583 LINE",
"87 607 LINE",
"87 633 LINE",
"124 667 LINE"
);
},
{
closed = 1;
nodes = (
"323 667 LINE",
"349 667 LINE",
"383 633 LINE",
"383 607 LINE",
"383 583 LINE",
"348 547 LINE",
"322 547 LINE",
"296 547 LINE",
"260 583 LINE",
"260 607 LINE",
"260 633 LINE",
"297 667 LINE"
);
}
);
};
components = (
{
name = a;
},
{
name = dieresiscomb;
transform = "{1, 0, 0, 1, 32, 7}";
}
);
layerId = UUID0;
width = 501;
}
);
leftKerningGroup = a;
rightKerningGroup = a;
unicode = 00E4;
},
{
glyphname = agrave;
layers = (
{
background = {
paths = (
{
closed = 1;
nodes = (
"223 436 LINE",
"194 436 LINE",
"146 400 LINE",
"146 366 LINE",
"146 354 LINE",
"156 335 LINE",
"168 323 LINE",
"178 315 LINE",
"178 314 LINE",
"178 309 LINE",
"155 289 LINE",
"135 289 LINE",
"103 289 LINE",
"70 335 LINE",
"70 363 LINE",
"70 391 LINE",
"98 430 LINE",
"143 454 LINE",
"200 465 LINE",
"229 465 LINE",
"263 465 LINE",
"329 454 LINE",
"381 422 LINE",
"414 365 LINE",
"414 319 LINE",
"414 86 LINE",
"414 78 LINE",
"419 58 LINE",
"431 40 LINE",
"451 27 LINE",
"466 27 LINE",
"473 27 LINE",
"481 22 LINE",
"481 11 LINE",
"481 4 LINE",
"469 -5 LINE",
"451 -10 LINE",
"432 -12 LINE",
"426 -12 LINE",
"389 -12 LINE",
"331 31 LINE",
"326 69 LINE",
"315 49 LINE",
"275 19 LINE",
"228 -2 LINE",
"179 -12 LINE",
"158 -12 LINE",
"132 -12 LINE",
"87 7 LINE",
"54 39 LINE",
"34 82 LINE",
"34 107 LINE",
"34 143 LINE",
"69 193 LINE",
"123 225 LINE",
"190 243 LINE",
"255 252 LINE",
"310 255 LINE",
"326 257 LINE",
"326 336 LINE",
"326 383 LINE",
"280 436 LINE"
);
},
{
closed = 1;
nodes = (
"326 227 LINE",
"278 221 LINE",
"206 205 LINE",
"159 181 LINE",
"135 145 LINE",
"135 120 LINE",
"135 88 LINE",
"171 42 LINE",
"200 42 LINE",
"225 42 LINE",
"271 62 LINE",
"306 96 LINE",
"326 144 LINE",
"326 171 LINE"
);
},
{
closed = 1;
nodes = (
"122 637 LINE",
"109 652 LINE",
"121 688 LINE",
"138 697 LINE",
"155 706 LINE",
"185 693 LINE",
"193 679 LINE",
"268 542 LINE",
"274 531 LINE",
"268 513 LINE",
"261 509 LINE",
"254 505 LINE",
"234 507 LINE",
"224 518 LINE"
);
}
);
};
components = (
{
name = a;
},
{
name = gravecomb;
transform = "{1, 0, 0, 1, -2, 7}";
}
);
layerId = UUID0;
width = 501;
}
);
leftKerningGroup = a;
rightKerningGroup = a;
unicode = 00E0;
},
{
glyphname = aring;
layers = (
{
background = {
paths = (
{
closed = 1;
nodes = (
"223 436 LINE",
"194 436 LINE",
"146 400 LINE",
"146 366 LINE",
"146 354 LINE",
"156 335 LINE",
"168 323 LINE",
"178 315 LINE",
"178 314 LINE",
"178 309 LINE",
"155 289 LINE",
"135 289 LINE",
"103 289 LINE",
"70 335 LINE",
"70 363 LINE",
"70 391 LINE",
"98 430 LINE",
"143 454 LINE",
"200 465 LINE",
"229 465 LINE",
"263 465 LINE",
"329 454 LINE",
"381 422 LINE",
"414 365 LINE",
"414 319 LINE",
"414 86 LINE",
"414 78 LINE",
"419 58 LINE",
"431 40 LINE",
"451 27 LINE",
"466 27 LINE",
"473 27 LINE",
"481 22 LINE",
"481 11 LINE",
"481 4 LINE",
"469 -5 LINE",
"451 -10 LINE",
"432 -12 LINE",
"426 -12 LINE",
"389 -12 LINE",
"331 31 LINE",
"326 69 LINE",
"315 49 LINE",
"275 19 LINE",
"228 -2 LINE",
"179 -12 LINE",
"158 -12 LINE",
"132 -12 LINE",
"87 7 LINE",
"54 39 LINE",
"34 82 LINE",
"34 107 LINE",
"34 143 LINE",
"69 193 LINE",
"123 225 LINE",
"190 243 LINE",
"255 252 LINE",
"310 255 LINE",
"326 257 LINE",
"326 336 LINE",
"326 383 LINE",
"280 436 LINE"
);
},
{
closed = 1;
nodes = (
"326 227 LINE",
"278 221 LINE",
"206 205 LINE",
"159 181 LINE",
"135 145 LINE",
"135 120 LINE",
"135 88 LINE",
"171 42 LINE",
"200 42 LINE",
"225 42 LINE",
"271 62 LINE",
"306 96 LINE",
"326 144 LINE",
"326 171 LINE"
);
},
{
closed = 1;
nodes = (
"337 601 LINE",
"337 557 LINE",
"279 506 LINE",
"229 506 LINE",
"178 506 LINE",
"119 558 LINE",
"119 601 LINE",
"119 699 LINE",
"229 699 LINE",
"282 699 LINE",
"337 647 LINE"
);
},
{
closed = 1;
nodes = (
"272 601 LINE",
"272 630 LINE",
"254 664 LINE",
"229 664 LINE",
"206 664 LINE",
"184 628 LINE",
"184 601 LINE",
"184 543 LINE",
"229 543 LINE",
"255 543 LINE",
"272 575 LINE"
);
}
);
};
components = (
{
name = a;
},
{
name = ringcomb;
transform = "{1, 0, 0, 1, 79, 7}";
}
);
layerId = UUID0;
width = 501;
}
);
leftKerningGroup = a;
rightKerningGroup = a;
unicode = 00E5;
},
{
glyphname = atilde;
layers = (
{
background = {
paths = (
{
closed = 1;
nodes = (
"223 436 LINE",
"194 436 LINE",
"146 400 LINE",
"146 366 LINE",
"146 354 LINE",
"156 335 LINE",
"168 323 LINE",
"178 315 LINE",
"178 314 LINE",
"178 309 LINE",
"155 289 LINE",
"135 289 LINE",
"103 289 LINE",
"70 335 LINE",
"70 363 LINE",
"70 391 LINE",
"98 430 LINE",
"143 454 LINE",
"200 465 LINE",
"229 465 LINE",
"263 465 LINE",
"329 454 LINE",
"381 422 LINE",
"414 365 LINE",
"414 319 LINE",
"414 86 LINE",
"414 78 LINE",
"419 58 LINE",
"431 40 LINE",
"451 27 LINE",
"466 27 LINE",
"473 27 LINE",
"481 22 LINE",
"481 11 LINE",
"481 4 LINE",
"469 -5 LINE",
"451 -10 LINE",
"432 -12 LINE",
"426 -12 LINE",
"389 -12 LINE",
"331 31 LINE",
"326 69 LINE",
"315 49 LINE",
"275 19 LINE",
"228 -2 LINE",
"179 -12 LINE",
"158 -12 LINE",
"132 -12 LINE",
"87 7 LINE",
"54 39 LINE",
"34 82 LINE",
"34 107 LINE",
"34 143 LINE",
"69 193 LINE",
"123 225 LINE",
"190 243 LINE",
"255 252 LINE",
"310 255 LINE",
"326 257 LINE",
"326 336 LINE",
"326 383 LINE",
"280 436 LINE"
);
},
{
closed = 1;
nodes = (
"326 227 LINE",
"278 221 LINE",
"206 205 LINE",
"159 181 LINE",
"135 145 LINE",
"135 120 LINE",
"135 88 LINE",
"171 42 LINE",
"200 42 LINE",
"225 42 LINE",
"271 62 LINE",
"306 96 LINE",
"326 144 LINE",
"326 171 LINE"
);
},
{
closed = 1;
nodes = (
"390 641 LINE",
"383 625 LINE",
"363 594 LINE",
"336 569 LINE",
"302 554 LINE",
"282 554 LINE",
"261 554 LINE",
"229 573 LINE",
"203 594 LINE",
"180 612 LINE",
"167 612 LINE",
"155 612 LINE",
"120 593 LINE",
"101 570 LINE",
"96 564 LINE",
"82 562 LINE",
"71 566 LINE",
"65 579 LINE",
"68 588 LINE",
"74 604 LINE",
"95 637 LINE",
"123 663 LINE",
"157 679 LINE",
"178 679 LINE",
"199 679 LINE",
"231 660 LINE",
"257 639 LINE",
"280 621 LINE",
"293 621 LINE",
"305 621 LINE",
"341 641 LINE",
"359 663 LINE",
"365 670 LINE",
"379 672 LINE",
"390 665 LINE",
"394 650 LINE"
);
}
);
};
components = (
{
name = a;
},
{
name = tildecomb;
transform = "{1, 0, 0, 1, 21, 7}";
}
);
layerId = UUID0;
width = 501;
}
);
leftKerningGroup = a;
rightKerningGroup = a;
unicode = 00E3;
},
{
glyphname = ae;
layers = (
{
background = {
paths = (
{
closed = 1;
nodes = (
"388 408 LINE",
"416 434 LINE",
"490 465 LINE",
"535 465 LINE",
"581 465 LINE",
"650 440 LINE",
"697 395 LINE",
"724 333 LINE",
"727 297 LINE",
"727 262 LINE",
"688 240 LINE",
"657 240 LINE",
"414 240 LINE",
"414 196 LINE",
"432 122 LINE",
"470 68 LINE",
"530 38 LINE",
"572 38 LINE",
"614 38 LINE",
"674 74 LINE",
"702 119 LINE",
"710 129 LINE",
"724 120 LINE",
"732 115 LINE",
"736 99 LINE",
"732 93 LINE",
"701 44 LINE",
"607 -12 LINE",
"546 -12 LINE",
"471 -12 LINE",
"370 49 LINE",
"343 99 LINE",
"338 89 LINE",
"327 70 LINE",
"321 61 LINE",
"309 43 LINE",
"269 16 LINE",
"224 -3 LINE",
"177 -12 LINE",
"158 -12 LINE",
"132 -12 LINE",
"87 7 LINE",
"54 39 LINE",
"34 82 LINE",
"34 107 LINE",
"34 143 LINE",
"69 193 LINE",
"123 225 LINE",
"190 243 LINE",
"255 252 LINE",
"310 255 LINE",
"326 257 LINE",
"326 336 LINE",
"326 383 LINE",
"280 436 LINE",
"223 436 LINE",
"194 436 LINE",
"146 400 LINE",
"146 366 LINE",
"146 354 LINE",
"156 335 LINE",
"168 323 LINE",
"178 315 LINE",
"178 314 LINE",
"178 309 LINE",
"155 289 LINE",
"135 289 LINE",
"103 289 LINE",
"70 335 LINE",
"70 363 LINE",
"70 391 LINE",
"98 430 LINE",
"143 454 LINE",
"200 465 LINE",
"229 465 LINE",
"275 465 LINE",
"362 443 LINE"
);
},
{
closed = 1;
nodes = (
"326 227 LINE",
"278 221 LINE",
"206 205 LINE",
"159 181 LINE",
"135 145 LINE",
"135 120 LINE",
"135 88 LINE",
"171 42 LINE",
"200 42 LINE",
"225 42 LINE",
"271 62 LINE",
"306 96 LINE",
"326 144 LINE",
"326 171 LINE"
);
},
{
closed = 1;
nodes = (
"577 278 LINE",
"601 278 LINE",
"629 297 LINE",
"631 320 LINE",
"631 341 LINE",
"619 381 LINE",
"595 412 LINE",
"559 430 LINE",
"535 430 LINE",
"484 430 LINE",
"418 350 LINE",
"414 278 LINE"
);
}
);
};
layerId = UUID0;
paths = (
{
closed = 1;
nodes = (
"210 -12 OFFCURVE",
"288 13 OFFCURVE",
"321 61 CURVE SMOOTH",
"329 73 OFFCURVE",
"336 86 OFFCURVE",
"343 99 CURVE",
"379 33 OFFCURVE",
"447 -12 OFFCURVE",
"546 -12 CURVE SMOOTH",
"627 -12 OFFCURVE",
"691 28 OFFCURVE",
"732 93 CURVE",
"737 101 OFFCURVE",
"734 114 OFFCURVE",
"724 120 CURVE SMOOTH",
"715 126 OFFCURVE",
"707 125 OFFCURVE",
"702 119 CURVE",
"665 59 OFFCURVE",
"628 38 OFFCURVE",
"572 38 CURVE SMOOTH",
"459 38 OFFCURVE",
"414 124 OFFCURVE",
"414 240 CURVE",
"657 240 LINE SMOOTH",
"698 240 OFFCURVE",
"727 250 OFFCURVE",
"727 297 CURVE",
"718 394 OFFCURVE",
"658 465 OFFCURVE",
"535 465 CURVE SMOOTH",
"476 465 OFFCURVE",
"425 443 OFFCURVE",
"388 408 CURVE",
"354 454 OFFCURVE",
"290 465 OFFCURVE",
"229 465 CURVE SMOOTH",
"152 465 OFFCURVE",
"70 438 OFFCURVE",
"70 363 CURVE SMOOTH",
"70 326 OFFCURVE",
"93 289 OFFCURVE",
"135 289 CURVE SMOOTH",
"162 289 OFFCURVE",
"178 308 OFFCURVE",
"178 314 CURVE SMOOTH",
"178 318 OFFCURVE",
"146 333 OFFCURVE",
"146 366 CURVE SMOOTH",
"146 411 OFFCURVE",
"185 436 OFFCURVE",
"223 436 CURVE SMOOTH",
"298 436 OFFCURVE",
"326 398 OFFCURVE",
"326 336 CURVE SMOOTH",
"326 257 LINE",
"264 250 OFFCURVE",
"34 252 OFFCURVE",
"34 107 CURVE SMOOTH",
"34 41 OFFCURVE",
"90 -12 OFFCURVE",
"158 -12 CURVE SMOOTH"
);
},
{
closed = 1;
nodes = (
"161 42 OFFCURVE",
"135 77 OFFCURVE",
"135 120 CURVE SMOOTH",
"135 188 OFFCURVE",
"198 210 OFFCURVE",
"326 227 CURVE",
"326 171 LINE",
"326 98 OFFCURVE",
"268 42 OFFCURVE",
"200 42 CURVE SMOOTH"
);
},
{
closed = 1;
nodes = (
"419 374 OFFCURVE",
"468 430 OFFCURVE",
"535 430 CURVE SMOOTH",
"600 430 OFFCURVE",
"631 377 OFFCURVE",
"631 320 CURVE",
"629 289 OFFCURVE",
"609 278 OFFCURVE",
"577 278 CURVE SMOOTH",
"414 278 LINE"
);
}
);
width = 773;
}
);
leftKerningGroup = a;
rightKerningGroup = e;
unicode = 00E6;
},
{
glyphname = b;
layers = (
{
anchors = (
{
name = bottom;
position = "{281, 0}";
},
{
name = top;
position = "{281, 460}";
}
);
background = {
paths = (
{
closed = 1;
nodes = (
"78 590 LINE",
"78 603 LINE",
"78 628 LINE",
"69 647 LINE",
"48 658 LINE",
"27 658 LINE",
"18 658 LINE",
"3 663 LINE",
"3 678 LINE",
"3 684 LINE",
"11 694 LINE",
"19 696 LINE",
"53 701 LINE",
"97 712 LINE",
"125 721 LINE",
"142 727 LINE",
"150 728 LINE",
"158 729 LINE",
"169 721 LINE",
"169 709 LINE",
"169 407 LINE",
"172 407 LINE",
"202 437 LINE",
"275 465 LINE",
"310 465 LINE",
"354 465 LINE",
"431 431 LINE",
"488 369 LINE",
"520 282 LINE",
"520 230 LINE",
"520 179 LINE",
"482 90 LINE",
"419 25 LINE",
"336 -12 LINE",
"291 -12 LINE",
"202 -12 LINE",
"137 37 LINE",
"132 37 LINE",
"128 29 LINE",
"122 12 LINE",
"114 -4 LINE",
"104 -14 LINE",
"97 -14 LINE",
"88 -14 LINE",
"78 -2 LINE",
"78 6 LINE"
);
},
{
closed = 1;
nodes = (
"418 226 LINE",
"418 261 LINE",
"402 329 LINE",
"367 382 LINE",
"313 415 LINE",
"275 415 LINE",
"241 415 LINE",
"189 391 LINE",
"169 369 LINE",
"169 105 LINE",
"171 94 LINE",
"187 66 LINE",
"216 40 LINE",
"256 22 LINE",
"282 22 LINE",
"312 22 LINE",
"362 50 LINE",
"398 103 LINE",
"418 179 LINE"
);
}
);
};
layerId = UUID0;
paths = (
{
closed = 1;
nodes = (
"117 -14 OFFCURVE",
"122 17 OFFCURVE",
"132 37 CURVE",
"137 37 LINE",
"181 4 OFFCURVE",
"230 -12 OFFCURVE",
"291 -12 CURVE SMOOTH",
"412 -12 OFFCURVE",
"520 93 OFFCURVE",
"520 230 CURVE SMOOTH",
"520 369 OFFCURVE",
"428 465 OFFCURVE",
"310 465 CURVE SMOOTH",
"264 465 OFFCURVE",
"212 447 OFFCURVE",
"172 407 CURVE",
"169 407 LINE",
"169 709 LINE SMOOTH",
"169 725 OFFCURVE",
"160 729 OFFCURVE",
"150 728 CURVE SMOOTH",
"130 726 OFFCURVE",
"110 709 OFFCURVE",
"19 696 CURVE SMOOTH",
"8 694 OFFCURVE",
"3 686 OFFCURVE",
"3 678 CURVE SMOOTH",
"3 658 OFFCURVE",
"15 658 OFFCURVE",
"27 658 CURVE SMOOTH",
"82 658 OFFCURVE",
"78 625 OFFCURVE",
"78 590 CURVE SMOOTH",
"78 6 LINE SMOOTH",
"78 -5 OFFCURVE",
"85 -14 OFFCURVE",
"97 -14 CURVE SMOOTH"
);
},
{
closed = 1;
nodes = (
"212 22 OFFCURVE",
"175 77 OFFCURVE",
"169 105 CURVE",
"169 369 LINE",
"196 398 OFFCURVE",
"230 415 OFFCURVE",
"275 415 CURVE SMOOTH",
"377 415 OFFCURVE",
"418 319 OFFCURVE",
"418 226 CURVE SMOOTH",
"418 100 OFFCURVE",
"362 22 OFFCURVE",
"282 22 CURVE SMOOTH"
);
}
);
width = 561;
}
);
leftKerningGroup = b;
rightKerningGroup = o;
unicode = 0062;
},
{
glyphname = c;
layers = (
{
anchors = (
{
name = bottom;
position = "{238, 0}";
},
{
name = top;
position = "{238, 460}";
}
);
background = {
paths = (
{
closed = 1;
nodes = (
"411 113 LINE",
"418 123 LINE",
"432 115 LINE",
"439 111 LINE",
"445 97 LINE",
"440 90 LINE",
"407 42 LINE",
"310 -12 LINE",
"259 -12 LINE",
"208 -12 LINE",
"127 22 LINE",
"71 85 LINE",
"41 173 LINE",
"41 227 LINE",
"43 279 LINE",
"80 365 LINE",
"143 428 LINE",
"228 463 LINE",
"276 465 LINE",
"289 465 LINE",
"336 461 LINE",
"383 445 LINE",
"423 412 LINE",
"431 382 LINE",
"435 365 LINE",
"430 330 LINE",
"413 301 LINE",
"384 283 LINE",
"365 283 LINE",
"343 283 LINE",
"319 305 LINE",
"319 310 LINE",
"319 311 LINE",
"329 319 LINE",
"342 333 LINE",
"352 352 LINE",
"352 365 LINE",
"352 397 LINE",
"306 427 LINE",
"277 428 LINE",
"233 428 LINE",
"180 391 LINE",
"152 333 LINE",
"143 263 LINE",
"143 230 LINE",
"143 189 LINE",
"162 118 LINE",
"198 67 LINE",
"250 38 LINE",
"282 38 LINE",
"326 38 LINE",
"386 75 LINE"
);
}
);
};
layerId = UUID0;
paths = (
{
closed = 1;
nodes = (
"326 -12 OFFCURVE",
"396 27 OFFCURVE",
"440 90 CURVE",
"446 99 OFFCURVE",
"441 110 OFFCURVE",
"432 115 CURVE SMOOTH",
"423 120 OFFCURVE",
"415 119 OFFCURVE",
"411 113 CURVE",
"378 63 OFFCURVE",
"340 38 OFFCURVE",
"282 38 CURVE SMOOTH",
"196 38 OFFCURVE",
"143 120 OFFCURVE",
"143 230 CURVE SMOOTH",
"143 318 OFFCURVE",
"160 429 OFFCURVE",
"277 428 CURVE",
"315 427 OFFCURVE",
"352 408 OFFCURVE",
"352 365 CURVE SMOOTH",
"352 330 OFFCURVE",
"319 314 OFFCURVE",
"319 310 CURVE SMOOTH",
"319 303 OFFCURVE",
"336 283 OFFCURVE",
"365 283 CURVE SMOOTH",
"408 283 OFFCURVE",
"433 322 OFFCURVE",
"433 361 CURVE SMOOTH",
"433 444 OFFCURVE",
"346 465 OFFCURVE",
"276 465 CURVE",
"147 461 OFFCURVE",
"46 365 OFFCURVE",
"41 227 CURVE SMOOTH",
"41 83 OFFCURVE",
"122 -12 OFFCURVE",
"259 -12 CURVE SMOOTH"
);
}
);
width = 475;
}
);
leftKerningGroup = o;
rightKerningGroup = c;
unicode = 0063;
},
{
glyphname = ccedilla;
layers = (
{
background = {
paths = (
{
closed = 1;
nodes = (
"411 113 LINE",
"418 123 LINE",
"432 115 LINE",
"439 111 LINE",
"445 97 LINE",
"440 90 LINE",
"407 42 LINE",
"358 15 LINE",
"316 -8 LINE",
"272 -11 LINE",
"272 -41 LINE",
"289 -41 LINE",
"324 -48 LINE",
"352 -65 LINE",
"369 -91 LINE",
"369 -111 LINE",
"369 -137 LINE",
"342 -174 LINE",
"294 -197 LINE",
"226 -208 LINE",
"185 -208 LINE",
"175 -208 LINE",
"165 -193 LINE",
"165 -184 LINE",
"165 -170 LINE",
"177 -162 LINE",
"185 -162 LINE",
"206 -162 LINE",
"245 -161 LINE",
"277 -154 LINE",
"296 -140 LINE",
"296 -126 LINE",
"296 -110 LINE",
"265 -98 LINE",
"239 -96 LINE",
"234 -95 LINE",
"223 -89 LINE",
"223 -73 LINE",
"223 -9 LINE",
"193 -6 LINE",
"167 5 LINE",
"127 22 LINE",
"71 85 LINE",
"41 173 LINE",
"41 227 LINE",
"43 279 LINE",
"80 365 LINE",
"143 428 LINE",
"228 463 LINE",
"276 465 LINE",
"289 465 LINE",
"336 461 LINE",
"383 445 LINE",
"423 412 LINE",
"431 382 LINE",
"435 365 LINE",
"430 330 LINE",
"413 301 LINE",
"384 283 LINE",
"365 283 LINE",
"343 283 LINE",
"319 305 LINE",
"319 310 LINE",
"319 311 LINE",
"329 319 LINE",
"342 333 LINE",
"352 352 LINE",
"352 365 LINE",
"352 397 LINE",
"306 427 LINE",
"277 428 LINE",
"233 428 LINE",
"180 391 LINE",
"152 333 LINE",
"143 263 LINE",
"143 230 LINE",
"143 189 LINE",
"162 118 LINE",
"198 67 LINE",
"250 38 LINE",
"282 38 LINE",
"326 38 LINE",
"386 75 LINE"
);
}
);
};
layerId = UUID0;
paths = (
{
closed = 1;
nodes = (
"264 -208 OFFCURVE",
"339 -181 OFFCURVE",
"339 -111 CURVE SMOOTH",
"339 -58 OFFCURVE",
"288 -42 OFFCURVE",
"242 -41 CURVE",
"242 -11 LINE",
"247 -12 OFFCURVE",
"253 -12 OFFCURVE",
"259 -12 CURVE SMOOTH",
"326 -12 OFFCURVE",
"396 27 OFFCURVE",
"440 90 CURVE SMOOTH",
"446 99 OFFCURVE",
"441 110 OFFCURVE",
"432 115 CURVE SMOOTH",
"423 120 OFFCURVE",
"415 119 OFFCURVE",
"411 113 CURVE SMOOTH",
"378 63 OFFCURVE",
"340 38 OFFCURVE",
"282 38 CURVE SMOOTH",
"196 38 OFFCURVE",
"143 120 OFFCURVE",
"143 230 CURVE SMOOTH",
"143 318 OFFCURVE",
"160 429 OFFCURVE",
"277 428 CURVE",
"315 427 OFFCURVE",
"352 408 OFFCURVE",
"352 365 CURVE SMOOTH",
"352 330 OFFCURVE",
"319 314 OFFCURVE",
"319 310 CURVE SMOOTH",
"319 303 OFFCURVE",
"336 283 OFFCURVE",
"365 283 CURVE SMOOTH",
"416 283 OFFCURVE",
"442 337 OFFCURVE",
"431 382 CURVE SMOOTH",
"411 461 OFFCURVE",
"312 465 OFFCURVE",
"276 465 CURVE",
"147 461 OFFCURVE",
"46 365 OFFCURVE",
"41 227 CURVE",
"41 108 OFFCURVE",
"96 22 OFFCURVE",
"193 -3 CURVE",
"193 -73 LINE SMOOTH",
"193 -94 OFFCURVE",
"202 -95 OFFCURVE",
"209 -96 CURVE SMOOTH",
"243 -99 OFFCURVE",
"266 -105 OFFCURVE",
"266 -126 CURVE SMOOTH",
"266 -162 OFFCURVE",
"210 -162 OFFCURVE",
"155 -162 CURVE SMOOTH",
"144 -162 OFFCURVE",
"135 -165 OFFCURVE",
"135 -184 CURVE SMOOTH",
"135 -196 OFFCURVE",
"142 -208 OFFCURVE",
"155 -208 CURVE SMOOTH"
);
}
);
width = 475;
}
);
leftKerningGroup = o;
rightKerningGroup = c;
unicode = 00E7;
},
{
glyphname = d;
layers = (
{
anchors = (
{
name = bottom;
position = "{290, 0}";
},
{
name = center;
position = "{290, 230}";
},
{
name = top;
position = "{290, 460}";
},
{
name = topright;
position = "{560, 460}";
}
);
background = {
paths = (
{
closed = 1;
nodes = (
"391 352 LINE",
"387 364 LINE",
"370 392 LINE",
"343 414 LINE",
"306 429 LINE",
"282 429 LINE",
"253 429 LINE",
"203 401 LINE",
"165 348 LINE",
"144 271 LINE",
"144 222 LINE",
"144 186 LINE",
"161 120 LINE",
"196 69 LINE",
"249 38 LINE",
"285 38 LINE",
"323 38 LINE",
"373 69 LINE",
"391 88 LINE"
);
},
{
closed = 1;
nodes = (
"482 92 LINE",
"482 63 LINE",
"519 33 LINE",
"560 33 LINE",
"571 33 LINE",
"577 22 LINE",
"577 17 LINE",
"577 3 LINE",
"560 0 LINE",
"401 -11 LINE",
"393 -11 LINE",
"392 1 LINE",
"392 9 LINE",
"392 49 LINE",
"389 49 LINE",
"363 23 LINE",
"289 -12 LINE",
"251 -12 LINE",
"209 -12 LINE",
"133 23 LINE",
"75 86 LINE",
"41 174 LINE",
"41 227 LINE",
"41 273 LINE",
"75 359 LINE",
"137 425 LINE",
"221 465 LINE",
"272 465 LINE",
"304 465 LINE",
"365 450 LINE",
"388 437 LINE",
"391 437 LINE",
"391 590 LINE",
"391 603 LINE",
"391 628 LINE",
"382 647 LINE",
"361 658 LINE",
"340 658 LINE",
"331 658 LINE",
"316 663 LINE",
"316 678 LINE",
"316 684 LINE",
"324 694 LINE",
"332 696 LINE",
"366 701 LINE",
"410 712 LINE",
"438 721 LINE",
"455 727 LINE",
"463 728 LINE",
"471 729 LINE",
"482 721 LINE",
"482 709 LINE"
);
}
);
};
layerId = UUID0;
paths = (
{
closed = 1;
nodes = (
"302 -12 OFFCURVE",
"355 14 OFFCURVE",
"389 49 CURVE",
"392 49 LINE",
"392 9 LINE SMOOTH",
"392 -2 OFFCURVE",
"391 -11 OFFCURVE",
"401 -11 CURVE",
"560 0 LINE",
"572 2 OFFCURVE",
"577 8 OFFCURVE",
"577 17 CURVE SMOOTH",
"577 23 OFFCURVE",
"575 33 OFFCURVE",
"560 33 CURVE SMOOTH",
"506 33 OFFCURVE",
"482 53 OFFCURVE",
"482 92 CURVE SMOOTH",
"482 709 LINE",
"482 725 OFFCURVE",
"473 729 OFFCURVE",
"463 728 CURVE SMOOTH",
"443 726 OFFCURVE",
"423 709 OFFCURVE",
"332 696 CURVE SMOOTH",
"321 694 OFFCURVE",
"316 686 OFFCURVE",
"316 678 CURVE SMOOTH",
"316 658 OFFCURVE",
"328 658 OFFCURVE",
"340 658 CURVE SMOOTH",
"395 658 OFFCURVE",
"391 625 OFFCURVE",
"391 590 CURVE",
"391 437 LINE",
"388 437 LINE",
"358 454 OFFCURVE",
"314 465 OFFCURVE",
"272 465 CURVE SMOOTH",
"137 465 OFFCURVE",
"41 351 OFFCURVE",
"41 227 CURVE SMOOTH",
"41 85 OFFCURVE",
"139 -12 OFFCURVE",
"251 -12 CURVE SMOOTH"
);
},
{
closed = 1;
nodes = (
"189 38 OFFCURVE",
"144 127 OFFCURVE",
"144 222 CURVE SMOOTH",
"144 353 OFFCURVE",
"205 429 OFFCURVE",
"282 429 CURVE SMOOTH",
"345 429 OFFCURVE",
"381 385 OFFCURVE",
"391 352 CURVE",
"391 88 LINE",
"367 63 OFFCURVE",
"336 38 OFFCURVE",
"285 38 CURVE SMOOTH"
);
}
);
width = 580;
}
);
leftKerningGroup = o;
rightKerningGroup = d;
unicode = 0064;
},
{
glyphname = eth;
layers = (
{
background = {
paths = (
{
closed = 1;
nodes = (
"271 25 LINE",
"307 25 LINE",
"357 57 LINE",
"388 113 LINE",
"402 186 LINE",
"402 228 LINE",
"402 267 LINE",
"387 337 LINE",
"356 388 LINE",
"306 418 LINE",
"271 418 LINE",
"234 418 LINE",
"184 386 LINE",
"153 332 LINE",
"140 259 LINE",
"140 217 LINE",
"140 178 LINE",
"154 108 LINE",
"185 56 LINE",
"235 25 LINE"
);
},
{
closed = 1;
nodes = (
"231 691 LINE",
"222 698 LINE",
"218 709 LINE",
"220 716 LINE",
"222 722 LINE",
"233 731 LINE",
"242 726 LINE",
"252 721 LINE",
"279 704 LINE",
"307 685 LINE",
"332 665 LINE",
"340 657 LINE",
"426 709 LINE",
"431 712 LINE",
"442 703 LINE",
"450 689 LINE",
"450 674 LINE",
"445 671 LINE",
"369 627 LINE",
"401 593 LINE",
"452 504 LINE",
"487 400 LINE",
"504 286 LINE",
"501 228 LINE",
"499 168 LINE",
"456 78 LINE",
"390 18 LINE",
"310 -12 LINE",
"271 -12 LINE",
"218 -12 LINE",
"134 25 LINE",
"74 88 LINE",
"42 170 LINE",
"42 215 LINE",
"42 274 LINE",
"84 365 LINE",
"150 425 LINE",
"231 456 LINE",
"271 455 LINE",
"318 454 LINE",
"372 424 LINE",
"396 405 LINE",
"400 406 LINE",
"393 466 LINE",
"347 559 LINE",
"319 599 LINE",
"222 542 LINE",
"216 540 LINE",
"205 550 LINE",
"199 564 LINE",
"199 578 LINE",
"205 581 LINE",
"295 632 LINE",
"283 648 LINE",
"249 678 LINE"
);
}
);
};
layerId = UUID0;
paths = (
{
closed = 1;
nodes = (
"375 -12 OFFCURVE",
"495 69 OFFCURVE",
"501 228 CURVE",
"509 384 OFFCURVE",
"454 537 OFFCURVE",
"369 627 CURVE",
"445 671 LINE",
"459 680 OFFCURVE",
"440 716 OFFCURVE",
"426 709 CURVE",
"340 657 LINE",
"318 678 OFFCURVE",
"269 713 OFFCURVE",
"242 726 CURVE",
"230 732 OFFCURVE",
"223 724 OFFCURVE",
"220 716 CURVE SMOOTH",
"218 707 OFFCURVE",
"219 700 OFFCURVE",
"231 691 CURVE",
"255 674 OFFCURVE",
"279 653 OFFCURVE",
"295 632 CURVE",
"205 581 LINE",
"190 573 OFFCURVE",
"206 537 OFFCURVE",
"222 542 CURVE",
"319 599 LINE",
"356 546 OFFCURVE",
"391 485 OFFCURVE",
"400 406 CURVE",
"396 405 LINE",
"364 430 OFFCURVE",
"334 454 OFFCURVE",
"271 455 CURVE SMOOTH",
"165 457 OFFCURVE",
"42 373 OFFCURVE",
"42 215 CURVE SMOOTH",
"42 95 OFFCURVE",
"131 -12 OFFCURVE",
"271 -12 CURVE SMOOTH"
);
},
{
closed = 1;
nodes = (
"175 25 OFFCURVE",
"140 113 OFFCURVE",
"140 217 CURVE SMOOTH",
"140 328 OFFCURVE",
"172 418 OFFCURVE",
"271 418 CURVE SMOOTH",
"365 418 OFFCURVE",
"402 333 OFFCURVE",
"402 228 CURVE SMOOTH",
"402 117 OFFCURVE",
"368 25 OFFCURVE",
"271 25 CURVE SMOOTH"
);
}
);
width = 563;
}
);
leftKerningGroup = o;
rightKerningGroup = o;
unicode = 00F0;
},
{
glyphname = e;
layers = (
{
anchors = (
{
name = bottom;
position = "{281, 0}";
},
{
name = ogonek;
position = "{372, 10}";
},
{
name = top;
position = "{251, 460}";
}
);
background = {
paths = (
{
closed = 1;
nodes = (
"306 278 LINE",
"330 278 LINE",
"358 297 LINE",
"360 320 LINE",
"360 341 LINE",
"348 381 LINE",
"324 412 LINE",
"288 430 LINE",
"264 430 LINE",
"213 430 LINE",
"147 350 LINE",
"143 278 LINE"
);
},
{
closed = 1;
nodes = (
"461 93 LINE",
"430 44 LINE",
"336 -12 LINE",
"275 -12 LINE",
"217 -12 LINE",
"129 26 LINE",
"71 92 LINE",
"41 180 LINE",
"41 229 LINE",
"41 272 LINE",
"72 357 LINE",
"130 424 LINE",
"212 465 LINE",
"264 465 LINE",
"310 465 LINE",
"379 440 LINE",
"426 395 LINE",
"453 333 LINE",
"456 297 LINE",
"456 262 LINE",
"417 240 LINE",
"386 240 LINE",
"143 240 LINE",
"143 196 LINE",
"161 122 LINE",
"199 68 LINE",
"259 38 LINE",
"301 38 LINE",
"343 38 LINE",
"403 74 LINE",
"431 119 LINE",
"439 129 LINE",
"453 120 LINE",
"461 115 LINE",
"465 99 LINE"
);
}
);
};
layerId = UUID0;
paths = (
{
closed = 1;
nodes = (
"356 -12 OFFCURVE",
"420 28 OFFCURVE",
"461 93 CURVE",
"466 101 OFFCURVE",
"463 114 OFFCURVE",
"453 120 CURVE SMOOTH",
"444 126 OFFCURVE",
"436 125 OFFCURVE",
"431 119 CURVE",
"394 59 OFFCURVE",
"357 38 OFFCURVE",
"301 38 CURVE SMOOTH",
"188 38 OFFCURVE",
"143 124 OFFCURVE",
"143 240 CURVE",
"386 240 LINE SMOOTH",
"427 240 OFFCURVE",
"456 250 OFFCURVE",
"456 297 CURVE",
"447 394 OFFCURVE",
"387 465 OFFCURVE",
"264 465 CURVE SMOOTH",
"126 465 OFFCURVE",
"41 345 OFFCURVE",
"41 229 CURVE SMOOTH",
"41 98 OFFCURVE",
"120 -12 OFFCURVE",
"275 -12 CURVE SMOOTH"
);
},
{
closed = 1;
nodes = (
"148 374 OFFCURVE",
"197 430 OFFCURVE",
"264 430 CURVE SMOOTH",
"329 430 OFFCURVE",
"360 377 OFFCURVE",
"360 320 CURVE",
"358 289 OFFCURVE",
"338 278 OFFCURVE",
"306 278 CURVE SMOOTH",
"143 278 LINE"
);
}
);
width = 502;
}
);
leftKerningGroup = o;
rightKerningGroup = e;
unicode = 0065;
},
{
glyphname = eacute;
layers = (
{
background = {
paths = (
{
closed = 1;
nodes = (
"306 278 LINE",
"330 278 LINE",
"358 297 LINE",
"360 320 LINE",
"360 341 LINE",
"348 381 LINE",
"324 412 LINE",
"288 430 LINE",
"264 430 LINE",
"213 430 LINE",
"147 350 LINE",
"143 278 LINE"
);
},
{
closed = 1;
nodes = (
"461 93 LINE",
"430 44 LINE",
"336 -12 LINE",
"275 -12 LINE",
"217 -12 LINE",
"129 26 LINE",
"71 92 LINE",
"41 180 LINE",
"41 229 LINE",
"41 272 LINE",
"72 357 LINE",
"130 424 LINE",
"212 465 LINE",
"264 465 LINE",
"310 465 LINE",
"379 440 LINE",
"426 395 LINE",
"453 333 LINE",
"456 297 LINE",
"456 262 LINE",
"417 240 LINE",
"386 240 LINE",
"143 240 LINE",
"143 196 LINE",
"161 122 LINE",
"199 68 LINE",
"259 38 LINE",
"301 38 LINE",
"343 38 LINE",
"403 74 LINE",
"431 119 LINE",
"439 129 LINE",
"453 120 LINE",
"461 115 LINE",
"465 99 LINE"
);
},
{
closed = 1;
nodes = (
"277 518 LINE",
"267 507 LINE",
"247 505 LINE",
"240 509 LINE",
"233 513 LINE",
"227 531 LINE",
"233 542 LINE",
"308 679 LINE",
"316 693 LINE",
"346 706 LINE",
"363 697 LINE",
"380 688 LINE",
"392 652 LINE",
"379 637 LINE"
);
}
);
};
components = (
{
name = e;
},
{
name = acutecomb;
transform = "{1, 0, 0, 1, 39, 7}";
}
);
layerId = UUID0;
width = 502;
}
);
leftKerningGroup = o;
rightKerningGroup = e;
unicode = 00E9;
},
{
glyphname = ecircumflex;
layers = (
{
background = {
paths = (
{
closed = 1;
nodes = (
"306 278 LINE",
"330 278 LINE",
"358 297 LINE",
"360 320 LINE",
"360 341 LINE",
"348 381 LINE",
"324 412 LINE",
"288 430 LINE",
"264 430 LINE",
"213 430 LINE",
"147 350 LINE",
"143 278 LINE"
);
},
{
closed = 1;
nodes = (
"461 93 LINE",
"430 44 LINE",
"336 -12 LINE",
"275 -12 LINE",
"217 -12 LINE",
"129 26 LINE",
"71 92 LINE",
"41 180 LINE",
"41 229 LINE",
"41 272 LINE",
"72 357 LINE",
"130 424 LINE",
"212 465 LINE",
"264 465 LINE",
"310 465 LINE",
"379 440 LINE",
"426 395 LINE",
"453 333 LINE",
"456 297 LINE",
"456 262 LINE",
"417 240 LINE",
"386 240 LINE",
"143 240 LINE",
"143 196 LINE",
"161 122 LINE",
"199 68 LINE",
"259 38 LINE",
"301 38 LINE",
"343 38 LINE",
"403 74 LINE",
"431 119 LINE",
"439 129 LINE",
"453 120 LINE",
"461 115 LINE",
"465 99 LINE"
);
},
{
closed = 1;
nodes = (
"390 549 LINE",
"397 538 LINE",
"390 523 LINE",
"384 519 LINE",
"378 516 LINE",
"362 517 LINE",
"350 526 LINE",
"336 537 LINE",
"295 583 LINE",
"263 624 LINE",
"231 583 LINE",
"190 537 LINE",
"176 526 LINE",
"164 517 LINE",
"148 516 LINE",
"142 519 LINE",
"136 523 LINE",
"129 538 LINE",
"136 549 LINE",
"238 697 LINE",
"247 710 LINE",
"262 710 LINE",
"269 710 LINE",
"283 705 LINE",
"288 697 LINE"
);
}
);
};
components = (
{
name = e;
},
{
name = circumflexcomb;
transform = "{1, 0, 0, 1, 59, 7}";
}
);
layerId = UUID0;
width = 502;
}
);
leftKerningGroup = o;
rightKerningGroup = e;
unicode = 00EA;
},
{
glyphname = edieresis;
layers = (
{
background = {
paths = (
{
closed = 1;
nodes = (
"306 278 LINE",
"330 278 LINE",
"358 297 LINE",
"360 320 LINE",
"360 341 LINE",
"348 381 LINE",
"324 412 LINE",
"288 430 LINE",
"264 430 LINE",
"213 430 LINE",
"147 350 LINE",
"143 278 LINE"
);
},
{
closed = 1;
nodes = (
"461 93 LINE",
"430 44 LINE",
"336 -12 LINE",
"275 -12 LINE",
"217 -12 LINE",
"129 26 LINE",
"71 92 LINE",
"41 180 LINE",
"41 229 LINE",
"41 272 LINE",
"72 357 LINE",
"130 424 LINE",
"212 465 LINE",
"264 465 LINE",
"310 465 LINE",
"379 440 LINE",
"426 395 LINE",
"453 333 LINE",
"456 297 LINE",
"456 262 LINE",
"417 240 LINE",
"386 240 LINE",
"143 240 LINE",
"143 196 LINE",
"161 122 LINE",
"199 68 LINE",
"259 38 LINE",
"301 38 LINE",
"343 38 LINE",
"403 74 LINE",
"431 119 LINE",
"439 129 LINE",
"453 120 LINE",
"461 115 LINE",
"465 99 LINE"
);
},
{
closed = 1;
nodes = (
"186 667 LINE",
"212 667 LINE",
"246 633 LINE",
"246 607 LINE",
"246 583 LINE",
"211 547 LINE",
"185 547 LINE",
"159 547 LINE",
"123 583 LINE",
"123 607 LINE",
"123 633 LINE",
"160 667 LINE"
);
},
{
closed = 1;
nodes = (
"359 667 LINE",
"385 667 LINE",
"419 633 LINE",
"419 607 LINE",
"419 583 LINE",
"384 547 LINE",
"358 547 LINE",
"332 547 LINE",
"296 583 LINE",
"296 607 LINE",
"296 633 LINE",
"333 667 LINE"
);
}
);
};
components = (
{
name = e;
},
{
name = dieresiscomb;
transform = "{1, 0, 0, 1, 52, 7}";
}
);
layerId = UUID0;
width = 502;
}
);
leftKerningGroup = o;
rightKerningGroup = e;
unicode = 00EB;
},
{
glyphname = egrave;
layers = (
{
background = {
paths = (
{
closed = 1;
nodes = (
"306 278 LINE",
"330 278 LINE",
"358 297 LINE",
"360 320 LINE",
"360 341 LINE",
"348 381 LINE",
"324 412 LINE",
"288 430 LINE",
"264 430 LINE",
"213 430 LINE",
"147 350 LINE",
"143 278 LINE"
);
},
{
closed = 1;
nodes = (
"461 93 LINE",
"430 44 LINE",
"336 -12 LINE",
"275 -12 LINE",
"217 -12 LINE",
"129 26 LINE",
"71 92 LINE",
"41 180 LINE",
"41 229 LINE",
"41 272 LINE",
"72 357 LINE",
"130 424 LINE",
"212 465 LINE",
"264 465 LINE",
"310 465 LINE",
"379 440 LINE",
"426 395 LINE",
"453 333 LINE",
"456 297 LINE",
"456 262 LINE",
"417 240 LINE",
"386 240 LINE",
"143 240 LINE",
"143 196 LINE",
"161 122 LINE",
"199 68 LINE",
"259 38 LINE",
"301 38 LINE",
"343 38 LINE",
"403 74 LINE",
"431 119 LINE",
"439 129 LINE",
"453 120 LINE",
"461 115 LINE",
"465 99 LINE"
);
},
{
closed = 1;
nodes = (
"158 637 LINE",
"145 652 LINE",
"157 688 LINE",
"174 697 LINE",
"191 706 LINE",
"221 693 LINE",
"229 679 LINE",
"304 542 LINE",
"310 531 LINE",
"304 513 LINE",
"297 509 LINE",
"290 505 LINE",
"270 507 LINE",
"260 518 LINE"
);
}
);
};
components = (
{
name = e;
},
{
name = gravecomb;
transform = "{1, 0, 0, 1, 18, 7}";
}
);
layerId = UUID0;
width = 502;
}
);
leftKerningGroup = o;
rightKerningGroup = e;
unicode = 00E8;
},
{
glyphname = f;
layers = (
{
anchors = (
{
name = bottom;
position = "{172, 0}";
},
{
name = top;
position = "{172, 631}";
}
);
background = {
paths = (
{
closed = 1;
nodes = (
"116 490 LINE",
"116 540 LINE",
"140 625 LINE",
"186 687 LINE",
"256 723 LINE",
"301 724 LINE",
"324 724 LINE",
"369 711 LINE",
"405 685 LINE",
"428 649 LINE",
"428 626 LINE",
"428 598 LINE",
"394 551 LINE",
"362 551 LINE",
"341 551 LINE",
"318 572 LINE",
"318 577 LINE",
"318 579 LINE",
"329 587 LINE",
"341 602 LINE",
"352 623 LINE",
"352 638 LINE",
"352 660 LINE",
"319 691 LINE",
"294 691 LINE",
"261 691 LINE",
"226 650 LINE",
"210 592 LINE",
"208 529 LINE",
"208 508 LINE",
"208 453 LINE",
"306 453 LINE",
"316 453 LINE",
"330 450 LINE",
"331 434 LINE",
"331 426 LINE",
"322 414 LINE",
"314 414 LINE",
"208 414 LINE",
"208 103 LINE",
"208 90 LINE",
"208 65 LINE",
"217 46 LINE",
"238 35 LINE",
"279 35 LINE",
"289 35 LINE",
"301 32 LINE",
"302 17 LINE",
"302 9 LINE",
"295 -3 LINE",
"287 -3 LINE",
"238 -1 LINE",
"188 0 LINE",
"162 0 LINE",
"135 0 LINE",
"87 -1 LINE",
"58 -3 LINE",
"50 -3 LINE",
"42 9 LINE",
"42 17 LINE",
"43 32 LINE",
"55 35 LINE",
"65 35 LINE",
"86 35 LINE",
"107 46 LINE",
"116 65 LINE",
"116 90 LINE",
"116 103 LINE",
"116 414 LINE",
"39 414 LINE",
"31 414 LINE",
"22 426 LINE",
"22 434 LINE",
"23 450 LINE",
"36 453 LINE",
"46 453 LINE",
"116 453 LINE"
);
}
);
};
layerId = UUID0;
paths = (
{
closed = 1;
nodes = (
"96 -1 OFFCURVE",
"126 0 OFFCURVE",
"162 0 CURVE SMOOTH",
"197 0 OFFCURVE",
"248 -1 OFFCURVE",
"287 -3 CURVE SMOOTH",
"297 -3 OFFCURVE",
"302 7 OFFCURVE",
"302 17 CURVE SMOOTH",
"301 37 OFFCURVE",
"292 35 OFFCURVE",
"279 35 CURVE SMOOTH",
"216 35 OFFCURVE",
"208 44 OFFCURVE",
"208 103 CURVE SMOOTH",
"208 414 LINE",
"314 414 LINE SMOOTH",
"324 414 OFFCURVE",
"331 424 OFFCURVE",
"331 434 CURVE SMOOTH",
"330 455 OFFCURVE",
"319 453 OFFCURVE",
"306 453 CURVE SMOOTH",
"208 453 LINE",
"208 513 LINE SMOOTH",
"208 570 OFFCURVE",
"206 696 OFFCURVE",
"294 696 CURVE SMOOTH",
"327 696 OFFCURVE",
"352 672 OFFCURVE",
"352 643 CURVE SMOOTH",
"352 604 OFFCURVE",
"318 587 OFFCURVE",
"318 582 CURVE SMOOTH",
"318 576 OFFCURVE",
"334 556 OFFCURVE",
"362 556 CURVE SMOOTH",
"405 556 OFFCURVE",
"428 594 OFFCURVE",
"428 631 CURVE SMOOTH",
"428 692 OFFCURVE",
"362 729 OFFCURVE",
"301 729 CURVE",
"180 726 OFFCURVE",
"116 628 OFFCURVE",
"116 495 CURVE",
"116 453 LINE",
"56 453 LINE SMOOTH",
"43 453 OFFCURVE",
"33 455 OFFCURVE",
"32 434 CURVE SMOOTH",
"32 424 OFFCURVE",
"38 414 OFFCURVE",
"49 414 CURVE SMOOTH",
"116 414 LINE",
"116 103 LINE SMOOTH",
"116 68 OFFCURVE",
"121 35 OFFCURVE",
"65 35 CURVE SMOOTH",
"52 35 OFFCURVE",
"43 37 OFFCURVE",
"42 17 CURVE SMOOTH",
"42 7 OFFCURVE",
"47 -3 OFFCURVE",
"58 -3 CURVE SMOOTH"
);
}
);
width = 343;
}
);
leftKerningGroup = f;
rightKerningGroup = f;
unicode = 0066;
},
{
glyphname = g;
layers = (
{
anchors = (
{
name = bottom;
position = "{251, -208}";
},
{
name = top;
position = "{246, 453}";
}
);
background = {
paths = (
{
closed = 1;
nodes = (
"401 414 LINE",
"401 412 LINE",
"418 395 LINE",
"442 339 LINE",
"442 314 LINE",
"442 278 LINE",
"410 220 LINE",
"357 180 LINE",
"290 159 LINE",
"256 159 LINE",
"212 159 LINE",
"160 159 LINE",
"113 139 LINE",
"113 116 LINE",
"113 98 LINE",
"138 79 LINE",
"171 77 LINE",
"308 73 LINE",
"414 73 LINE",
"506 8 LINE",
"506 -51 LINE",
"506 -91 LINE",
"468 -153 LINE",
"397 -196 LINE",
"299 -218 LINE",
"239 -218 LINE",
"191 -218 LINE",
"112 -206 LINE",
"57 -178 LINE",
"27 -132 LINE",
"27 -98 LINE",
"27 -65 LINE",
"69 -14 LINE",
"104 -14 LINE",
"116 -14 LINE",
"135 -21 LINE",
"149 -31 LINE",
"157 -41 LINE",
"157 -44 LINE",
"157 -46 LINE",
"148 -54 LINE",
"136 -68 LINE",
"127 -89 LINE",
"127 -104 LINE",
"127 -151 LINE",
"196 -181 LINE",
"269 -181 LINE",
"337 -181 LINE",
"417 -130 LINE",
"417 -76 LINE",
"417 -52 LINE",
"390 -23 LINE",
"346 -8 LINE",
"288 -3 LINE",
"226 -2 LINE",
"164 0 LINE",
"138 5 LINE",
"103 11 LINE",
"56 45 LINE",
"56 86 LINE",
"56 123 LINE",
"108 178 LINE",
"162 178 LINE",
"130 190 LINE",
"89 221 LINE",
"65 256 LINE",
"55 294 LINE",
"55 313 LINE",
"55 345 LINE",
"83 401 LINE",
"134 442 LINE",
"205 466 LINE",
"248 466 LINE",
"276 466 LINE",
"337 457 LINE",
"359 446 LINE",
"496 472 LINE",
"507 473 LINE",
"515 457 LINE",
"515 448 LINE",
"515 434 LINE",
"507 410 LINE",
"500 410 LINE"
);
},
{
closed = 1;
nodes = (
"247 435 LINE",
"202 435 LINE",
"144 373 LINE",
"144 316 LINE",
"144 254 LINE",
"203 188 LINE",
"248 188 LINE",
"294 188 LINE",
"352 253 LINE",
"352 314 LINE",
"352 371 LINE",
"293 435 LINE"
);
}
);
};
layerId = UUID0;
paths = (
{
closed = 1;
nodes = (
"398 -218 OFFCURVE",
"506 -157 OFFCURVE",
"506 -51 CURVE SMOOTH",
"506 28 OFFCURVE",
"450 67 OFFCURVE",
"308 72 CURVE SMOOTH",
"171 77 LINE",
"127 80 OFFCURVE",
"113 92 OFFCURVE",
"113 116 CURVE SMOOTH",
"113 147 OFFCURVE",
"143 159 OFFCURVE",
"212 159 CURVE SMOOTH",
"256 159 LINE SMOOTH",
"348 159 OFFCURVE",
"442 217 OFFCURVE",
"442 314 CURVE SMOOTH",
"442 347 OFFCURVE",
"424 389 OFFCURVE",
"401 412 CURVE",
"401 414 LINE",
"500 410 LINE",
"509 410 OFFCURVE",
"515 430 OFFCURVE",
"515 448 CURVE SMOOTH",
"515 460 OFFCURVE",
"511 473 OFFCURVE",
"496 472 CURVE",
"359 446 LINE",
"330 461 OFFCURVE",
"285 466 OFFCURVE",
"248 466 CURVE SMOOTH",
"134 466 OFFCURVE",
"55 399 OFFCURVE",
"55 313 CURVE SMOOTH",
"55 262 OFFCURVE",
"77 211 OFFCURVE",
"162 178 CURVE",
"91 178 OFFCURVE",
"56 135 OFFCURVE",
"56 86 CURVE SMOOTH",
"56 32 OFFCURVE",
"91 13 OFFCURVE",
"138 5 CURVE SMOOTH",
"244 -13 OFFCURVE",
"417 21 OFFCURVE",
"417 -76 CURVE SMOOTH",
"417 -147 OFFCURVE",
"359 -181 OFFCURVE",
"259 -181 CURVE SMOOTH",
"172 -181 OFFCURVE",
"127 -156 OFFCURVE",
"127 -104 CURVE SMOOTH",
"127 -65 OFFCURVE",
"157 -49 OFFCURVE",
"157 -44 CURVE SMOOTH",
"157 -37 OFFCURVE",
"135 -14 OFFCURVE",
"104 -14 CURVE SMOOTH",
"57 -14 OFFCURVE",
"27 -54 OFFCURVE",
"27 -98 CURVE SMOOTH",
"27 -178 OFFCURVE",
"99 -218 OFFCURVE",
"238 -218 CURVE SMOOTH"
);
},
{
closed = 1;
nodes = (
"188 188 OFFCURVE",
"144 234 OFFCURVE",
"144 316 CURVE SMOOTH",
"144 391 OFFCURVE",
"188 435 OFFCURVE",
"247 435 CURVE SMOOTH",
"308 435 OFFCURVE",
"352 389 OFFCURVE",
"352 314 CURVE SMOOTH",
"352 233 OFFCURVE",
"309 188 OFFCURVE",
"248 188 CURVE SMOOTH"
);
}
);
width = 523;
}
);
leftKerningGroup = g;
rightKerningGroup = g;
unicode = 0067;
},
{
glyphname = h;
layers = (
{
anchors = (
{
name = bottom;
position = "{305, 0}";
},
{
name = center;
position = "{172, 567}";
},
{
name = top;
position = "{150, 702}";
}
);
background = {
paths = (
{
closed = 1;
nodes = (
"189 388 LINE",
"191 388 LINE",
"206 402 LINE",
"236 429 LINE",
"273 451 LINE",
"320 465 LINE",
"352 465 LINE",
"421 465 LINE",
"500 383 LINE",
"500 316 LINE",
"500 103 LINE",
"500 90 LINE",
"500 65 LINE",
"509 46 LINE",
"530 35 LINE",
"551 35 LINE",
"561 35 LINE",
"573 32 LINE",
"574 17 LINE",
"574 9 LINE",
"567 -3 LINE",
"559 -3 LINE",
"530 -1 LINE",
"480 0 LINE",
"454 0 LINE",
"427 0 LINE",
"379 -1 LINE",
"350 -3 LINE",
"342 -3 LINE",
"334 9 LINE",
"334 17 LINE",
"335 32 LINE",
"347 35 LINE",
"357 35 LINE",
"378 35 LINE",
"399 46 LINE",
"408 65 LINE",
"408 90 LINE",
"408 103 LINE",
"408 315 LINE",
"408 340 LINE",
"391 376 LINE",
"364 399 LINE",
"330 410 LINE",
"313 410 LINE",
"287 410 LINE",
"245 395 LINE",
"213 373 LINE",
"193 350 LINE",
"189 341 LINE",
"189 103 LINE",
"189 90 LINE",
"189 65 LINE",
"198 46 LINE",
"219 35 LINE",
"240 35 LINE",
"250 35 LINE",
"262 32 LINE",
"263 17 LINE",
"263 9 LINE",
"256 -3 LINE",
"248 -3 LINE",
"219 -1 LINE",
"169 0 LINE",
"143 0 LINE",
"116 0 LINE",
"68 -1 LINE",
"39 -3 LINE",
"31 -3 LINE",
"23 9 LINE",
"23 17 LINE",
"24 32 LINE",
"37 35 LINE",
"46 35 LINE",
"67 35 LINE",
"88 46 LINE",
"97 65 LINE",
"98 90 LINE",
"98 103 LINE",
"98 591 LINE",
"98 604 LINE",
"98 629 LINE",
"89 648 LINE",
"68 659 LINE",
"47 659 LINE",
"38 659 LINE",
"23 664 LINE",
"23 679 LINE",
"23 685 LINE",
"31 695 LINE",
"39 697 LINE",
"73 702 LINE",
"117 713 LINE",
"145 722 LINE",
"162 728 LINE",
"170 729 LINE",
"178 730 LINE",
"189 722 LINE",
"189 710 LINE"
);
}
);
};
layerId = UUID0;
paths = (
{
closed = 1;
nodes = (
"78 -1 OFFCURVE",
"107 0 OFFCURVE",
"143 0 CURVE SMOOTH",
"178 0 OFFCURVE",
"209 -1 OFFCURVE",
"248 -3 CURVE SMOOTH",
"258 -3 OFFCURVE",
"263 7 OFFCURVE",
"263 17 CURVE SMOOTH",
"262 37 OFFCURVE",
"253 35 OFFCURVE",
"240 35 CURVE SMOOTH",
"185 35 OFFCURVE",
"189 68 OFFCURVE",
"189 103 CURVE SMOOTH",
"189 341 LINE",
"200 364 OFFCURVE",
"244 410 OFFCURVE",
"313 410 CURVE SMOOTH",
"359 410 OFFCURVE",
"408 381 OFFCURVE",
"408 315 CURVE SMOOTH",
"408 103 LINE SMOOTH",
"408 68 OFFCURVE",
"413 35 OFFCURVE",
"357 35 CURVE SMOOTH",
"344 35 OFFCURVE",
"335 37 OFFCURVE",
"334 17 CURVE SMOOTH",
"334 7 OFFCURVE",
"339 -3 OFFCURVE",
"350 -3 CURVE SMOOTH",
"388 -1 OFFCURVE",
"418 0 OFFCURVE",
"454 0 CURVE SMOOTH",
"489 0 OFFCURVE",
"520 -1 OFFCURVE",
"559 -3 CURVE SMOOTH",
"569 -3 OFFCURVE",
"574 7 OFFCURVE",
"574 17 CURVE SMOOTH",
"573 37 OFFCURVE",
"564 35 OFFCURVE",
"551 35 CURVE SMOOTH",
"496 35 OFFCURVE",
"500 68 OFFCURVE",
"500 103 CURVE SMOOTH",
"500 316 LINE SMOOTH",
"500 405 OFFCURVE",
"443 465 OFFCURVE",
"352 465 CURVE SMOOTH",
"268 465 OFFCURVE",
"230 425 OFFCURVE",
"191 388 CURVE",
"189 388 LINE",
"189 710 LINE SMOOTH",
"189 726 OFFCURVE",
"180 729 OFFCURVE",
"170 729 CURVE SMOOTH",
"150 729 OFFCURVE",
"130 710 OFFCURVE",
"39 697 CURVE SMOOTH",
"28 695 OFFCURVE",
"23 687 OFFCURVE",
"23 679 CURVE SMOOTH",
"23 659 OFFCURVE",
"35 659 OFFCURVE",
"47 659 CURVE SMOOTH",
"102 659 OFFCURVE",
"98 626 OFFCURVE",
"98 591 CURVE SMOOTH",
"98 103 LINE SMOOTH",
"98 68 OFFCURVE",
"102 35 OFFCURVE",
"46 35 CURVE SMOOTH",
"34 35 OFFCURVE",
"24 37 OFFCURVE",
"23 17 CURVE SMOOTH",
"23 7 OFFCURVE",
"28 -3 OFFCURVE",
"39 -3 CURVE SMOOTH"
);
}
);
width = 589;
}
);
leftKerningGroup = h;
rightKerningGroup = n;
unicode = 0068;
},
{
glyphname = i;
layers = (
{
anchors = (
{
name = bottom;
position = "{149, 0}";
}
);
background = {
paths = (
{
closed = 1;
nodes = (
"144 591 LINE",
"133 591 LINE",
"110 597 LINE",
"91 612 LINE",
"78 635 LINE",
"78 652 LINE",
"78 660 LINE",
"87 681 LINE",
"106 699 LINE",
"134 711 LINE",
"153 711 LINE",
"162 711 LINE",
"182 704 LINE",
"199 689 LINE",
"210 666 LINE",
"210 649 LINE",
"210 628 LINE",
"176 591 LINE"
);
},
{
closed = 1;
nodes = (
"200 103 LINE",
"200 90 LINE",
"200 65 LINE",
"209 46 LINE",
"231 35 LINE",
"252 35 LINE",
"261 35 LINE",
"274 32 LINE",
"275 17 LINE",
"275 9 LINE",
"267 -3 LINE",
"259 -3 LINE",
"230 -1 LINE",
"181 0 LINE",
"154 0 LINE",
"127 0 LINE",
"79 -1 LINE",
"50 -3 LINE",
"42 -3 LINE",
"34 9 LINE",
"34 17 LINE",
"36 32 LINE",
"48 35 LINE",
"58 35 LINE",
"79 35 LINE",
"100 46 LINE",
"109 65 LINE",
"109 90 LINE",
"109 103 LINE",
"109 332 LINE",
"109 345 LINE",
"109 370 LINE",
"100 389 LINE",
"79 400 LINE",
"58 400 LINE",
"49 400 LINE",
"34 405 LINE",
"34 420 LINE",
"34 426 LINE",
"42 436 LINE",
"50 438 LINE",
"84 443 LINE",
"128 454 LINE",
"156 463 LINE",
"173 469 LINE",
"181 470 LINE",
"189 471 LINE",
"200 463 LINE",
"200 451 LINE"
);
}
);
};
components = (
{
name = idotless;
},
{
name = dotaccentcomb;
transform = "{1, 0, 0, 1, 32, 0}";
}
);
layerId = UUID0;
width = 296;
}
);
leftKerningGroup = i;
rightKerningGroup = i;
unicode = 0069;
},
{
glyphname = idotless;
layers = (
{
anchors = (
{
name = bottom;
position = "{148, 0}";
},
{
name = ogonek;
position = "{266, 10}";
},
{
name = top;
position = "{148, 453}";
}
);
layerId = UUID0;
paths = (
{
closed = 1;
nodes = (
"88 -1 OFFCURVE",
"117 0 OFFCURVE",
"153 0 CURVE",
"189 0 OFFCURVE",
"219 -1 OFFCURVE",
"258 -3 CURVE SMOOTH",
"269 -3 OFFCURVE",
"274 7 OFFCURVE",
"274 17 CURVE SMOOTH",
"273 37 OFFCURVE",
"263 35 OFFCURVE",
"251 35 CURVE SMOOTH",
"195 35 OFFCURVE",
"199 68 OFFCURVE",
"199 103 CURVE SMOOTH",
"199 451 LINE",
"199 467 OFFCURVE",
"190 471 OFFCURVE",
"180 470 CURVE SMOOTH",
"160 468 OFFCURVE",
"140 451 OFFCURVE",
"49 438 CURVE",
"38 436 OFFCURVE",
"33 428 OFFCURVE",
"33 420 CURVE SMOOTH",
"33 400 OFFCURVE",
"45 400 OFFCURVE",
"57 400 CURVE SMOOTH",
"112 400 OFFCURVE",
"108 367 OFFCURVE",
"108 332 CURVE",
"108 103 LINE SMOOTH",
"108 68 OFFCURVE",
"112 35 OFFCURVE",
"57 35 CURVE SMOOTH",
"44 35 OFFCURVE",
"35 37 OFFCURVE",
"33 17 CURVE SMOOTH",
"33 7 OFFCURVE",
"39 -3 OFFCURVE",
"49 -3 CURVE SMOOTH"
);
}
);
width = 296;
}
);
leftKerningGroup = i;
rightKerningGroup = i;
unicode = 0131;
},
{
glyphname = iacute;
layers = (
{
background = {
paths = (
{
closed = 1;
nodes = (
"199 103 LINE",
"199 90 LINE",
"199 65 LINE",
"208 46 LINE",
"230 35 LINE",
"251 35 LINE",
"260 35 LINE",
"273 32 LINE",
"274 17 LINE",
"274 9 LINE",
"266 -3 LINE",
"258 -3 LINE",
"229 -1 LINE",
"180 0 LINE",
"153 0 LINE",
"126 0 LINE",
"78 -1 LINE",
"49 -3 LINE",
"41 -3 LINE",
"33 9 LINE",
"33 17 LINE",
"35 32 LINE",
"47 35 LINE",
"57 35 LINE",
"78 35 LINE",
"99 46 LINE",
"108 65 LINE",
"108 90 LINE",
"108 103 LINE",
"108 332 LINE",
"108 345 LINE",
"108 370 LINE",
"99 389 LINE",
"78 400 LINE",
"57 400 LINE",
"48 400 LINE",
"33 405 LINE",
"33 420 LINE",
"33 426 LINE",
"41 436 LINE",
"49 438 LINE",
"83 443 LINE",
"127 454 LINE",
"155 463 LINE",
"172 469 LINE",
"180 470 LINE",
"188 471 LINE",
"199 463 LINE",
"199 451 LINE"
);
},
{
closed = 1;
nodes = (
"121 518 LINE",
"111 507 LINE",
"91 505 LINE",
"84 509 LINE",
"77 513 LINE",
"71 531 LINE",
"77 542 LINE",
"152 679 LINE",
"160 693 LINE",
"190 706 LINE",
"207 697 LINE",
"224 688 LINE",
"236 652 LINE",
"223 637 LINE"
);
}
);
};
components = (
{
name = idotless;
},
{
name = acutecomb;
transform = "{1, 0, 0, 1, -64, 0}";
}
);
layerId = UUID0;
width = 296;
}
);
leftKerningGroup = i;
rightKerningGroup = i;
unicode = 00ED;
},
{
glyphname = icircumflex;
layers = (
{
background = {
paths = (
{
closed = 1;
nodes = (
"199 103 LINE",
"199 90 LINE",
"199 65 LINE",
"208 46 LINE",
"230 35 LINE",
"251 35 LINE",
"260 35 LINE",
"273 32 LINE",
"274 17 LINE",
"274 9 LINE",
"266 -3 LINE",
"258 -3 LINE",
"229 -1 LINE",
"180 0 LINE",
"153 0 LINE",
"126 0 LINE",
"78 -1 LINE",
"49 -3 LINE",
"41 -3 LINE",
"33 9 LINE",
"33 17 LINE",
"35 32 LINE",
"47 35 LINE",
"57 35 LINE",
"78 35 LINE",
"99 46 LINE",
"108 65 LINE",
"108 90 LINE",
"108 103 LINE",
"108 332 LINE",
"108 345 LINE",
"108 370 LINE",
"99 389 LINE",
"78 400 LINE",
"57 400 LINE",
"48 400 LINE",
"33 405 LINE",
"33 420 LINE",
"33 426 LINE",
"41 436 LINE",
"49 438 LINE",
"83 443 LINE",
"127 454 LINE",
"155 463 LINE",
"172 469 LINE",
"180 470 LINE",
"188 471 LINE",
"199 463 LINE",
"199 451 LINE"
);
},
{
closed = 1;
nodes = (
"254 549 LINE",
"261 538 LINE",
"254 523 LINE",
"248 519 LINE",
"242 516 LINE",
"226 517 LINE",
"214 526 LINE",
"200 537 LINE",
"159 583 LINE",
"127 624 LINE",
"95 583 LINE",
"54 537 LINE",
"40 526 LINE",
"28 517 LINE",
"12 516 LINE",
"6 519 LINE",
"0 523 LINE",
"-7 538 LINE",
"0 549 LINE",
"102 697 LINE",
"111 710 LINE",
"126 710 LINE",
"133 710 LINE",
"147 705 LINE",
"152 697 LINE"
);
}
);
};
components = (
{
name = idotless;
},
{
name = circumflexcomb;
transform = "{1, 0, 0, 1, -44, 0}";
}
);
layerId = UUID0;
width = 296;
}
);
leftKerningGroup = i;
rightKerningGroup = i;
unicode = 00EE;
},
{
glyphname = idieresis;
layers = (
{
background = {
paths = (
{
closed = 1;
nodes = (
"199 103 LINE",
"199 90 LINE",
"199 65 LINE",
"208 46 LINE",
"230 35 LINE",
"251 35 LINE",
"260 35 LINE",
"273 32 LINE",
"274 17 LINE",
"274 9 LINE",
"266 -3 LINE",
"258 -3 LINE",
"229 -1 LINE",
"180 0 LINE",
"153 0 LINE",
"126 0 LINE",
"78 -1 LINE",
"49 -3 LINE",
"41 -3 LINE",
"33 9 LINE",
"33 17 LINE",
"35 32 LINE",
"47 35 LINE",
"57 35 LINE",
"78 35 LINE",
"99 46 LINE",
"108 65 LINE",
"108 90 LINE",
"108 103 LINE",
"108 332 LINE",
"108 345 LINE",
"108 370 LINE",
"99 389 LINE",
"78 400 LINE",
"57 400 LINE",
"48 400 LINE",
"33 405 LINE",
"33 420 LINE",
"33 426 LINE",
"41 436 LINE",
"49 438 LINE",
"83 443 LINE",
"127 454 LINE",
"155 463 LINE",
"172 469 LINE",
"180 470 LINE",
"188 471 LINE",
"199 463 LINE",
"199 451 LINE"
);
},
{
closed = 1;
nodes = (
"50 667 LINE",
"76 667 LINE",
"110 633 LINE",
"110 607 LINE",
"110 583 LINE",
"75 547 LINE",
"49 547 LINE",
"23 547 LINE",
"-13 583 LINE",
"-13 607 LINE",
"-13 633 LINE",
"24 667 LINE"
);
},
{
closed = 1;
nodes = (
"223 667 LINE",
"249 667 LINE",
"283 633 LINE",
"283 607 LINE",
"283 583 LINE",
"248 547 LINE",
"222 547 LINE",
"196 547 LINE",
"160 583 LINE",
"160 607 LINE",
"160 633 LINE",
"197 667 LINE"
);
}
);
};
components = (
{
name = idotless;
},
{
name = dieresiscomb;
transform = "{1, 0, 0, 1, -51, 0}";
}
);
layerId = UUID0;
width = 296;
}
);
leftKerningGroup = i;
rightKerningGroup = i;
unicode = 00EF;
},
{
glyphname = igrave;
layers = (
{
background = {
paths = (
{
closed = 1;
nodes = (
"199 103 LINE",
"199 90 LINE",
"199 65 LINE",
"208 46 LINE",
"230 35 LINE",
"251 35 LINE",
"260 35 LINE",
"273 32 LINE",
"274 17 LINE",
"274 9 LINE",
"266 -3 LINE",
"258 -3 LINE",
"229 -1 LINE",
"180 0 LINE",
"153 0 LINE",
"126 0 LINE",
"78 -1 LINE",
"49 -3 LINE",
"41 -3 LINE",
"33 9 LINE",
"33 17 LINE",
"35 32 LINE",
"47 35 LINE",
"57 35 LINE",
"78 35 LINE",
"99 46 LINE",
"108 65 LINE",
"108 90 LINE",
"108 103 LINE",
"108 332 LINE",
"108 345 LINE",
"108 370 LINE",
"99 389 LINE",
"78 400 LINE",
"57 400 LINE",
"48 400 LINE",
"33 405 LINE",
"33 420 LINE",
"33 426 LINE",
"41 436 LINE",
"49 438 LINE",
"83 443 LINE",
"127 454 LINE",
"155 463 LINE",
"172 469 LINE",
"180 470 LINE",
"188 471 LINE",
"199 463 LINE",
"199 451 LINE"
);
},
{
closed = 1;
nodes = (
"22 637 LINE",
"9 652 LINE",
"21 688 LINE",
"38 697 LINE",
"55 706 LINE",
"85 693 LINE",
"93 679 LINE",
"168 542 LINE",
"174 531 LINE",
"168 513 LINE",
"161 509 LINE",
"154 505 LINE",
"134 507 LINE",
"124 518 LINE"
);
}
);
};
components = (
{
name = idotless;
},
{
name = gravecomb;
transform = "{1, 0, 0, 1, -85, 0}";
}
);
layerId = UUID0;
width = 296;
}
);
leftKerningGroup = i;
rightKerningGroup = i;
unicode = 00EC;
},
{
glyphname = j;
layers = (
{
background = {
paths = (
{
closed = 1;
nodes = (
"98 332 LINE",
"98 345 LINE",
"98 370 LINE",
"89 389 LINE",
"68 400 LINE",
"47 400 LINE",
"38 400 LINE",
"23 405 LINE",
"23 420 LINE",
"23 426 LINE",
"31 436 LINE",
"39 438 LINE",
"73 443 LINE",
"117 454 LINE",
"145 463 LINE",
"162 469 LINE",
"170 470 LINE",
"178 471 LINE",
"189 463 LINE",
"189 451 LINE",
"189 99 LINE",
"189 42 LINE",
"171 -57 LINE",
"128 -137 LINE",
"57 -192 LINE",
"4 -205 LINE",
"-4 -207 LINE",
"-12 -200 LINE",
"-16 -191 LINE",
"-18 -183 LINE",
"-16 -170 LINE",
"-8 -167 LINE",
"28 -152 LINE",
"71 -101 LINE",
"92 -27 LINE",
"98 70 LINE",
"98 131 LINE"
);
},
{
closed = 1;
nodes = (
"117 591 LINE",
"106 591 LINE",
"83 597 LINE",
"64 612 LINE",
"51 635 LINE",
"51 652 LINE",
"51 660 LINE",
"60 681 LINE",
"79 699 LINE",
"107 711 LINE",
"126 711 LINE",
"135 711 LINE",
"155 704 LINE",
"172 689 LINE",
"183 666 LINE",
"183 649 LINE",
"183 628 LINE",
"149 591 LINE"
);
}
);
};
components = (
{
name = jdotless;
},
{
name = dotaccentcomb;
transform = "{1, 0, 0, 1, 54, 0}";
}
);
layerId = UUID0;
width = 300;
}
);
leftKerningGroup = j;
rightKerningGroup = j;
unicode = 006A;
},
{
glyphname = jdotless;
layers = (
{
anchors = (
{
name = bottom;
position = "{150, 0}";
},
{
name = top;
position = "{170, 453}";
}
);
layerId = UUID0;
paths = (
{
closed = 1;
nodes = (
"180 -171 OFFCURVE",
"223 -52 OFFCURVE",
"223 99 CURVE",
"223 451 LINE SMOOTH",
"223 467 OFFCURVE",
"214 471 OFFCURVE",
"204 470 CURVE SMOOTH",
"184 468 OFFCURVE",
"164 451 OFFCURVE",
"73 438 CURVE SMOOTH",
"62 436 OFFCURVE",
"57 428 OFFCURVE",
"57 420 CURVE SMOOTH",
"57 400 OFFCURVE",
"69 400 OFFCURVE",
"81 400 CURVE SMOOTH",
"136 400 OFFCURVE",
"132 367 OFFCURVE",
"132 332 CURVE",
"132 131 LINE",
"132 -32 OFFCURVE",
"123 -126 OFFCURVE",
"26 -167 CURVE",
"15 -171 OFFCURVE",
"16 -181 OFFCURVE",
"18 -191 CURVE SMOOTH",
"23 -203 OFFCURVE",
"27 -207 OFFCURVE",
"38 -205 CURVE"
);
}
);
width = 300;
}
);
leftKerningGroup = j;
rightKerningGroup = j;
unicode = 0237;
},
{
glyphname = k;
layers = (
{
anchors = (
{
name = bottom;
position = "{319, 0}";
},
{
name = top;
position = "{134, 631}";
}
);
background = {
paths = (
{
closed = 1;
nodes = (
"189 252 LINE",
"211 257 LINE",
"248 276 LINE",
"261 289 LINE",
"345 375 LINE",
"351 382 LINE",
"366 398 LINE",
"368 412 LINE",
"349 419 LINE",
"321 418 LINE",
"310 420 LINE",
"309 436 LINE",
"309 444 LINE",
"317 456 LINE",
"325 456 LINE",
"348 454 LINE",
"412 453 LINE",
"435 453 LINE",
"452 453 LINE",
"485 455 LINE",
"502 456 LINE",
"510 456 LINE",
"518 444 LINE",
"518 436 LINE",
"517 423 LINE",
"508 418 LINE",
"501 418 LINE",
"462 418 LINE",
"414 390 LINE",
"384 359 LINE",
"300 273 LINE",
"312 257 LINE",
"352 210 LINE",
"396 160 LINE",
"437 115 LINE",
"449 101 LINE",
"478 70 LINE",
"517 37 LINE",
"546 35 LINE",
"554 34 LINE",
"568 31 LINE",
"568 17 LINE",
"568 9 LINE",
"561 -3 LINE",
"552 -3 LINE",
"538 -2 LINE",
"521 -1 LINE",
"497 0 LINE",
"456 0 LINE",
"419 0 LINE",
"384 38 LINE",
"293 143 LINE",
"248 196 LINE",
"237 207 LINE",
"207 226 LINE",
"189 224 LINE",
"189 103 LINE",
"189 90 LINE",
"189 65 LINE",
"198 46 LINE",
"219 35 LINE",
"240 35 LINE",
"250 35 LINE",
"262 32 LINE",
"264 17 LINE",
"264 9 LINE",
"256 -3 LINE",
"248 -3 LINE",
"219 -1 LINE",
"169 0 LINE",
"143 0 LINE",
"116 0 LINE",
"68 -1 LINE",
"39 -3 LINE",
"31 -3 LINE",
"23 9 LINE",
"23 17 LINE",
"24 32 LINE",
"37 35 LINE",
"46 35 LINE",
"67 35 LINE",
"88 46 LINE",
"97 65 LINE",
"98 90 LINE",
"98 103 LINE",
"98 590 LINE",
"98 603 LINE",
"98 628 LINE",
"89 647 LINE",
"68 658 LINE",
"47 658 LINE",
"38 658 LINE",
"23 663 LINE",
"23 678 LINE",
"23 684 LINE",
"31 694 LINE",
"39 696 LINE",
"73 701 LINE",
"117 712 LINE",
"145 721 LINE",
"162 727 LINE",
"170 728 LINE",
"178 729 LINE",
"189 721 LINE",
"189 709 LINE"
);
}
);
};
layerId = UUID0;
paths = (
{
closed = 1;
nodes = (
"78 -1 OFFCURVE",
"107 0 OFFCURVE",
"143 0 CURVE SMOOTH",
"178 0 OFFCURVE",
"209 -1 OFFCURVE",
"248 -3 CURVE SMOOTH",
"258 -3 OFFCURVE",
"264 7 OFFCURVE",
"264 17 CURVE SMOOTH",
"262 37 OFFCURVE",
"253 35 OFFCURVE",
"240 35 CURVE SMOOTH",
"185 35 OFFCURVE",
"189 68 OFFCURVE",
"189 103 CURVE SMOOTH",
"189 224 LINE",
"213 226 OFFCURVE",
"234 211 OFFCURVE",
"248 196 CURVE",
"308 126 OFFCURVE",
"372 50 OFFCURVE",
"419 0 CURVE",
"519 0 OFFCURVE",
"514 -1 OFFCURVE",
"552 -3 CURVE SMOOTH",
"564 -3 OFFCURVE",
"568 7 OFFCURVE",
"568 17 CURVE SMOOTH",
"568 36 OFFCURVE",
"556 34 OFFCURVE",
"546 35 CURVE SMOOTH",
"507 38 OFFCURVE",
"488 60 OFFCURVE",
"449 101 CURVE",
"417 138 OFFCURVE",
"331 231 OFFCURVE",
"300 273 CURVE SMOOTH",
"384 359 LINE",
"424 400 OFFCURVE",
"449 418 OFFCURVE",
"501 418 CURVE",
"510 418 OFFCURVE",
"517 419 OFFCURVE",
"518 436 CURVE SMOOTH",
"518 446 OFFCURVE",
"512 456 OFFCURVE",
"502 456 CURVE SMOOTH",
"479 455 OFFCURVE",
"458 453 OFFCURVE",
"435 453 CURVE SMOOTH",
"405 453 OFFCURVE",
"355 454 OFFCURVE",
"325 456 CURVE",
"315 456 OFFCURVE",
"309 446 OFFCURVE",
"309 436 CURVE SMOOTH",
"310 424 OFFCURVE",
"314 419 OFFCURVE",
"321 418 CURVE",
"395 422 OFFCURVE",
"362 394 OFFCURVE",
"345 375 CURVE",
"261 289 LINE",
"244 272 OFFCURVE",
"218 258 OFFCURVE",
"189 252 CURVE",
"189 709 LINE",
"189 725 OFFCURVE",
"180 729 OFFCURVE",
"170 728 CURVE SMOOTH",
"150 726 OFFCURVE",
"130 709 OFFCURVE",
"39 696 CURVE SMOOTH",
"28 694 OFFCURVE",
"23 686 OFFCURVE",
"23 678 CURVE SMOOTH",
"23 658 OFFCURVE",
"35 658 OFFCURVE",
"47 658 CURVE SMOOTH",
"102 658 OFFCURVE",
"98 625 OFFCURVE",
"98 590 CURVE",
"98 103 LINE SMOOTH",
"98 68 OFFCURVE",
"102 35 OFFCURVE",
"46 35 CURVE SMOOTH",
"34 35 OFFCURVE",
"24 37 OFFCURVE",
"23 17 CURVE SMOOTH",
"23 7 OFFCURVE",
"28 -3 OFFCURVE",
"39 -3 CURVE SMOOTH"
);
}
);
width = 567;
}
);
leftKerningGroup = h;
rightKerningGroup = k;
unicode = 006B;
},
{
glyphname = l;
layers = (
{
anchors = (
{
name = bottom;
position = "{143, 0}";
},
{
name = center;
position = "{153, 317}";
},
{
name = top;
position = "{143, 729}";
},
{
name = topright;
position = "{283, 453}";
}
);
background = {
paths = (
{
closed = 1;
nodes = (
"98 591 LINE",
"98 604 LINE",
"98 629 LINE",
"89 648 LINE",
"68 659 LINE",
"47 659 LINE",
"38 659 LINE",
"23 664 LINE",
"23 679 LINE",
"23 685 LINE",
"31 695 LINE",
"39 697 LINE",
"73 702 LINE",
"117 713 LINE",
"145 722 LINE",
"162 728 LINE",
"170 729 LINE",
"178 730 LINE",
"189 722 LINE",
"189 710 LINE",
"189 103 LINE",
"189 90 LINE",
"189 65 LINE",
"198 46 LINE",
"220 35 LINE",
"241 35 LINE",
"250 35 LINE",
"263 32 LINE",
"264 17 LINE",
"264 9 LINE",
"256 -3 LINE",
"248 -3 LINE",
"219 -1 LINE",
"170 0 LINE",
"143 0 LINE",
"116 0 LINE",
"68 -1 LINE",
"39 -3 LINE",
"31 -3 LINE",
"23 9 LINE",
"23 17 LINE",
"24 32 LINE",
"37 35 LINE",
"46 35 LINE",
"67 35 LINE",
"88 46 LINE",
"97 65 LINE",
"98 90 LINE",
"98 103 LINE"
);
}
);
};
layerId = UUID0;
paths = (
{
closed = 1;
nodes = (
"78 -1 OFFCURVE",
"107 0 OFFCURVE",
"143 0 CURVE",
"179 0 OFFCURVE",
"209 -1 OFFCURVE",
"248 -3 CURVE SMOOTH",
"259 -3 OFFCURVE",
"264 7 OFFCURVE",
"264 17 CURVE SMOOTH",
"263 37 OFFCURVE",
"253 35 OFFCURVE",
"241 35 CURVE SMOOTH",
"185 35 OFFCURVE",
"189 68 OFFCURVE",
"189 103 CURVE",
"189 710 LINE SMOOTH",
"189 726 OFFCURVE",
"180 730 OFFCURVE",
"170 729 CURVE SMOOTH",
"150 727 OFFCURVE",
"130 710 OFFCURVE",
"39 697 CURVE SMOOTH",
"28 695 OFFCURVE",
"23 687 OFFCURVE",
"23 679 CURVE SMOOTH",
"23 659 OFFCURVE",
"35 659 OFFCURVE",
"47 659 CURVE SMOOTH",
"102 659 OFFCURVE",
"98 626 OFFCURVE",
"98 591 CURVE",
"98 103 LINE",
"98 68 OFFCURVE",
"102 35 OFFCURVE",
"46 35 CURVE SMOOTH",
"34 35 OFFCURVE",
"24 37 OFFCURVE",
"23 17 CURVE SMOOTH",
"23 7 OFFCURVE",
"29 -3 OFFCURVE",
"39 -3 CURVE SMOOTH"
);
}
);
width = 286;
}
);
leftKerningGroup = I;
rightKerningGroup = l;
unicode = 006C;
},
